G04 (created by PCBNEW (2012-nov-02)-testing) date Wed 09 Jan 2013 07:39:13 PM PST*
%MOIN*%
G04 Gerber Fmt 3.4, Leading zero omitted, Abs format*
%FSLAX34Y34*%
G01*
G70*
G90*
G04 APERTURE LIST*
%ADD10C,0.006*%
%ADD11C,0.00590551*%
%ADD12C,0.005*%
%ADD13C,0.0047*%
%ADD14C,0.00984252*%
%ADD15C,0.008*%
%ADD16C,0.0125*%
%ADD17C,0.012*%
%ADD18C,0.0039*%
%ADD19C,0.00472441*%
%ADD20C,0.0051*%
%ADD21C,0.00787402*%
G04 APERTURE END LIST*
G54D10*
G54D11*
X65748Y-59055D02*
G75*
G03X66929Y-57874I0J1181D01*
G74*
G01*
X39370Y-57874D02*
G75*
G03X40551Y-59055I1181J0D01*
G74*
G01*
X40551Y-20078D02*
G75*
G03X39370Y-21259I0J-1181D01*
G74*
G01*
X66929Y-21259D02*
G75*
G03X65748Y-20078I-1181J0D01*
G74*
G01*
X40551Y-20078D02*
X65748Y-20078D01*
X40551Y-59055D02*
X65748Y-59055D01*
X66929Y-57874D02*
X66929Y-21259D01*
X39370Y-20866D02*
X39370Y-20885D01*
X39370Y-57874D02*
X39370Y-21259D01*
X59509Y-29944D02*
G75*
G03X59509Y-29944I-158J0D01*
G74*
G01*
X60472Y-30433D02*
X61496Y-30433D01*
X60472Y-32401D02*
X61496Y-32401D01*
X62480Y-30433D02*
X62480Y-32401D01*
X59488Y-30433D02*
X59488Y-32401D01*
X60391Y-36425D02*
G75*
G03X60391Y-36425I-92J0D01*
G74*
G01*
X62795Y-36161D02*
X62874Y-36161D01*
X62874Y-36161D02*
X62874Y-37893D01*
X62874Y-37893D02*
X62795Y-37893D01*
X60196Y-36161D02*
X60118Y-36161D01*
X60118Y-36161D02*
X60118Y-37893D01*
X60118Y-37893D02*
X60196Y-37893D01*
G54D10*
X61074Y-46232D02*
X60624Y-46232D01*
X61074Y-48412D02*
X60634Y-48412D01*
X61074Y-46232D02*
X61074Y-48412D01*
X60194Y-45762D02*
X60194Y-45332D01*
X57984Y-45752D02*
X57984Y-45332D01*
X57974Y-45332D02*
X60194Y-45322D01*
X57994Y-49302D02*
X60164Y-49312D01*
X57564Y-48612D02*
X57564Y-45782D01*
X60174Y-49302D02*
X60174Y-48892D01*
X57814Y-48852D02*
X60594Y-48852D01*
X60614Y-45772D02*
X60614Y-48812D01*
X57564Y-45772D02*
X60564Y-45772D01*
X57114Y-48442D02*
X57114Y-46222D01*
X57114Y-46222D02*
X57564Y-46222D01*
X57568Y-48622D02*
X57798Y-48852D01*
X57116Y-48442D02*
X57568Y-48442D01*
X57994Y-48852D02*
X57994Y-49304D01*
X58165Y-48448D02*
G75*
G03X58165Y-48448I-188J0D01*
G74*
G01*
G54D11*
X54468Y-46397D02*
X54468Y-46200D01*
X54468Y-46200D02*
X53523Y-46200D01*
X53523Y-47381D02*
X54468Y-47381D01*
X54468Y-47381D02*
X54468Y-47185D01*
G54D12*
X57391Y-38007D02*
X57391Y-37307D01*
X57391Y-37307D02*
X56191Y-37307D01*
X56191Y-37307D02*
X56191Y-38007D01*
X56191Y-38007D02*
X57391Y-38007D01*
X58710Y-28125D02*
X58710Y-27425D01*
X58710Y-27425D02*
X57510Y-27425D01*
X57510Y-27425D02*
X57510Y-28125D01*
X57510Y-28125D02*
X58710Y-28125D01*
X63631Y-28204D02*
X63631Y-27504D01*
X63631Y-27504D02*
X62431Y-27504D01*
X62431Y-27504D02*
X62431Y-28204D01*
X62431Y-28204D02*
X63631Y-28204D01*
G54D13*
X45699Y-52925D02*
X46899Y-52925D01*
X46899Y-52925D02*
X46899Y-52625D01*
X46899Y-52625D02*
X45699Y-52625D01*
X45699Y-52625D02*
X45699Y-52925D01*
X45304Y-53511D02*
X44104Y-53511D01*
X44104Y-53511D02*
X44104Y-53811D01*
X44104Y-53811D02*
X45304Y-53811D01*
X45304Y-53811D02*
X45304Y-53511D01*
X54539Y-25855D02*
X54539Y-24655D01*
X54539Y-24655D02*
X54239Y-24655D01*
X54239Y-24655D02*
X54239Y-25855D01*
X54239Y-25855D02*
X54539Y-25855D01*
X45914Y-51975D02*
X44714Y-51975D01*
X44714Y-51975D02*
X44714Y-52275D01*
X44714Y-52275D02*
X45914Y-52275D01*
X45914Y-52275D02*
X45914Y-51975D01*
G54D14*
X55413Y-25500D02*
X55984Y-25500D01*
G54D11*
X56003Y-24862D02*
X55393Y-24862D01*
X55393Y-24862D02*
X55393Y-25649D01*
X55393Y-25649D02*
X56003Y-25649D01*
X56003Y-25649D02*
X56003Y-24862D01*
G54D14*
X43791Y-51633D02*
X43216Y-51633D01*
G54D11*
X43818Y-52287D02*
X43188Y-52287D01*
X43188Y-52287D02*
X43188Y-51500D01*
X43188Y-51500D02*
X43818Y-51500D01*
X43818Y-51500D02*
X43818Y-52287D01*
G54D12*
X51736Y-53340D02*
X53736Y-53340D01*
X53736Y-53340D02*
X53736Y-51540D01*
X53736Y-51540D02*
X51736Y-51540D01*
X51736Y-51540D02*
X51736Y-53340D01*
X51736Y-52740D02*
X51936Y-52740D01*
X51936Y-52740D02*
X51936Y-52240D01*
X51936Y-52240D02*
X51736Y-52240D01*
G54D15*
X48716Y-31320D02*
X50616Y-31320D01*
X50616Y-31320D02*
X50616Y-27320D01*
X50616Y-27320D02*
X48716Y-27320D01*
X48716Y-27320D02*
X48716Y-31320D01*
X49416Y-27320D02*
X49416Y-27570D01*
X49416Y-27570D02*
X49916Y-27570D01*
X49916Y-27570D02*
X49916Y-27320D01*
G54D16*
X52334Y-48456D02*
X53334Y-48456D01*
X52334Y-49456D02*
X53334Y-49456D01*
G54D17*
X52334Y-48456D02*
X52334Y-49456D01*
X53334Y-49456D02*
X53334Y-48456D01*
G54D15*
X42716Y-45294D02*
X42866Y-45294D01*
X44016Y-45294D02*
X43866Y-45294D01*
X44016Y-49194D02*
X43866Y-49194D01*
X42716Y-49194D02*
X42866Y-49194D01*
X42366Y-49494D02*
X42866Y-49494D01*
X44366Y-49494D02*
X43866Y-49494D01*
X44366Y-44994D02*
X43866Y-44994D01*
X42366Y-44994D02*
X42866Y-44994D01*
X44016Y-45294D02*
X44266Y-45544D01*
X44266Y-45544D02*
X44266Y-48944D01*
X44266Y-48944D02*
X44016Y-49194D01*
X42716Y-49194D02*
X42466Y-48944D01*
X42466Y-48944D02*
X42466Y-45544D01*
X42466Y-45544D02*
X42716Y-45294D01*
X44366Y-49494D02*
X44366Y-44994D01*
X42366Y-44994D02*
X42366Y-49494D01*
X46811Y-49194D02*
X46661Y-49194D01*
X45511Y-49194D02*
X45661Y-49194D01*
X45511Y-45294D02*
X45661Y-45294D01*
X46811Y-45294D02*
X46661Y-45294D01*
X47161Y-44994D02*
X46661Y-44994D01*
X45161Y-44994D02*
X45661Y-44994D01*
X45161Y-49494D02*
X45661Y-49494D01*
X47161Y-49494D02*
X46661Y-49494D01*
X45511Y-49194D02*
X45261Y-48944D01*
X45261Y-48944D02*
X45261Y-45544D01*
X45261Y-45544D02*
X45511Y-45294D01*
X46811Y-45294D02*
X47061Y-45544D01*
X47061Y-45544D02*
X47061Y-48944D01*
X47061Y-48944D02*
X46811Y-49194D01*
X45161Y-44994D02*
X45161Y-49494D01*
X47161Y-49494D02*
X47161Y-44994D01*
X48070Y-45294D02*
X48220Y-45294D01*
X49370Y-45294D02*
X49220Y-45294D01*
X49370Y-49194D02*
X49220Y-49194D01*
X48070Y-49194D02*
X48220Y-49194D01*
X47720Y-49494D02*
X48220Y-49494D01*
X49720Y-49494D02*
X49220Y-49494D01*
X49720Y-44994D02*
X49220Y-44994D01*
X47720Y-44994D02*
X48220Y-44994D01*
X49370Y-45294D02*
X49620Y-45544D01*
X49620Y-45544D02*
X49620Y-48944D01*
X49620Y-48944D02*
X49370Y-49194D01*
X48070Y-49194D02*
X47820Y-48944D01*
X47820Y-48944D02*
X47820Y-45544D01*
X47820Y-45544D02*
X48070Y-45294D01*
X49720Y-49494D02*
X49720Y-44994D01*
X47720Y-44994D02*
X47720Y-49494D01*
X51831Y-49194D02*
X51681Y-49194D01*
X50531Y-49194D02*
X50681Y-49194D01*
X50531Y-45294D02*
X50681Y-45294D01*
X51831Y-45294D02*
X51681Y-45294D01*
X52181Y-44994D02*
X51681Y-44994D01*
X50181Y-44994D02*
X50681Y-44994D01*
X50181Y-49494D02*
X50681Y-49494D01*
X52181Y-49494D02*
X51681Y-49494D01*
X50531Y-49194D02*
X50281Y-48944D01*
X50281Y-48944D02*
X50281Y-45544D01*
X50281Y-45544D02*
X50531Y-45294D01*
X51831Y-45294D02*
X52081Y-45544D01*
X52081Y-45544D02*
X52081Y-48944D01*
X52081Y-48944D02*
X51831Y-49194D01*
X50181Y-44994D02*
X50181Y-49494D01*
X52181Y-49494D02*
X52181Y-44994D01*
G54D18*
X56138Y-44877D02*
X55738Y-44877D01*
X55738Y-44877D02*
X55738Y-45477D01*
X55738Y-45477D02*
X56138Y-45477D01*
X56538Y-45477D02*
X56938Y-45477D01*
X56938Y-45477D02*
X56938Y-44877D01*
X56938Y-44877D02*
X56538Y-44877D01*
X62916Y-35103D02*
X63316Y-35103D01*
X63316Y-35103D02*
X63316Y-34503D01*
X63316Y-34503D02*
X62916Y-34503D01*
X62516Y-34503D02*
X62116Y-34503D01*
X62116Y-34503D02*
X62116Y-35103D01*
X62116Y-35103D02*
X62516Y-35103D01*
X54983Y-44355D02*
X55383Y-44355D01*
X55383Y-44355D02*
X55383Y-43755D01*
X55383Y-43755D02*
X54983Y-43755D01*
X54583Y-43755D02*
X54183Y-43755D01*
X54183Y-43755D02*
X54183Y-44355D01*
X54183Y-44355D02*
X54583Y-44355D01*
X55554Y-55969D02*
X55954Y-55969D01*
X55954Y-55969D02*
X55954Y-55369D01*
X55954Y-55369D02*
X55554Y-55369D01*
X55154Y-55369D02*
X54754Y-55369D01*
X54754Y-55369D02*
X54754Y-55969D01*
X54754Y-55969D02*
X55154Y-55969D01*
X53282Y-45101D02*
X53282Y-45501D01*
X53282Y-45501D02*
X53882Y-45501D01*
X53882Y-45501D02*
X53882Y-45101D01*
X53882Y-44701D02*
X53882Y-44301D01*
X53882Y-44301D02*
X53282Y-44301D01*
X53282Y-44301D02*
X53282Y-44701D01*
X54583Y-44877D02*
X54183Y-44877D01*
X54183Y-44877D02*
X54183Y-45477D01*
X54183Y-45477D02*
X54583Y-45477D01*
X54983Y-45477D02*
X55383Y-45477D01*
X55383Y-45477D02*
X55383Y-44877D01*
X55383Y-44877D02*
X54983Y-44877D01*
X62239Y-47404D02*
X62239Y-47804D01*
X62239Y-47804D02*
X62839Y-47804D01*
X62839Y-47804D02*
X62839Y-47404D01*
X62839Y-47004D02*
X62839Y-46604D01*
X62839Y-46604D02*
X62239Y-46604D01*
X62239Y-46604D02*
X62239Y-47004D01*
X56538Y-44355D02*
X56938Y-44355D01*
X56938Y-44355D02*
X56938Y-43755D01*
X56938Y-43755D02*
X56538Y-43755D01*
X56138Y-43755D02*
X55738Y-43755D01*
X55738Y-43755D02*
X55738Y-44355D01*
X55738Y-44355D02*
X56138Y-44355D01*
X58133Y-44355D02*
X58533Y-44355D01*
X58533Y-44355D02*
X58533Y-43755D01*
X58533Y-43755D02*
X58133Y-43755D01*
X57733Y-43755D02*
X57333Y-43755D01*
X57333Y-43755D02*
X57333Y-44355D01*
X57333Y-44355D02*
X57733Y-44355D01*
X55329Y-47483D02*
X55329Y-47883D01*
X55329Y-47883D02*
X55929Y-47883D01*
X55929Y-47883D02*
X55929Y-47483D01*
X55929Y-47083D02*
X55929Y-46683D01*
X55929Y-46683D02*
X55329Y-46683D01*
X55329Y-46683D02*
X55329Y-47083D01*
X53605Y-30831D02*
X54005Y-30831D01*
X54005Y-30831D02*
X54005Y-30231D01*
X54005Y-30231D02*
X53605Y-30231D01*
X53205Y-30231D02*
X52805Y-30231D01*
X52805Y-30231D02*
X52805Y-30831D01*
X52805Y-30831D02*
X53205Y-30831D01*
X56018Y-31109D02*
X56018Y-30709D01*
X56018Y-30709D02*
X55418Y-30709D01*
X55418Y-30709D02*
X55418Y-31109D01*
X55418Y-31509D02*
X55418Y-31909D01*
X55418Y-31909D02*
X56018Y-31909D01*
X56018Y-31909D02*
X56018Y-31509D01*
X56629Y-30928D02*
X56629Y-31328D01*
X56629Y-31328D02*
X57229Y-31328D01*
X57229Y-31328D02*
X57229Y-30928D01*
X57229Y-30528D02*
X57229Y-30128D01*
X57229Y-30128D02*
X56629Y-30128D01*
X56629Y-30128D02*
X56629Y-30528D01*
X56018Y-29337D02*
X56018Y-28937D01*
X56018Y-28937D02*
X55418Y-28937D01*
X55418Y-28937D02*
X55418Y-29337D01*
X55418Y-29737D02*
X55418Y-30137D01*
X55418Y-30137D02*
X56018Y-30137D01*
X56018Y-30137D02*
X56018Y-29737D01*
X49071Y-53361D02*
X48671Y-53361D01*
X48671Y-53361D02*
X48671Y-53961D01*
X48671Y-53961D02*
X49071Y-53961D01*
X49471Y-53961D02*
X49871Y-53961D01*
X49871Y-53961D02*
X49871Y-53361D01*
X49871Y-53361D02*
X49471Y-53361D01*
X55154Y-53164D02*
X54754Y-53164D01*
X54754Y-53164D02*
X54754Y-53764D01*
X54754Y-53764D02*
X55154Y-53764D01*
X55554Y-53764D02*
X55954Y-53764D01*
X55954Y-53764D02*
X55954Y-53164D01*
X55954Y-53164D02*
X55554Y-53164D01*
X55862Y-33597D02*
X55462Y-33597D01*
X55462Y-33597D02*
X55462Y-34197D01*
X55462Y-34197D02*
X55862Y-34197D01*
X56262Y-34197D02*
X56662Y-34197D01*
X56662Y-34197D02*
X56662Y-33597D01*
X56662Y-33597D02*
X56262Y-33597D01*
X63036Y-40705D02*
X63036Y-40305D01*
X63036Y-40305D02*
X62436Y-40305D01*
X62436Y-40305D02*
X62436Y-40705D01*
X62436Y-41105D02*
X62436Y-41505D01*
X62436Y-41505D02*
X63036Y-41505D01*
X63036Y-41505D02*
X63036Y-41105D01*
X57122Y-42298D02*
X56722Y-42298D01*
X56722Y-42298D02*
X56722Y-42898D01*
X56722Y-42898D02*
X57122Y-42898D01*
X57522Y-42898D02*
X57922Y-42898D01*
X57922Y-42898D02*
X57922Y-42298D01*
X57922Y-42298D02*
X57522Y-42298D01*
X57522Y-41737D02*
X57922Y-41737D01*
X57922Y-41737D02*
X57922Y-41137D01*
X57922Y-41137D02*
X57522Y-41137D01*
X57122Y-41137D02*
X56722Y-41137D01*
X56722Y-41137D02*
X56722Y-41737D01*
X56722Y-41737D02*
X57122Y-41737D01*
X55862Y-35782D02*
X55462Y-35782D01*
X55462Y-35782D02*
X55462Y-36382D01*
X55462Y-36382D02*
X55862Y-36382D01*
X56262Y-36382D02*
X56662Y-36382D01*
X56662Y-36382D02*
X56662Y-35782D01*
X56662Y-35782D02*
X56262Y-35782D01*
X57522Y-40536D02*
X57922Y-40536D01*
X57922Y-40536D02*
X57922Y-39936D01*
X57922Y-39936D02*
X57522Y-39936D01*
X57122Y-39936D02*
X56722Y-39936D01*
X56722Y-39936D02*
X56722Y-40536D01*
X56722Y-40536D02*
X57122Y-40536D01*
X57555Y-33597D02*
X57155Y-33597D01*
X57155Y-33597D02*
X57155Y-34197D01*
X57155Y-34197D02*
X57555Y-34197D01*
X57955Y-34197D02*
X58355Y-34197D01*
X58355Y-34197D02*
X58355Y-33597D01*
X58355Y-33597D02*
X57955Y-33597D01*
X57555Y-34700D02*
X57155Y-34700D01*
X57155Y-34700D02*
X57155Y-35300D01*
X57155Y-35300D02*
X57555Y-35300D01*
X57955Y-35300D02*
X58355Y-35300D01*
X58355Y-35300D02*
X58355Y-34700D01*
X58355Y-34700D02*
X57955Y-34700D01*
X57955Y-36382D02*
X58355Y-36382D01*
X58355Y-36382D02*
X58355Y-35782D01*
X58355Y-35782D02*
X57955Y-35782D01*
X57555Y-35782D02*
X57155Y-35782D01*
X57155Y-35782D02*
X57155Y-36382D01*
X57155Y-36382D02*
X57555Y-36382D01*
X55862Y-34700D02*
X55462Y-34700D01*
X55462Y-34700D02*
X55462Y-35300D01*
X55462Y-35300D02*
X55862Y-35300D01*
X56262Y-35300D02*
X56662Y-35300D01*
X56662Y-35300D02*
X56662Y-34700D01*
X56662Y-34700D02*
X56262Y-34700D01*
X60410Y-39011D02*
X60010Y-39011D01*
X60010Y-39011D02*
X60010Y-39611D01*
X60010Y-39611D02*
X60410Y-39611D01*
X60810Y-39611D02*
X61210Y-39611D01*
X61210Y-39611D02*
X61210Y-39011D01*
X61210Y-39011D02*
X60810Y-39011D01*
X64707Y-28646D02*
X65107Y-28646D01*
X65107Y-28646D02*
X65107Y-28046D01*
X65107Y-28046D02*
X64707Y-28046D01*
X64307Y-28046D02*
X63907Y-28046D01*
X63907Y-28046D02*
X63907Y-28646D01*
X63907Y-28646D02*
X64307Y-28646D01*
X59963Y-28567D02*
X60363Y-28567D01*
X60363Y-28567D02*
X60363Y-27967D01*
X60363Y-27967D02*
X59963Y-27967D01*
X59563Y-27967D02*
X59163Y-27967D01*
X59163Y-27967D02*
X59163Y-28567D01*
X59163Y-28567D02*
X59563Y-28567D01*
X63231Y-29689D02*
X63631Y-29689D01*
X63631Y-29689D02*
X63631Y-29089D01*
X63631Y-29089D02*
X63231Y-29089D01*
X62831Y-29089D02*
X62431Y-29089D01*
X62431Y-29089D02*
X62431Y-29689D01*
X62431Y-29689D02*
X62831Y-29689D01*
X58310Y-29611D02*
X58710Y-29611D01*
X58710Y-29611D02*
X58710Y-29011D01*
X58710Y-29011D02*
X58310Y-29011D01*
X57910Y-29011D02*
X57510Y-29011D01*
X57510Y-29011D02*
X57510Y-29611D01*
X57510Y-29611D02*
X57910Y-29611D01*
X64707Y-27485D02*
X65107Y-27485D01*
X65107Y-27485D02*
X65107Y-26885D01*
X65107Y-26885D02*
X64707Y-26885D01*
X64307Y-26885D02*
X63907Y-26885D01*
X63907Y-26885D02*
X63907Y-27485D01*
X63907Y-27485D02*
X64307Y-27485D01*
X59963Y-27425D02*
X60363Y-27425D01*
X60363Y-27425D02*
X60363Y-26825D01*
X60363Y-26825D02*
X59963Y-26825D01*
X59563Y-26825D02*
X59163Y-26825D01*
X59163Y-26825D02*
X59163Y-27425D01*
X59163Y-27425D02*
X59563Y-27425D01*
X54307Y-23676D02*
X53907Y-23676D01*
X53907Y-23676D02*
X53907Y-24276D01*
X53907Y-24276D02*
X54307Y-24276D01*
X54707Y-24276D02*
X55107Y-24276D01*
X55107Y-24276D02*
X55107Y-23676D01*
X55107Y-23676D02*
X54707Y-23676D01*
X54866Y-29327D02*
X54866Y-28927D01*
X54866Y-28927D02*
X54266Y-28927D01*
X54266Y-28927D02*
X54266Y-29327D01*
X54266Y-29727D02*
X54266Y-30127D01*
X54266Y-30127D02*
X54866Y-30127D01*
X54866Y-30127D02*
X54866Y-29727D01*
X62916Y-33981D02*
X63316Y-33981D01*
X63316Y-33981D02*
X63316Y-33381D01*
X63316Y-33381D02*
X62916Y-33381D01*
X62516Y-33381D02*
X62116Y-33381D01*
X62116Y-33381D02*
X62116Y-33981D01*
X62116Y-33981D02*
X62516Y-33981D01*
X62593Y-50160D02*
X62593Y-50560D01*
X62593Y-50560D02*
X63193Y-50560D01*
X63193Y-50560D02*
X63193Y-50160D01*
X63193Y-49760D02*
X63193Y-49360D01*
X63193Y-49360D02*
X62593Y-49360D01*
X62593Y-49360D02*
X62593Y-49760D01*
X62444Y-51874D02*
X62844Y-51874D01*
X62844Y-51874D02*
X62844Y-51274D01*
X62844Y-51274D02*
X62444Y-51274D01*
X62044Y-51274D02*
X61644Y-51274D01*
X61644Y-51274D02*
X61644Y-51874D01*
X61644Y-51874D02*
X62044Y-51874D01*
X62044Y-52455D02*
X61644Y-52455D01*
X61644Y-52455D02*
X61644Y-53055D01*
X61644Y-53055D02*
X62044Y-53055D01*
X62444Y-53055D02*
X62844Y-53055D01*
X62844Y-53055D02*
X62844Y-52455D01*
X62844Y-52455D02*
X62444Y-52455D01*
X60121Y-51422D02*
X60521Y-51422D01*
X60521Y-51422D02*
X60521Y-50822D01*
X60521Y-50822D02*
X60121Y-50822D01*
X59721Y-50822D02*
X59321Y-50822D01*
X59321Y-50822D02*
X59321Y-51422D01*
X59321Y-51422D02*
X59721Y-51422D01*
X58205Y-50822D02*
X57805Y-50822D01*
X57805Y-50822D02*
X57805Y-51422D01*
X57805Y-51422D02*
X58205Y-51422D01*
X58605Y-51422D02*
X59005Y-51422D01*
X59005Y-51422D02*
X59005Y-50822D01*
X59005Y-50822D02*
X58605Y-50822D01*
X61866Y-45034D02*
X61466Y-45034D01*
X61466Y-45034D02*
X61466Y-45634D01*
X61466Y-45634D02*
X61866Y-45634D01*
X62266Y-45634D02*
X62666Y-45634D01*
X62666Y-45634D02*
X62666Y-45034D01*
X62666Y-45034D02*
X62266Y-45034D01*
X61886Y-43794D02*
X61486Y-43794D01*
X61486Y-43794D02*
X61486Y-44394D01*
X61486Y-44394D02*
X61886Y-44394D01*
X62286Y-44394D02*
X62686Y-44394D01*
X62686Y-44394D02*
X62686Y-43794D01*
X62686Y-43794D02*
X62286Y-43794D01*
X54866Y-31109D02*
X54866Y-30709D01*
X54866Y-30709D02*
X54266Y-30709D01*
X54266Y-30709D02*
X54266Y-31109D01*
X54266Y-31509D02*
X54266Y-31909D01*
X54266Y-31909D02*
X54866Y-31909D01*
X54866Y-31909D02*
X54866Y-31509D01*
X61471Y-50160D02*
X61471Y-50560D01*
X61471Y-50560D02*
X62071Y-50560D01*
X62071Y-50560D02*
X62071Y-50160D01*
X62071Y-49760D02*
X62071Y-49360D01*
X62071Y-49360D02*
X61471Y-49360D01*
X61471Y-49360D02*
X61471Y-49760D01*
X59550Y-33981D02*
X59950Y-33981D01*
X59950Y-33981D02*
X59950Y-33381D01*
X59950Y-33381D02*
X59550Y-33381D01*
X59150Y-33381D02*
X58750Y-33381D01*
X58750Y-33381D02*
X58750Y-33981D01*
X58750Y-33981D02*
X59150Y-33981D01*
X61184Y-35103D02*
X61584Y-35103D01*
X61584Y-35103D02*
X61584Y-34503D01*
X61584Y-34503D02*
X61184Y-34503D01*
X60784Y-34503D02*
X60384Y-34503D01*
X60384Y-34503D02*
X60384Y-35103D01*
X60384Y-35103D02*
X60784Y-35103D01*
X59148Y-36558D02*
X59148Y-36958D01*
X59148Y-36958D02*
X59748Y-36958D01*
X59748Y-36958D02*
X59748Y-36558D01*
X59748Y-36158D02*
X59748Y-35758D01*
X59748Y-35758D02*
X59148Y-35758D01*
X59148Y-35758D02*
X59148Y-36158D01*
X60784Y-33381D02*
X60384Y-33381D01*
X60384Y-33381D02*
X60384Y-33981D01*
X60384Y-33981D02*
X60784Y-33981D01*
X61184Y-33981D02*
X61584Y-33981D01*
X61584Y-33981D02*
X61584Y-33381D01*
X61584Y-33381D02*
X61184Y-33381D01*
X59150Y-34503D02*
X58750Y-34503D01*
X58750Y-34503D02*
X58750Y-35103D01*
X58750Y-35103D02*
X59150Y-35103D01*
X59550Y-35103D02*
X59950Y-35103D01*
X59950Y-35103D02*
X59950Y-34503D01*
X59950Y-34503D02*
X59550Y-34503D01*
X59333Y-38429D02*
X59733Y-38429D01*
X59733Y-38429D02*
X59733Y-37829D01*
X59733Y-37829D02*
X59333Y-37829D01*
X58933Y-37829D02*
X58533Y-37829D01*
X58533Y-37829D02*
X58533Y-38429D01*
X58533Y-38429D02*
X58933Y-38429D01*
X58933Y-39011D02*
X58533Y-39011D01*
X58533Y-39011D02*
X58533Y-39611D01*
X58533Y-39611D02*
X58933Y-39611D01*
X59333Y-39611D02*
X59733Y-39611D01*
X59733Y-39611D02*
X59733Y-39011D01*
X59733Y-39011D02*
X59333Y-39011D01*
X61945Y-39011D02*
X61545Y-39011D01*
X61545Y-39011D02*
X61545Y-39611D01*
X61545Y-39611D02*
X61945Y-39611D01*
X62345Y-39611D02*
X62745Y-39611D01*
X62745Y-39611D02*
X62745Y-39011D01*
X62745Y-39011D02*
X62345Y-39011D01*
X45083Y-50370D02*
X45083Y-49970D01*
X45083Y-49970D02*
X44483Y-49970D01*
X44483Y-49970D02*
X44483Y-50370D01*
X44483Y-50770D02*
X44483Y-51170D01*
X44483Y-51170D02*
X45083Y-51170D01*
X45083Y-51170D02*
X45083Y-50770D01*
X47160Y-44215D02*
X47160Y-44615D01*
X47160Y-44615D02*
X47760Y-44615D01*
X47760Y-44615D02*
X47760Y-44215D01*
X47760Y-43815D02*
X47760Y-43415D01*
X47760Y-43415D02*
X47160Y-43415D01*
X47160Y-43415D02*
X47160Y-43815D01*
X49965Y-50429D02*
X49965Y-50029D01*
X49965Y-50029D02*
X49365Y-50029D01*
X49365Y-50029D02*
X49365Y-50429D01*
X49365Y-50829D02*
X49365Y-51229D01*
X49365Y-51229D02*
X49965Y-51229D01*
X49965Y-51229D02*
X49965Y-50829D01*
X50607Y-42810D02*
X50207Y-42810D01*
X50207Y-42810D02*
X50207Y-43410D01*
X50207Y-43410D02*
X50607Y-43410D01*
X51007Y-43410D02*
X51407Y-43410D01*
X51407Y-43410D02*
X51407Y-42810D01*
X51407Y-42810D02*
X51007Y-42810D01*
X50152Y-54688D02*
X50152Y-55088D01*
X50152Y-55088D02*
X50752Y-55088D01*
X50752Y-55088D02*
X50752Y-54688D01*
X50752Y-54288D02*
X50752Y-53888D01*
X50752Y-53888D02*
X50152Y-53888D01*
X50152Y-53888D02*
X50152Y-54288D01*
X43211Y-43469D02*
X43611Y-43469D01*
X43611Y-43469D02*
X43611Y-42869D01*
X43611Y-42869D02*
X43211Y-42869D01*
X42811Y-42869D02*
X42411Y-42869D01*
X42411Y-42869D02*
X42411Y-43469D01*
X42411Y-43469D02*
X42811Y-43469D01*
X43882Y-53422D02*
X43882Y-53022D01*
X43882Y-53022D02*
X43282Y-53022D01*
X43282Y-53022D02*
X43282Y-53422D01*
X43282Y-53822D02*
X43282Y-54222D01*
X43282Y-54222D02*
X43882Y-54222D01*
X43882Y-54222D02*
X43882Y-53822D01*
X51026Y-53213D02*
X51426Y-53213D01*
X51426Y-53213D02*
X51426Y-52613D01*
X51426Y-52613D02*
X51026Y-52613D01*
X50626Y-52613D02*
X50226Y-52613D01*
X50226Y-52613D02*
X50226Y-53213D01*
X50226Y-53213D02*
X50626Y-53213D01*
X49925Y-52063D02*
X49925Y-51663D01*
X49925Y-51663D02*
X49325Y-51663D01*
X49325Y-51663D02*
X49325Y-52063D01*
X49325Y-52463D02*
X49325Y-52863D01*
X49325Y-52863D02*
X49925Y-52863D01*
X49925Y-52863D02*
X49925Y-52463D01*
X50251Y-51676D02*
X50251Y-52076D01*
X50251Y-52076D02*
X50851Y-52076D01*
X50851Y-52076D02*
X50851Y-51676D01*
X50851Y-51276D02*
X50851Y-50876D01*
X50851Y-50876D02*
X50251Y-50876D01*
X50251Y-50876D02*
X50251Y-51276D01*
X48034Y-53961D02*
X48434Y-53961D01*
X48434Y-53961D02*
X48434Y-53361D01*
X48434Y-53361D02*
X48034Y-53361D01*
X47634Y-53361D02*
X47234Y-53361D01*
X47234Y-53361D02*
X47234Y-53961D01*
X47234Y-53961D02*
X47634Y-53961D01*
X48034Y-55063D02*
X48434Y-55063D01*
X48434Y-55063D02*
X48434Y-54463D01*
X48434Y-54463D02*
X48034Y-54463D01*
X47634Y-54463D02*
X47234Y-54463D01*
X47234Y-54463D02*
X47234Y-55063D01*
X47234Y-55063D02*
X47634Y-55063D01*
X49471Y-55063D02*
X49871Y-55063D01*
X49871Y-55063D02*
X49871Y-54463D01*
X49871Y-54463D02*
X49471Y-54463D01*
X49071Y-54463D02*
X48671Y-54463D01*
X48671Y-54463D02*
X48671Y-55063D01*
X48671Y-55063D02*
X49071Y-55063D01*
X51873Y-56146D02*
X52273Y-56146D01*
X52273Y-56146D02*
X52273Y-55546D01*
X52273Y-55546D02*
X51873Y-55546D01*
X51473Y-55546D02*
X51073Y-55546D01*
X51073Y-55546D02*
X51073Y-56146D01*
X51073Y-56146D02*
X51473Y-56146D01*
X51473Y-54463D02*
X51073Y-54463D01*
X51073Y-54463D02*
X51073Y-55063D01*
X51073Y-55063D02*
X51473Y-55063D01*
X51873Y-55063D02*
X52273Y-55063D01*
X52273Y-55063D02*
X52273Y-54463D01*
X52273Y-54463D02*
X51873Y-54463D01*
X54512Y-54859D02*
X54512Y-54459D01*
X54512Y-54459D02*
X53912Y-54459D01*
X53912Y-54459D02*
X53912Y-54859D01*
X53912Y-55259D02*
X53912Y-55659D01*
X53912Y-55659D02*
X54512Y-55659D01*
X54512Y-55659D02*
X54512Y-55259D01*
X53310Y-55063D02*
X53710Y-55063D01*
X53710Y-55063D02*
X53710Y-54463D01*
X53710Y-54463D02*
X53310Y-54463D01*
X52910Y-54463D02*
X52510Y-54463D01*
X52510Y-54463D02*
X52510Y-55063D01*
X52510Y-55063D02*
X52910Y-55063D01*
X47851Y-51058D02*
X47451Y-51058D01*
X47451Y-51058D02*
X47451Y-51658D01*
X47451Y-51658D02*
X47851Y-51658D01*
X48251Y-51658D02*
X48651Y-51658D01*
X48651Y-51658D02*
X48651Y-51058D01*
X48651Y-51058D02*
X48251Y-51058D01*
X48251Y-52819D02*
X48651Y-52819D01*
X48651Y-52819D02*
X48651Y-52219D01*
X48651Y-52219D02*
X48251Y-52219D01*
X47851Y-52219D02*
X47451Y-52219D01*
X47451Y-52219D02*
X47451Y-52819D01*
X47451Y-52819D02*
X47851Y-52819D01*
X55154Y-52022D02*
X54754Y-52022D01*
X54754Y-52022D02*
X54754Y-52622D01*
X54754Y-52622D02*
X55154Y-52622D01*
X55554Y-52622D02*
X55954Y-52622D01*
X55954Y-52622D02*
X55954Y-52022D01*
X55954Y-52022D02*
X55554Y-52022D01*
X46126Y-54288D02*
X46126Y-53888D01*
X46126Y-53888D02*
X45526Y-53888D01*
X45526Y-53888D02*
X45526Y-54288D01*
X45526Y-54688D02*
X45526Y-55088D01*
X45526Y-55088D02*
X46126Y-55088D01*
X46126Y-55088D02*
X46126Y-54688D01*
X46953Y-54288D02*
X46953Y-53888D01*
X46953Y-53888D02*
X46353Y-53888D01*
X46353Y-53888D02*
X46353Y-54288D01*
X46353Y-54688D02*
X46353Y-55088D01*
X46353Y-55088D02*
X46953Y-55088D01*
X46953Y-55088D02*
X46953Y-54688D01*
X55233Y-50152D02*
X54833Y-50152D01*
X54833Y-50152D02*
X54833Y-50752D01*
X54833Y-50752D02*
X55233Y-50752D01*
X55633Y-50752D02*
X56033Y-50752D01*
X56033Y-50752D02*
X56033Y-50152D01*
X56033Y-50152D02*
X55633Y-50152D01*
X53776Y-50152D02*
X53376Y-50152D01*
X53376Y-50152D02*
X53376Y-50752D01*
X53376Y-50752D02*
X53776Y-50752D01*
X54176Y-50752D02*
X54576Y-50752D01*
X54576Y-50752D02*
X54576Y-50152D01*
X54576Y-50152D02*
X54176Y-50152D01*
X43971Y-52129D02*
X43971Y-52529D01*
X43971Y-52529D02*
X44571Y-52529D01*
X44571Y-52529D02*
X44571Y-52129D01*
X44571Y-51729D02*
X44571Y-51329D01*
X44571Y-51329D02*
X43971Y-51329D01*
X43971Y-51329D02*
X43971Y-51729D01*
X46414Y-50723D02*
X46014Y-50723D01*
X46014Y-50723D02*
X46014Y-51323D01*
X46014Y-51323D02*
X46414Y-51323D01*
X46814Y-51323D02*
X47214Y-51323D01*
X47214Y-51323D02*
X47214Y-50723D01*
X47214Y-50723D02*
X46814Y-50723D01*
X52739Y-50752D02*
X53139Y-50752D01*
X53139Y-50752D02*
X53139Y-50152D01*
X53139Y-50152D02*
X52739Y-50152D01*
X52339Y-50152D02*
X51939Y-50152D01*
X51939Y-50152D02*
X51939Y-50752D01*
X51939Y-50752D02*
X52339Y-50752D01*
X55554Y-54866D02*
X55954Y-54866D01*
X55954Y-54866D02*
X55954Y-54266D01*
X55954Y-54266D02*
X55554Y-54266D01*
X55154Y-54266D02*
X54754Y-54266D01*
X54754Y-54266D02*
X54754Y-54866D01*
X54754Y-54866D02*
X55154Y-54866D01*
G54D11*
X61284Y-29745D02*
X61284Y-30064D01*
X61265Y-30102D01*
X61246Y-30120D01*
X61209Y-30139D01*
X61134Y-30139D01*
X61096Y-30120D01*
X61077Y-30102D01*
X61059Y-30064D01*
X61059Y-29745D01*
X60703Y-29877D02*
X60703Y-30139D01*
X60796Y-29727D02*
X60890Y-30008D01*
X60646Y-30008D01*
X63547Y-35671D02*
X63547Y-35989D01*
X63529Y-36027D01*
X63510Y-36046D01*
X63473Y-36064D01*
X63398Y-36064D01*
X63360Y-36046D01*
X63341Y-36027D01*
X63323Y-35989D01*
X63323Y-35671D01*
X62948Y-35671D02*
X63135Y-35671D01*
X63154Y-35858D01*
X63135Y-35839D01*
X63098Y-35821D01*
X63004Y-35821D01*
X62966Y-35839D01*
X62948Y-35858D01*
X62929Y-35896D01*
X62929Y-35989D01*
X62948Y-36027D01*
X62966Y-36046D01*
X63004Y-36064D01*
X63098Y-36064D01*
X63135Y-36046D01*
X63154Y-36027D01*
X61264Y-45179D02*
X61264Y-45497D01*
X61245Y-45535D01*
X61227Y-45553D01*
X61189Y-45572D01*
X61114Y-45572D01*
X61077Y-45553D01*
X61058Y-45535D01*
X61039Y-45497D01*
X61039Y-45179D01*
X60889Y-45179D02*
X60645Y-45179D01*
X60777Y-45329D01*
X60720Y-45329D01*
X60683Y-45347D01*
X60664Y-45366D01*
X60645Y-45404D01*
X60645Y-45497D01*
X60664Y-45535D01*
X60683Y-45553D01*
X60720Y-45572D01*
X60833Y-45572D01*
X60870Y-45553D01*
X60889Y-45535D01*
X54367Y-46104D02*
X54498Y-45916D01*
X54592Y-46104D02*
X54592Y-45710D01*
X54442Y-45710D01*
X54404Y-45729D01*
X54386Y-45748D01*
X54367Y-45785D01*
X54367Y-45841D01*
X54386Y-45879D01*
X54404Y-45898D01*
X54442Y-45916D01*
X54592Y-45916D01*
X54029Y-45841D02*
X54029Y-46104D01*
X54123Y-45691D02*
X54217Y-45973D01*
X53973Y-45973D01*
X53617Y-46104D02*
X53842Y-46104D01*
X53729Y-46104D02*
X53729Y-45710D01*
X53767Y-45766D01*
X53804Y-45804D01*
X53842Y-45823D01*
X55184Y-47769D02*
X55139Y-47784D01*
X55064Y-47784D01*
X55034Y-47769D01*
X55019Y-47754D01*
X55004Y-47724D01*
X55004Y-47694D01*
X55019Y-47664D01*
X55034Y-47649D01*
X55064Y-47634D01*
X55124Y-47619D01*
X55154Y-47604D01*
X55169Y-47589D01*
X55184Y-47559D01*
X55184Y-47529D01*
X55169Y-47500D01*
X55154Y-47485D01*
X55124Y-47470D01*
X55049Y-47470D01*
X55004Y-47485D01*
X54869Y-47784D02*
X54869Y-47574D01*
X54869Y-47470D02*
X54884Y-47485D01*
X54869Y-47500D01*
X54854Y-47485D01*
X54869Y-47470D01*
X54869Y-47500D01*
X54584Y-47784D02*
X54584Y-47470D01*
X54584Y-47769D02*
X54614Y-47784D01*
X54674Y-47784D01*
X54704Y-47769D01*
X54719Y-47754D01*
X54734Y-47724D01*
X54734Y-47634D01*
X54719Y-47604D01*
X54704Y-47589D01*
X54674Y-47574D01*
X54614Y-47574D01*
X54584Y-47589D01*
X54314Y-47769D02*
X54344Y-47784D01*
X54404Y-47784D01*
X54434Y-47769D01*
X54449Y-47739D01*
X54449Y-47619D01*
X54434Y-47589D01*
X54404Y-47574D01*
X54344Y-47574D01*
X54314Y-47589D01*
X54299Y-47619D01*
X54299Y-47649D01*
X54449Y-47679D01*
X54209Y-47574D02*
X54089Y-47574D01*
X54164Y-47470D02*
X54164Y-47739D01*
X54149Y-47769D01*
X54119Y-47784D01*
X54089Y-47784D01*
X53939Y-47784D02*
X53969Y-47769D01*
X53984Y-47754D01*
X53999Y-47724D01*
X53999Y-47634D01*
X53984Y-47604D01*
X53969Y-47589D01*
X53939Y-47574D01*
X53894Y-47574D01*
X53864Y-47589D01*
X53849Y-47604D01*
X53834Y-47634D01*
X53834Y-47724D01*
X53849Y-47754D01*
X53864Y-47769D01*
X53894Y-47784D01*
X53939Y-47784D01*
X53699Y-47574D02*
X53699Y-47784D01*
X53699Y-47604D02*
X53684Y-47589D01*
X53654Y-47574D01*
X53609Y-47574D01*
X53579Y-47589D01*
X53564Y-47619D01*
X53564Y-47784D01*
X53294Y-47769D02*
X53324Y-47784D01*
X53384Y-47784D01*
X53414Y-47769D01*
X53429Y-47739D01*
X53429Y-47619D01*
X53414Y-47589D01*
X53384Y-47574D01*
X53324Y-47574D01*
X53294Y-47589D01*
X53279Y-47619D01*
X53279Y-47649D01*
X53429Y-47679D01*
X57976Y-37548D02*
X57976Y-37803D01*
X57961Y-37833D01*
X57946Y-37848D01*
X57916Y-37863D01*
X57856Y-37863D01*
X57826Y-37848D01*
X57811Y-37833D01*
X57796Y-37803D01*
X57796Y-37548D01*
X57601Y-37683D02*
X57631Y-37668D01*
X57646Y-37653D01*
X57661Y-37623D01*
X57661Y-37608D01*
X57646Y-37578D01*
X57631Y-37563D01*
X57601Y-37548D01*
X57541Y-37548D01*
X57511Y-37563D01*
X57496Y-37578D01*
X57481Y-37608D01*
X57481Y-37623D01*
X57496Y-37653D01*
X57511Y-37668D01*
X57541Y-37683D01*
X57601Y-37683D01*
X57631Y-37698D01*
X57646Y-37713D01*
X57661Y-37743D01*
X57661Y-37803D01*
X57646Y-37833D01*
X57631Y-37848D01*
X57601Y-37863D01*
X57541Y-37863D01*
X57511Y-37848D01*
X57496Y-37833D01*
X57481Y-37803D01*
X57481Y-37743D01*
X57496Y-37713D01*
X57511Y-37698D01*
X57541Y-37683D01*
G54D19*
X57425Y-27588D02*
X57425Y-27843D01*
X57410Y-27873D01*
X57395Y-27888D01*
X57365Y-27903D01*
X57305Y-27903D01*
X57275Y-27888D01*
X57260Y-27873D01*
X57245Y-27843D01*
X57245Y-27588D01*
X57125Y-27588D02*
X56915Y-27588D01*
X57050Y-27903D01*
X62346Y-27686D02*
X62346Y-27941D01*
X62331Y-27971D01*
X62316Y-27986D01*
X62286Y-28001D01*
X62226Y-28001D01*
X62196Y-27986D01*
X62181Y-27971D01*
X62166Y-27941D01*
X62166Y-27686D01*
X61881Y-27686D02*
X61941Y-27686D01*
X61971Y-27701D01*
X61986Y-27716D01*
X62016Y-27761D01*
X62031Y-27821D01*
X62031Y-27941D01*
X62016Y-27971D01*
X62001Y-27986D01*
X61971Y-28001D01*
X61911Y-28001D01*
X61881Y-27986D01*
X61866Y-27971D01*
X61851Y-27941D01*
X61851Y-27866D01*
X61866Y-27836D01*
X61881Y-27821D01*
X61911Y-27806D01*
X61971Y-27806D01*
X62001Y-27821D01*
X62016Y-27836D01*
X62031Y-27866D01*
G54D20*
X46347Y-52059D02*
X46376Y-52045D01*
X46404Y-52016D01*
X46447Y-51973D01*
X46476Y-51959D01*
X46504Y-51959D01*
X46490Y-52030D02*
X46518Y-52016D01*
X46547Y-51988D01*
X46561Y-51930D01*
X46561Y-51830D01*
X46547Y-51773D01*
X46518Y-51745D01*
X46490Y-51730D01*
X46433Y-51730D01*
X46404Y-51745D01*
X46376Y-51773D01*
X46361Y-51830D01*
X46361Y-51930D01*
X46376Y-51988D01*
X46404Y-52016D01*
X46433Y-52030D01*
X46490Y-52030D01*
X46247Y-51759D02*
X46233Y-51745D01*
X46204Y-51730D01*
X46133Y-51730D01*
X46104Y-51745D01*
X46090Y-51759D01*
X46076Y-51788D01*
X46076Y-51816D01*
X46090Y-51859D01*
X46261Y-52030D01*
X46076Y-52030D01*
X44733Y-52961D02*
X44761Y-52947D01*
X44790Y-52918D01*
X44833Y-52875D01*
X44861Y-52861D01*
X44890Y-52861D01*
X44876Y-52932D02*
X44904Y-52918D01*
X44933Y-52889D01*
X44947Y-52832D01*
X44947Y-52732D01*
X44933Y-52675D01*
X44904Y-52647D01*
X44876Y-52632D01*
X44819Y-52632D01*
X44790Y-52647D01*
X44761Y-52675D01*
X44747Y-52732D01*
X44747Y-52832D01*
X44761Y-52889D01*
X44790Y-52918D01*
X44819Y-52932D01*
X44876Y-52932D01*
X44647Y-52632D02*
X44461Y-52632D01*
X44561Y-52747D01*
X44519Y-52747D01*
X44490Y-52761D01*
X44476Y-52775D01*
X44461Y-52804D01*
X44461Y-52875D01*
X44476Y-52904D01*
X44490Y-52918D01*
X44519Y-52932D01*
X44604Y-52932D01*
X44633Y-52918D01*
X44647Y-52904D01*
X53841Y-24881D02*
X53871Y-24866D01*
X53901Y-24836D01*
X53946Y-24791D01*
X53976Y-24776D01*
X54006Y-24776D01*
X53991Y-24851D02*
X54021Y-24836D01*
X54051Y-24806D01*
X54066Y-24746D01*
X54066Y-24641D01*
X54051Y-24581D01*
X54021Y-24551D01*
X53991Y-24536D01*
X53931Y-24536D01*
X53901Y-24551D01*
X53871Y-24581D01*
X53856Y-24641D01*
X53856Y-24746D01*
X53871Y-24806D01*
X53901Y-24836D01*
X53931Y-24851D01*
X53991Y-24851D01*
X53556Y-24851D02*
X53736Y-24851D01*
X53646Y-24851D02*
X53646Y-24536D01*
X53676Y-24581D01*
X53706Y-24611D01*
X53736Y-24626D01*
X53361Y-24536D02*
X53331Y-24536D01*
X53301Y-24551D01*
X53286Y-24566D01*
X53271Y-24596D01*
X53256Y-24656D01*
X53256Y-24731D01*
X53271Y-24791D01*
X53286Y-24821D01*
X53301Y-24836D01*
X53331Y-24851D01*
X53361Y-24851D01*
X53391Y-24836D01*
X53406Y-24821D01*
X53421Y-24791D01*
X53436Y-24731D01*
X53436Y-24656D01*
X53421Y-24596D01*
X53406Y-24566D01*
X53391Y-24551D01*
X53361Y-24536D01*
X45343Y-51425D02*
X45372Y-51411D01*
X45400Y-51383D01*
X45443Y-51340D01*
X45472Y-51325D01*
X45500Y-51325D01*
X45486Y-51397D02*
X45514Y-51383D01*
X45543Y-51354D01*
X45557Y-51297D01*
X45557Y-51197D01*
X45543Y-51140D01*
X45514Y-51111D01*
X45486Y-51097D01*
X45429Y-51097D01*
X45400Y-51111D01*
X45372Y-51140D01*
X45357Y-51197D01*
X45357Y-51297D01*
X45372Y-51354D01*
X45400Y-51383D01*
X45429Y-51397D01*
X45486Y-51397D01*
X45072Y-51397D02*
X45243Y-51397D01*
X45157Y-51397D02*
X45157Y-51097D01*
X45186Y-51140D01*
X45214Y-51168D01*
X45243Y-51183D01*
G54D11*
X55941Y-24281D02*
X55941Y-23966D01*
X55866Y-23966D01*
X55821Y-23981D01*
X55791Y-24011D01*
X55776Y-24041D01*
X55761Y-24101D01*
X55761Y-24146D01*
X55776Y-24206D01*
X55791Y-24236D01*
X55821Y-24266D01*
X55866Y-24281D01*
X55941Y-24281D01*
X55656Y-23966D02*
X55446Y-23966D01*
X55581Y-24281D01*
X43794Y-50868D02*
X43794Y-50474D01*
X43700Y-50474D01*
X43644Y-50493D01*
X43607Y-50530D01*
X43588Y-50568D01*
X43569Y-50643D01*
X43569Y-50699D01*
X43588Y-50774D01*
X43607Y-50811D01*
X43644Y-50849D01*
X43700Y-50868D01*
X43794Y-50868D01*
X43194Y-50868D02*
X43419Y-50868D01*
X43307Y-50868D02*
X43307Y-50474D01*
X43344Y-50530D01*
X43382Y-50568D01*
X43419Y-50586D01*
G54D21*
X51579Y-51616D02*
X51579Y-51934D01*
X51560Y-51972D01*
X51541Y-51991D01*
X51504Y-52009D01*
X51429Y-52009D01*
X51392Y-51991D01*
X51373Y-51972D01*
X51354Y-51934D01*
X51354Y-51616D01*
X50960Y-52009D02*
X51185Y-52009D01*
X51073Y-52009D02*
X51073Y-51616D01*
X51110Y-51672D01*
X51148Y-51709D01*
X51185Y-51728D01*
X49965Y-26714D02*
X49965Y-27033D01*
X49946Y-27070D01*
X49927Y-27089D01*
X49890Y-27108D01*
X49815Y-27108D01*
X49777Y-27089D01*
X49759Y-27070D01*
X49740Y-27033D01*
X49740Y-26714D01*
X49571Y-26751D02*
X49552Y-26733D01*
X49515Y-26714D01*
X49421Y-26714D01*
X49384Y-26733D01*
X49365Y-26751D01*
X49346Y-26789D01*
X49346Y-26826D01*
X49365Y-26883D01*
X49590Y-27108D01*
X49346Y-27108D01*
X52908Y-48308D02*
X52908Y-47915D01*
X52758Y-47915D01*
X52721Y-47934D01*
X52702Y-47952D01*
X52683Y-47990D01*
X52683Y-48046D01*
X52702Y-48083D01*
X52721Y-48102D01*
X52758Y-48121D01*
X52908Y-48121D01*
X52308Y-48308D02*
X52533Y-48308D01*
X52421Y-48308D02*
X52421Y-47915D01*
X52458Y-47971D01*
X52496Y-48008D01*
X52533Y-48027D01*
X56162Y-48958D02*
X55899Y-49352D01*
X55899Y-48958D02*
X56162Y-49352D01*
X55806Y-48958D02*
X55581Y-48958D01*
X55693Y-49352D02*
X55693Y-48958D01*
X55468Y-49239D02*
X55281Y-49239D01*
X55506Y-49352D02*
X55374Y-48958D01*
X55243Y-49352D01*
X54925Y-49352D02*
X55112Y-49352D01*
X55112Y-48958D01*
X54287Y-48977D02*
X54325Y-48958D01*
X54381Y-48958D01*
X54437Y-48977D01*
X54475Y-49014D01*
X54493Y-49052D01*
X54512Y-49127D01*
X54512Y-49183D01*
X54493Y-49258D01*
X54475Y-49296D01*
X54437Y-49333D01*
X54381Y-49352D01*
X54343Y-49352D01*
X54287Y-49333D01*
X54268Y-49314D01*
X54268Y-49183D01*
X54343Y-49183D01*
X54100Y-49352D02*
X54100Y-48958D01*
X53875Y-49352D01*
X53875Y-48958D01*
X53687Y-49352D02*
X53687Y-48958D01*
X53593Y-48958D01*
X53537Y-48977D01*
X53500Y-49014D01*
X53481Y-49052D01*
X53462Y-49127D01*
X53462Y-49183D01*
X53481Y-49258D01*
X53500Y-49296D01*
X53537Y-49333D01*
X53593Y-49352D01*
X53687Y-49352D01*
X43606Y-43722D02*
X43343Y-44116D01*
X43343Y-43722D02*
X43606Y-44116D01*
X42987Y-44116D02*
X43212Y-44116D01*
X43099Y-44116D02*
X43099Y-43722D01*
X43137Y-43778D01*
X43174Y-43816D01*
X43212Y-43834D01*
X46460Y-43742D02*
X46197Y-44135D01*
X46197Y-43742D02*
X46460Y-44135D01*
X46066Y-43779D02*
X46047Y-43760D01*
X46010Y-43742D01*
X45916Y-43742D01*
X45879Y-43760D01*
X45860Y-43779D01*
X45841Y-43817D01*
X45841Y-43854D01*
X45860Y-43910D01*
X46085Y-44135D01*
X45841Y-44135D01*
X49058Y-43781D02*
X48796Y-44175D01*
X48796Y-43781D02*
X49058Y-44175D01*
X48683Y-43781D02*
X48440Y-43781D01*
X48571Y-43931D01*
X48515Y-43931D01*
X48477Y-43950D01*
X48458Y-43968D01*
X48440Y-44006D01*
X48440Y-44100D01*
X48458Y-44137D01*
X48477Y-44156D01*
X48515Y-44175D01*
X48627Y-44175D01*
X48665Y-44156D01*
X48683Y-44137D01*
X51519Y-43781D02*
X51257Y-44175D01*
X51257Y-43781D02*
X51519Y-44175D01*
X50938Y-43912D02*
X50938Y-44175D01*
X51032Y-43762D02*
X51125Y-44043D01*
X50882Y-44043D01*
G54D19*
X56541Y-44762D02*
X56556Y-44777D01*
X56601Y-44792D01*
X56631Y-44792D01*
X56676Y-44777D01*
X56706Y-44747D01*
X56721Y-44717D01*
X56736Y-44657D01*
X56736Y-44612D01*
X56721Y-44552D01*
X56706Y-44522D01*
X56676Y-44492D01*
X56631Y-44477D01*
X56601Y-44477D01*
X56556Y-44492D01*
X56541Y-44507D01*
X56271Y-44582D02*
X56271Y-44792D01*
X56346Y-44462D02*
X56421Y-44687D01*
X56226Y-44687D01*
X56061Y-44612D02*
X56091Y-44597D01*
X56106Y-44582D01*
X56121Y-44552D01*
X56121Y-44537D01*
X56106Y-44507D01*
X56091Y-44492D01*
X56061Y-44477D01*
X56001Y-44477D01*
X55971Y-44492D01*
X55956Y-44507D01*
X55941Y-44537D01*
X55941Y-44552D01*
X55956Y-44582D01*
X55971Y-44597D01*
X56001Y-44612D01*
X56061Y-44612D01*
X56091Y-44627D01*
X56106Y-44642D01*
X56121Y-44672D01*
X56121Y-44732D01*
X56106Y-44762D01*
X56091Y-44777D01*
X56061Y-44792D01*
X56001Y-44792D01*
X55971Y-44777D01*
X55956Y-44762D01*
X55941Y-44732D01*
X55941Y-44672D01*
X55956Y-44642D01*
X55971Y-44627D01*
X56001Y-44612D01*
X62895Y-34384D02*
X62910Y-34399D01*
X62955Y-34414D01*
X62985Y-34414D01*
X63030Y-34399D01*
X63060Y-34369D01*
X63075Y-34339D01*
X63090Y-34279D01*
X63090Y-34234D01*
X63075Y-34174D01*
X63060Y-34144D01*
X63030Y-34114D01*
X62985Y-34099D01*
X62955Y-34099D01*
X62910Y-34114D01*
X62895Y-34129D01*
X62625Y-34099D02*
X62685Y-34099D01*
X62715Y-34114D01*
X62730Y-34129D01*
X62760Y-34174D01*
X62775Y-34234D01*
X62775Y-34354D01*
X62760Y-34384D01*
X62745Y-34399D01*
X62715Y-34414D01*
X62655Y-34414D01*
X62625Y-34399D01*
X62610Y-34384D01*
X62595Y-34354D01*
X62595Y-34279D01*
X62610Y-34249D01*
X62625Y-34234D01*
X62655Y-34219D01*
X62715Y-34219D01*
X62745Y-34234D01*
X62760Y-34249D01*
X62775Y-34279D01*
X62400Y-34099D02*
X62370Y-34099D01*
X62340Y-34114D01*
X62325Y-34129D01*
X62310Y-34159D01*
X62295Y-34219D01*
X62295Y-34294D01*
X62310Y-34354D01*
X62325Y-34384D01*
X62340Y-34399D01*
X62370Y-34414D01*
X62400Y-34414D01*
X62430Y-34399D01*
X62445Y-34384D01*
X62460Y-34354D01*
X62475Y-34294D01*
X62475Y-34219D01*
X62460Y-34159D01*
X62445Y-34129D01*
X62430Y-34114D01*
X62400Y-34099D01*
X54962Y-43666D02*
X55067Y-43516D01*
X55142Y-43666D02*
X55142Y-43351D01*
X55022Y-43351D01*
X54992Y-43366D01*
X54977Y-43381D01*
X54962Y-43411D01*
X54962Y-43456D01*
X54977Y-43486D01*
X54992Y-43501D01*
X55022Y-43516D01*
X55142Y-43516D01*
X54692Y-43456D02*
X54692Y-43666D01*
X54767Y-43336D02*
X54842Y-43561D01*
X54647Y-43561D01*
X54557Y-43351D02*
X54362Y-43351D01*
X54467Y-43471D01*
X54422Y-43471D01*
X54392Y-43486D01*
X54377Y-43501D01*
X54362Y-43531D01*
X54362Y-43606D01*
X54377Y-43636D01*
X54392Y-43651D01*
X54422Y-43666D01*
X54512Y-43666D01*
X54542Y-43651D01*
X54557Y-43636D01*
X55533Y-55251D02*
X55548Y-55266D01*
X55593Y-55281D01*
X55623Y-55281D01*
X55668Y-55266D01*
X55698Y-55236D01*
X55713Y-55206D01*
X55728Y-55146D01*
X55728Y-55101D01*
X55713Y-55041D01*
X55698Y-55011D01*
X55668Y-54981D01*
X55623Y-54966D01*
X55593Y-54966D01*
X55548Y-54981D01*
X55533Y-54996D01*
X55263Y-55071D02*
X55263Y-55281D01*
X55338Y-54951D02*
X55413Y-55176D01*
X55218Y-55176D01*
X55113Y-54996D02*
X55098Y-54981D01*
X55068Y-54966D01*
X54993Y-54966D01*
X54963Y-54981D01*
X54948Y-54996D01*
X54933Y-55026D01*
X54933Y-55056D01*
X54948Y-55101D01*
X55128Y-55281D01*
X54933Y-55281D01*
X53824Y-44191D02*
X53839Y-44206D01*
X53884Y-44221D01*
X53914Y-44221D01*
X53959Y-44206D01*
X53989Y-44176D01*
X54004Y-44146D01*
X54019Y-44086D01*
X54019Y-44041D01*
X54004Y-43982D01*
X53989Y-43952D01*
X53959Y-43922D01*
X53914Y-43907D01*
X53884Y-43907D01*
X53839Y-43922D01*
X53824Y-43937D01*
X53554Y-44011D02*
X53554Y-44221D01*
X53629Y-43892D02*
X53704Y-44116D01*
X53509Y-44116D01*
X53254Y-43907D02*
X53314Y-43907D01*
X53344Y-43922D01*
X53359Y-43937D01*
X53389Y-43982D01*
X53404Y-44041D01*
X53404Y-44161D01*
X53389Y-44191D01*
X53374Y-44206D01*
X53344Y-44221D01*
X53284Y-44221D01*
X53254Y-44206D01*
X53239Y-44191D01*
X53224Y-44161D01*
X53224Y-44086D01*
X53239Y-44056D01*
X53254Y-44041D01*
X53284Y-44026D01*
X53344Y-44026D01*
X53374Y-44041D01*
X53389Y-44056D01*
X53404Y-44086D01*
X54985Y-44762D02*
X55000Y-44777D01*
X55045Y-44792D01*
X55075Y-44792D01*
X55120Y-44777D01*
X55150Y-44747D01*
X55165Y-44717D01*
X55180Y-44657D01*
X55180Y-44612D01*
X55165Y-44552D01*
X55150Y-44522D01*
X55120Y-44492D01*
X55075Y-44477D01*
X55045Y-44477D01*
X55000Y-44492D01*
X54985Y-44507D01*
X54715Y-44582D02*
X54715Y-44792D01*
X54790Y-44462D02*
X54865Y-44687D01*
X54670Y-44687D01*
X54580Y-44477D02*
X54371Y-44477D01*
X54505Y-44792D01*
X62761Y-46455D02*
X62776Y-46470D01*
X62821Y-46485D01*
X62851Y-46485D01*
X62896Y-46470D01*
X62926Y-46440D01*
X62941Y-46410D01*
X62956Y-46350D01*
X62956Y-46305D01*
X62941Y-46245D01*
X62926Y-46215D01*
X62896Y-46185D01*
X62851Y-46170D01*
X62821Y-46170D01*
X62776Y-46185D01*
X62761Y-46200D01*
X62476Y-46170D02*
X62626Y-46170D01*
X62641Y-46320D01*
X62626Y-46305D01*
X62596Y-46290D01*
X62521Y-46290D01*
X62491Y-46305D01*
X62476Y-46320D01*
X62461Y-46350D01*
X62461Y-46425D01*
X62476Y-46455D01*
X62491Y-46470D01*
X62521Y-46485D01*
X62596Y-46485D01*
X62626Y-46470D01*
X62641Y-46455D01*
X62266Y-46170D02*
X62236Y-46170D01*
X62206Y-46185D01*
X62191Y-46200D01*
X62176Y-46230D01*
X62161Y-46290D01*
X62161Y-46365D01*
X62176Y-46425D01*
X62191Y-46455D01*
X62206Y-46470D01*
X62236Y-46485D01*
X62266Y-46485D01*
X62296Y-46470D01*
X62311Y-46455D01*
X62326Y-46425D01*
X62341Y-46365D01*
X62341Y-46290D01*
X62326Y-46230D01*
X62311Y-46200D01*
X62296Y-46185D01*
X62266Y-46170D01*
X56517Y-43666D02*
X56622Y-43516D01*
X56697Y-43666D02*
X56697Y-43351D01*
X56577Y-43351D01*
X56547Y-43366D01*
X56532Y-43381D01*
X56517Y-43411D01*
X56517Y-43456D01*
X56532Y-43486D01*
X56547Y-43501D01*
X56577Y-43516D01*
X56697Y-43516D01*
X56247Y-43456D02*
X56247Y-43666D01*
X56322Y-43336D02*
X56397Y-43561D01*
X56202Y-43561D01*
X55947Y-43456D02*
X55947Y-43666D01*
X56022Y-43336D02*
X56097Y-43561D01*
X55902Y-43561D01*
X58111Y-43666D02*
X58216Y-43516D01*
X58291Y-43666D02*
X58291Y-43351D01*
X58171Y-43351D01*
X58141Y-43366D01*
X58126Y-43381D01*
X58111Y-43411D01*
X58111Y-43456D01*
X58126Y-43486D01*
X58141Y-43501D01*
X58171Y-43516D01*
X58291Y-43516D01*
X57841Y-43456D02*
X57841Y-43666D01*
X57916Y-43336D02*
X57991Y-43561D01*
X57796Y-43561D01*
X57526Y-43351D02*
X57676Y-43351D01*
X57691Y-43501D01*
X57676Y-43486D01*
X57646Y-43471D01*
X57571Y-43471D01*
X57541Y-43486D01*
X57526Y-43501D01*
X57511Y-43531D01*
X57511Y-43606D01*
X57526Y-43636D01*
X57541Y-43651D01*
X57571Y-43666D01*
X57646Y-43666D01*
X57676Y-43651D01*
X57691Y-43636D01*
X55812Y-46573D02*
X55827Y-46588D01*
X55872Y-46603D01*
X55902Y-46603D01*
X55947Y-46588D01*
X55977Y-46558D01*
X55992Y-46528D01*
X56007Y-46468D01*
X56007Y-46423D01*
X55992Y-46363D01*
X55977Y-46333D01*
X55947Y-46303D01*
X55902Y-46288D01*
X55872Y-46288D01*
X55827Y-46303D01*
X55812Y-46318D01*
X55542Y-46393D02*
X55542Y-46603D01*
X55617Y-46273D02*
X55692Y-46498D01*
X55497Y-46498D01*
X55227Y-46288D02*
X55377Y-46288D01*
X55392Y-46438D01*
X55377Y-46423D01*
X55347Y-46408D01*
X55272Y-46408D01*
X55242Y-46423D01*
X55227Y-46438D01*
X55212Y-46468D01*
X55212Y-46543D01*
X55227Y-46573D01*
X55242Y-46588D01*
X55272Y-46603D01*
X55347Y-46603D01*
X55377Y-46588D01*
X55392Y-46573D01*
X53627Y-30117D02*
X53642Y-30132D01*
X53687Y-30147D01*
X53717Y-30147D01*
X53762Y-30132D01*
X53792Y-30102D01*
X53807Y-30072D01*
X53822Y-30012D01*
X53822Y-29967D01*
X53807Y-29907D01*
X53792Y-29877D01*
X53762Y-29847D01*
X53717Y-29832D01*
X53687Y-29832D01*
X53642Y-29847D01*
X53627Y-29862D01*
X53342Y-29832D02*
X53492Y-29832D01*
X53507Y-29982D01*
X53492Y-29967D01*
X53462Y-29952D01*
X53387Y-29952D01*
X53357Y-29967D01*
X53342Y-29982D01*
X53327Y-30012D01*
X53327Y-30087D01*
X53342Y-30117D01*
X53357Y-30132D01*
X53387Y-30147D01*
X53462Y-30147D01*
X53492Y-30132D01*
X53507Y-30117D01*
X53207Y-29862D02*
X53192Y-29847D01*
X53162Y-29832D01*
X53087Y-29832D01*
X53057Y-29847D01*
X53042Y-29862D01*
X53027Y-29892D01*
X53027Y-29922D01*
X53042Y-29967D01*
X53222Y-30147D01*
X53027Y-30147D01*
X55901Y-30619D02*
X56006Y-30469D01*
X56081Y-30619D02*
X56081Y-30304D01*
X55961Y-30304D01*
X55931Y-30319D01*
X55916Y-30334D01*
X55901Y-30364D01*
X55901Y-30409D01*
X55916Y-30439D01*
X55931Y-30454D01*
X55961Y-30469D01*
X56081Y-30469D01*
X55631Y-30409D02*
X55631Y-30619D01*
X55706Y-30289D02*
X55781Y-30514D01*
X55586Y-30514D01*
X55406Y-30304D02*
X55376Y-30304D01*
X55346Y-30319D01*
X55331Y-30334D01*
X55316Y-30364D01*
X55301Y-30424D01*
X55301Y-30499D01*
X55316Y-30559D01*
X55331Y-30589D01*
X55346Y-30604D01*
X55376Y-30619D01*
X55406Y-30619D01*
X55436Y-30604D01*
X55451Y-30589D01*
X55466Y-30559D01*
X55481Y-30499D01*
X55481Y-30424D01*
X55466Y-30364D01*
X55451Y-30334D01*
X55436Y-30319D01*
X55406Y-30304D01*
X57170Y-29989D02*
X57185Y-30004D01*
X57230Y-30019D01*
X57260Y-30019D01*
X57305Y-30004D01*
X57335Y-29974D01*
X57350Y-29944D01*
X57365Y-29884D01*
X57365Y-29839D01*
X57350Y-29779D01*
X57335Y-29749D01*
X57305Y-29719D01*
X57260Y-29704D01*
X57230Y-29704D01*
X57185Y-29719D01*
X57170Y-29734D01*
X56901Y-29809D02*
X56901Y-30019D01*
X56976Y-29689D02*
X57050Y-29914D01*
X56856Y-29914D01*
X56766Y-29704D02*
X56571Y-29704D01*
X56676Y-29824D01*
X56631Y-29824D01*
X56601Y-29839D01*
X56586Y-29854D01*
X56571Y-29884D01*
X56571Y-29959D01*
X56586Y-29989D01*
X56601Y-30004D01*
X56631Y-30019D01*
X56721Y-30019D01*
X56751Y-30004D01*
X56766Y-29989D01*
X55901Y-28838D02*
X56006Y-28688D01*
X56081Y-28838D02*
X56081Y-28523D01*
X55961Y-28523D01*
X55931Y-28538D01*
X55916Y-28553D01*
X55901Y-28583D01*
X55901Y-28628D01*
X55916Y-28658D01*
X55931Y-28673D01*
X55961Y-28688D01*
X56081Y-28688D01*
X55796Y-28523D02*
X55601Y-28523D01*
X55706Y-28643D01*
X55661Y-28643D01*
X55631Y-28658D01*
X55616Y-28673D01*
X55601Y-28703D01*
X55601Y-28778D01*
X55616Y-28808D01*
X55631Y-28823D01*
X55661Y-28838D01*
X55751Y-28838D01*
X55781Y-28823D01*
X55796Y-28808D01*
X55451Y-28838D02*
X55391Y-28838D01*
X55361Y-28823D01*
X55346Y-28808D01*
X55316Y-28763D01*
X55301Y-28703D01*
X55301Y-28583D01*
X55316Y-28553D01*
X55331Y-28538D01*
X55361Y-28523D01*
X55421Y-28523D01*
X55451Y-28538D01*
X55466Y-28553D01*
X55481Y-28583D01*
X55481Y-28658D01*
X55466Y-28688D01*
X55451Y-28703D01*
X55421Y-28718D01*
X55361Y-28718D01*
X55331Y-28703D01*
X55316Y-28688D01*
X55301Y-28658D01*
X49324Y-53277D02*
X49429Y-53127D01*
X49504Y-53277D02*
X49504Y-52962D01*
X49384Y-52962D01*
X49354Y-52977D01*
X49339Y-52992D01*
X49324Y-53022D01*
X49324Y-53067D01*
X49339Y-53097D01*
X49354Y-53112D01*
X49384Y-53127D01*
X49504Y-53127D01*
X49054Y-52962D02*
X49114Y-52962D01*
X49144Y-52977D01*
X49159Y-52992D01*
X49189Y-53037D01*
X49204Y-53097D01*
X49204Y-53217D01*
X49189Y-53247D01*
X49174Y-53262D01*
X49144Y-53277D01*
X49084Y-53277D01*
X49054Y-53262D01*
X49039Y-53247D01*
X49024Y-53217D01*
X49024Y-53142D01*
X49039Y-53112D01*
X49054Y-53097D01*
X49084Y-53082D01*
X49144Y-53082D01*
X49174Y-53097D01*
X49189Y-53112D01*
X49204Y-53142D01*
X55556Y-53030D02*
X55571Y-53045D01*
X55616Y-53060D01*
X55646Y-53060D01*
X55691Y-53045D01*
X55721Y-53015D01*
X55736Y-52985D01*
X55751Y-52925D01*
X55751Y-52880D01*
X55736Y-52820D01*
X55721Y-52790D01*
X55691Y-52760D01*
X55646Y-52745D01*
X55616Y-52745D01*
X55571Y-52760D01*
X55556Y-52775D01*
X55436Y-52775D02*
X55421Y-52760D01*
X55391Y-52745D01*
X55316Y-52745D01*
X55286Y-52760D01*
X55271Y-52775D01*
X55256Y-52805D01*
X55256Y-52835D01*
X55271Y-52880D01*
X55451Y-53060D01*
X55256Y-53060D01*
X54986Y-52745D02*
X55046Y-52745D01*
X55076Y-52760D01*
X55091Y-52775D01*
X55121Y-52820D01*
X55136Y-52880D01*
X55136Y-53000D01*
X55121Y-53030D01*
X55106Y-53045D01*
X55076Y-53060D01*
X55016Y-53060D01*
X54986Y-53045D01*
X54971Y-53030D01*
X54956Y-53000D01*
X54956Y-52925D01*
X54971Y-52895D01*
X54986Y-52880D01*
X55016Y-52865D01*
X55076Y-52865D01*
X55106Y-52880D01*
X55121Y-52895D01*
X55136Y-52925D01*
X56285Y-33483D02*
X56300Y-33498D01*
X56345Y-33513D01*
X56375Y-33513D01*
X56420Y-33498D01*
X56450Y-33468D01*
X56465Y-33438D01*
X56480Y-33378D01*
X56480Y-33333D01*
X56465Y-33273D01*
X56450Y-33243D01*
X56420Y-33213D01*
X56375Y-33198D01*
X56345Y-33198D01*
X56300Y-33213D01*
X56285Y-33228D01*
X56180Y-33198D02*
X55970Y-33198D01*
X56105Y-33513D01*
X55715Y-33198D02*
X55775Y-33198D01*
X55805Y-33213D01*
X55820Y-33228D01*
X55850Y-33273D01*
X55865Y-33333D01*
X55865Y-33453D01*
X55850Y-33483D01*
X55835Y-33498D01*
X55805Y-33513D01*
X55745Y-33513D01*
X55715Y-33498D01*
X55700Y-33483D01*
X55685Y-33453D01*
X55685Y-33378D01*
X55700Y-33348D01*
X55715Y-33333D01*
X55745Y-33318D01*
X55805Y-33318D01*
X55835Y-33333D01*
X55850Y-33348D01*
X55865Y-33378D01*
X62938Y-40195D02*
X62953Y-40210D01*
X62998Y-40225D01*
X63028Y-40225D01*
X63073Y-40210D01*
X63103Y-40180D01*
X63118Y-40150D01*
X63133Y-40090D01*
X63133Y-40045D01*
X63118Y-39985D01*
X63103Y-39955D01*
X63073Y-39925D01*
X63028Y-39910D01*
X62998Y-39910D01*
X62953Y-39925D01*
X62938Y-39940D01*
X62833Y-39910D02*
X62623Y-39910D01*
X62758Y-40225D01*
X62443Y-39910D02*
X62413Y-39910D01*
X62383Y-39925D01*
X62368Y-39940D01*
X62353Y-39970D01*
X62338Y-40030D01*
X62338Y-40105D01*
X62353Y-40165D01*
X62368Y-40195D01*
X62383Y-40210D01*
X62413Y-40225D01*
X62443Y-40225D01*
X62473Y-40210D01*
X62488Y-40195D01*
X62503Y-40165D01*
X62518Y-40105D01*
X62518Y-40030D01*
X62503Y-39970D01*
X62488Y-39940D01*
X62473Y-39925D01*
X62443Y-39910D01*
X57525Y-42164D02*
X57540Y-42179D01*
X57585Y-42194D01*
X57615Y-42194D01*
X57660Y-42179D01*
X57690Y-42149D01*
X57705Y-42119D01*
X57720Y-42059D01*
X57720Y-42014D01*
X57705Y-41954D01*
X57690Y-41924D01*
X57660Y-41894D01*
X57615Y-41879D01*
X57585Y-41879D01*
X57540Y-41894D01*
X57525Y-41909D01*
X57420Y-41879D02*
X57210Y-41879D01*
X57345Y-42194D01*
X57120Y-41879D02*
X56925Y-41879D01*
X57030Y-41999D01*
X56985Y-41999D01*
X56955Y-42014D01*
X56940Y-42029D01*
X56925Y-42059D01*
X56925Y-42134D01*
X56940Y-42164D01*
X56955Y-42179D01*
X56985Y-42194D01*
X57075Y-42194D01*
X57105Y-42179D01*
X57120Y-42164D01*
X57501Y-41018D02*
X57516Y-41033D01*
X57561Y-41048D01*
X57591Y-41048D01*
X57636Y-41033D01*
X57666Y-41003D01*
X57681Y-40973D01*
X57696Y-40913D01*
X57696Y-40868D01*
X57681Y-40808D01*
X57666Y-40778D01*
X57636Y-40748D01*
X57591Y-40733D01*
X57561Y-40733D01*
X57516Y-40748D01*
X57501Y-40763D01*
X57396Y-40733D02*
X57186Y-40733D01*
X57321Y-41048D01*
X56931Y-40838D02*
X56931Y-41048D01*
X57006Y-40718D02*
X57081Y-40943D01*
X56886Y-40943D01*
X56304Y-35698D02*
X56409Y-35548D01*
X56484Y-35698D02*
X56484Y-35383D01*
X56364Y-35383D01*
X56334Y-35398D01*
X56319Y-35413D01*
X56304Y-35443D01*
X56304Y-35488D01*
X56319Y-35518D01*
X56334Y-35533D01*
X56364Y-35548D01*
X56484Y-35548D01*
X56034Y-35383D02*
X56094Y-35383D01*
X56124Y-35398D01*
X56139Y-35413D01*
X56169Y-35458D01*
X56184Y-35518D01*
X56184Y-35638D01*
X56169Y-35668D01*
X56154Y-35683D01*
X56124Y-35698D01*
X56064Y-35698D01*
X56034Y-35683D01*
X56019Y-35668D01*
X56004Y-35638D01*
X56004Y-35563D01*
X56019Y-35533D01*
X56034Y-35518D01*
X56064Y-35503D01*
X56124Y-35503D01*
X56154Y-35518D01*
X56169Y-35533D01*
X56184Y-35563D01*
X55704Y-35698D02*
X55884Y-35698D01*
X55794Y-35698D02*
X55794Y-35383D01*
X55824Y-35428D01*
X55854Y-35458D01*
X55884Y-35473D01*
X57501Y-39847D02*
X57606Y-39697D01*
X57681Y-39847D02*
X57681Y-39532D01*
X57561Y-39532D01*
X57531Y-39547D01*
X57516Y-39562D01*
X57501Y-39592D01*
X57501Y-39637D01*
X57516Y-39667D01*
X57531Y-39682D01*
X57561Y-39697D01*
X57681Y-39697D01*
X57216Y-39532D02*
X57366Y-39532D01*
X57381Y-39682D01*
X57366Y-39667D01*
X57336Y-39652D01*
X57261Y-39652D01*
X57231Y-39667D01*
X57216Y-39682D01*
X57201Y-39712D01*
X57201Y-39787D01*
X57216Y-39817D01*
X57231Y-39832D01*
X57261Y-39847D01*
X57336Y-39847D01*
X57366Y-39832D01*
X57381Y-39817D01*
X57051Y-39847D02*
X56991Y-39847D01*
X56961Y-39832D01*
X56946Y-39817D01*
X56916Y-39772D01*
X56901Y-39712D01*
X56901Y-39592D01*
X56916Y-39562D01*
X56931Y-39547D01*
X56961Y-39532D01*
X57021Y-39532D01*
X57051Y-39547D01*
X57066Y-39562D01*
X57081Y-39592D01*
X57081Y-39667D01*
X57066Y-39697D01*
X57051Y-39712D01*
X57021Y-39727D01*
X56961Y-39727D01*
X56931Y-39712D01*
X56916Y-39697D01*
X56901Y-39667D01*
X57919Y-33493D02*
X58023Y-33343D01*
X58098Y-33493D02*
X58098Y-33178D01*
X57979Y-33178D01*
X57949Y-33193D01*
X57934Y-33208D01*
X57919Y-33238D01*
X57919Y-33283D01*
X57934Y-33313D01*
X57949Y-33328D01*
X57979Y-33343D01*
X58098Y-33343D01*
X57634Y-33178D02*
X57784Y-33178D01*
X57799Y-33328D01*
X57784Y-33313D01*
X57754Y-33298D01*
X57679Y-33298D01*
X57649Y-33313D01*
X57634Y-33328D01*
X57619Y-33358D01*
X57619Y-33433D01*
X57634Y-33463D01*
X57649Y-33478D01*
X57679Y-33493D01*
X57754Y-33493D01*
X57784Y-33478D01*
X57799Y-33463D01*
X57439Y-33313D02*
X57469Y-33298D01*
X57484Y-33283D01*
X57499Y-33253D01*
X57499Y-33238D01*
X57484Y-33208D01*
X57469Y-33193D01*
X57439Y-33178D01*
X57379Y-33178D01*
X57349Y-33193D01*
X57334Y-33208D01*
X57319Y-33238D01*
X57319Y-33253D01*
X57334Y-33283D01*
X57349Y-33298D01*
X57379Y-33313D01*
X57439Y-33313D01*
X57469Y-33328D01*
X57484Y-33343D01*
X57499Y-33373D01*
X57499Y-33433D01*
X57484Y-33463D01*
X57469Y-33478D01*
X57439Y-33493D01*
X57379Y-33493D01*
X57349Y-33478D01*
X57334Y-33463D01*
X57319Y-33433D01*
X57319Y-33373D01*
X57334Y-33343D01*
X57349Y-33328D01*
X57379Y-33313D01*
X57958Y-34635D02*
X58063Y-34485D01*
X58138Y-34635D02*
X58138Y-34320D01*
X58018Y-34320D01*
X57988Y-34335D01*
X57973Y-34350D01*
X57958Y-34380D01*
X57958Y-34425D01*
X57973Y-34455D01*
X57988Y-34470D01*
X58018Y-34485D01*
X58138Y-34485D01*
X57688Y-34320D02*
X57748Y-34320D01*
X57778Y-34335D01*
X57793Y-34350D01*
X57823Y-34395D01*
X57838Y-34455D01*
X57838Y-34575D01*
X57823Y-34605D01*
X57808Y-34620D01*
X57778Y-34635D01*
X57718Y-34635D01*
X57688Y-34620D01*
X57673Y-34605D01*
X57658Y-34575D01*
X57658Y-34500D01*
X57673Y-34470D01*
X57688Y-34455D01*
X57718Y-34440D01*
X57778Y-34440D01*
X57808Y-34455D01*
X57823Y-34470D01*
X57838Y-34500D01*
X57463Y-34320D02*
X57433Y-34320D01*
X57403Y-34335D01*
X57388Y-34350D01*
X57373Y-34380D01*
X57358Y-34440D01*
X57358Y-34515D01*
X57373Y-34575D01*
X57388Y-34605D01*
X57403Y-34620D01*
X57433Y-34635D01*
X57463Y-34635D01*
X57493Y-34620D01*
X57508Y-34605D01*
X57523Y-34575D01*
X57538Y-34515D01*
X57538Y-34440D01*
X57523Y-34380D01*
X57508Y-34350D01*
X57493Y-34335D01*
X57463Y-34320D01*
X57934Y-35664D02*
X57949Y-35679D01*
X57994Y-35694D01*
X58024Y-35694D01*
X58069Y-35679D01*
X58099Y-35649D01*
X58114Y-35619D01*
X58129Y-35559D01*
X58129Y-35514D01*
X58114Y-35454D01*
X58099Y-35424D01*
X58069Y-35394D01*
X58024Y-35379D01*
X57994Y-35379D01*
X57949Y-35394D01*
X57934Y-35409D01*
X57829Y-35379D02*
X57619Y-35379D01*
X57754Y-35694D01*
X57514Y-35409D02*
X57499Y-35394D01*
X57469Y-35379D01*
X57394Y-35379D01*
X57364Y-35394D01*
X57349Y-35409D01*
X57334Y-35439D01*
X57334Y-35469D01*
X57349Y-35514D01*
X57529Y-35694D01*
X57334Y-35694D01*
X56304Y-34615D02*
X56409Y-34465D01*
X56484Y-34615D02*
X56484Y-34300D01*
X56364Y-34300D01*
X56334Y-34315D01*
X56319Y-34330D01*
X56304Y-34360D01*
X56304Y-34405D01*
X56319Y-34435D01*
X56334Y-34450D01*
X56364Y-34465D01*
X56484Y-34465D01*
X56034Y-34300D02*
X56094Y-34300D01*
X56124Y-34315D01*
X56139Y-34330D01*
X56169Y-34375D01*
X56184Y-34435D01*
X56184Y-34555D01*
X56169Y-34585D01*
X56154Y-34600D01*
X56124Y-34615D01*
X56064Y-34615D01*
X56034Y-34600D01*
X56019Y-34585D01*
X56004Y-34555D01*
X56004Y-34480D01*
X56019Y-34450D01*
X56034Y-34435D01*
X56064Y-34420D01*
X56124Y-34420D01*
X56154Y-34435D01*
X56169Y-34450D01*
X56184Y-34480D01*
X55884Y-34330D02*
X55869Y-34315D01*
X55839Y-34300D01*
X55764Y-34300D01*
X55734Y-34315D01*
X55719Y-34330D01*
X55704Y-34360D01*
X55704Y-34390D01*
X55719Y-34435D01*
X55899Y-34615D01*
X55704Y-34615D01*
X60812Y-38857D02*
X60827Y-38872D01*
X60872Y-38887D01*
X60902Y-38887D01*
X60947Y-38872D01*
X60977Y-38842D01*
X60992Y-38812D01*
X61007Y-38752D01*
X61007Y-38707D01*
X60992Y-38647D01*
X60977Y-38617D01*
X60947Y-38587D01*
X60902Y-38572D01*
X60872Y-38572D01*
X60827Y-38587D01*
X60812Y-38602D01*
X60542Y-38572D02*
X60602Y-38572D01*
X60632Y-38587D01*
X60647Y-38602D01*
X60677Y-38647D01*
X60692Y-38707D01*
X60692Y-38827D01*
X60677Y-38857D01*
X60662Y-38872D01*
X60632Y-38887D01*
X60572Y-38887D01*
X60542Y-38872D01*
X60527Y-38857D01*
X60512Y-38827D01*
X60512Y-38752D01*
X60527Y-38722D01*
X60542Y-38707D01*
X60572Y-38692D01*
X60632Y-38692D01*
X60662Y-38707D01*
X60677Y-38722D01*
X60692Y-38752D01*
X60332Y-38707D02*
X60362Y-38692D01*
X60377Y-38677D01*
X60392Y-38647D01*
X60392Y-38632D01*
X60377Y-38602D01*
X60362Y-38587D01*
X60332Y-38572D01*
X60272Y-38572D01*
X60242Y-38587D01*
X60227Y-38602D01*
X60212Y-38632D01*
X60212Y-38647D01*
X60227Y-38677D01*
X60242Y-38692D01*
X60272Y-38707D01*
X60332Y-38707D01*
X60362Y-38722D01*
X60377Y-38737D01*
X60392Y-38767D01*
X60392Y-38827D01*
X60377Y-38857D01*
X60362Y-38872D01*
X60332Y-38887D01*
X60272Y-38887D01*
X60242Y-38872D01*
X60227Y-38857D01*
X60212Y-38827D01*
X60212Y-38767D01*
X60227Y-38737D01*
X60242Y-38722D01*
X60272Y-38707D01*
X64686Y-27928D02*
X64701Y-27943D01*
X64746Y-27958D01*
X64776Y-27958D01*
X64821Y-27943D01*
X64851Y-27913D01*
X64866Y-27883D01*
X64881Y-27823D01*
X64881Y-27778D01*
X64866Y-27718D01*
X64851Y-27688D01*
X64821Y-27658D01*
X64776Y-27643D01*
X64746Y-27643D01*
X64701Y-27658D01*
X64686Y-27673D01*
X64416Y-27643D02*
X64476Y-27643D01*
X64506Y-27658D01*
X64521Y-27673D01*
X64551Y-27718D01*
X64566Y-27778D01*
X64566Y-27898D01*
X64551Y-27928D01*
X64536Y-27943D01*
X64506Y-27958D01*
X64446Y-27958D01*
X64416Y-27943D01*
X64401Y-27928D01*
X64386Y-27898D01*
X64386Y-27823D01*
X64401Y-27793D01*
X64416Y-27778D01*
X64446Y-27763D01*
X64506Y-27763D01*
X64536Y-27778D01*
X64551Y-27793D01*
X64566Y-27823D01*
X64101Y-27643D02*
X64251Y-27643D01*
X64266Y-27793D01*
X64251Y-27778D01*
X64221Y-27763D01*
X64146Y-27763D01*
X64116Y-27778D01*
X64101Y-27793D01*
X64086Y-27823D01*
X64086Y-27898D01*
X64101Y-27928D01*
X64116Y-27943D01*
X64146Y-27958D01*
X64221Y-27958D01*
X64251Y-27943D01*
X64266Y-27928D01*
X59942Y-27849D02*
X59957Y-27864D01*
X60002Y-27879D01*
X60032Y-27879D01*
X60077Y-27864D01*
X60107Y-27834D01*
X60122Y-27804D01*
X60137Y-27744D01*
X60137Y-27699D01*
X60122Y-27639D01*
X60107Y-27609D01*
X60077Y-27579D01*
X60032Y-27564D01*
X60002Y-27564D01*
X59957Y-27579D01*
X59942Y-27594D01*
X59837Y-27564D02*
X59627Y-27564D01*
X59762Y-27879D01*
X59342Y-27879D02*
X59522Y-27879D01*
X59432Y-27879D02*
X59432Y-27564D01*
X59462Y-27609D01*
X59492Y-27639D01*
X59522Y-27654D01*
X63210Y-28971D02*
X63225Y-28986D01*
X63270Y-29001D01*
X63300Y-29001D01*
X63345Y-28986D01*
X63375Y-28956D01*
X63390Y-28926D01*
X63405Y-28866D01*
X63405Y-28821D01*
X63390Y-28761D01*
X63375Y-28731D01*
X63345Y-28701D01*
X63300Y-28686D01*
X63270Y-28686D01*
X63225Y-28701D01*
X63210Y-28716D01*
X62940Y-28686D02*
X63000Y-28686D01*
X63030Y-28701D01*
X63045Y-28716D01*
X63075Y-28761D01*
X63090Y-28821D01*
X63090Y-28941D01*
X63075Y-28971D01*
X63060Y-28986D01*
X63030Y-29001D01*
X62970Y-29001D01*
X62940Y-28986D01*
X62925Y-28971D01*
X62910Y-28941D01*
X62910Y-28866D01*
X62925Y-28836D01*
X62940Y-28821D01*
X62970Y-28806D01*
X63030Y-28806D01*
X63060Y-28821D01*
X63075Y-28836D01*
X63090Y-28866D01*
X62640Y-28686D02*
X62700Y-28686D01*
X62730Y-28701D01*
X62745Y-28716D01*
X62775Y-28761D01*
X62790Y-28821D01*
X62790Y-28941D01*
X62775Y-28971D01*
X62760Y-28986D01*
X62730Y-29001D01*
X62670Y-29001D01*
X62640Y-28986D01*
X62625Y-28971D01*
X62610Y-28941D01*
X62610Y-28866D01*
X62625Y-28836D01*
X62640Y-28821D01*
X62670Y-28806D01*
X62730Y-28806D01*
X62760Y-28821D01*
X62775Y-28836D01*
X62790Y-28866D01*
X58289Y-28892D02*
X58304Y-28907D01*
X58349Y-28922D01*
X58379Y-28922D01*
X58424Y-28907D01*
X58454Y-28877D01*
X58469Y-28847D01*
X58484Y-28787D01*
X58484Y-28742D01*
X58469Y-28682D01*
X58454Y-28652D01*
X58424Y-28622D01*
X58379Y-28607D01*
X58349Y-28607D01*
X58304Y-28622D01*
X58289Y-28637D01*
X58184Y-28607D02*
X57974Y-28607D01*
X58109Y-28922D01*
X57704Y-28607D02*
X57854Y-28607D01*
X57869Y-28757D01*
X57854Y-28742D01*
X57824Y-28727D01*
X57749Y-28727D01*
X57719Y-28742D01*
X57704Y-28757D01*
X57689Y-28787D01*
X57689Y-28862D01*
X57704Y-28892D01*
X57719Y-28907D01*
X57749Y-28922D01*
X57824Y-28922D01*
X57854Y-28907D01*
X57869Y-28892D01*
X64686Y-26766D02*
X64701Y-26781D01*
X64746Y-26796D01*
X64776Y-26796D01*
X64821Y-26781D01*
X64851Y-26751D01*
X64866Y-26721D01*
X64881Y-26661D01*
X64881Y-26616D01*
X64866Y-26556D01*
X64851Y-26526D01*
X64821Y-26496D01*
X64776Y-26481D01*
X64746Y-26481D01*
X64701Y-26496D01*
X64686Y-26511D01*
X64416Y-26481D02*
X64476Y-26481D01*
X64506Y-26496D01*
X64521Y-26511D01*
X64551Y-26556D01*
X64566Y-26616D01*
X64566Y-26736D01*
X64551Y-26766D01*
X64536Y-26781D01*
X64506Y-26796D01*
X64446Y-26796D01*
X64416Y-26781D01*
X64401Y-26766D01*
X64386Y-26736D01*
X64386Y-26661D01*
X64401Y-26631D01*
X64416Y-26616D01*
X64446Y-26601D01*
X64506Y-26601D01*
X64536Y-26616D01*
X64551Y-26631D01*
X64566Y-26661D01*
X64116Y-26586D02*
X64116Y-26796D01*
X64191Y-26466D02*
X64266Y-26691D01*
X64071Y-26691D01*
X59942Y-26707D02*
X59957Y-26722D01*
X60002Y-26737D01*
X60032Y-26737D01*
X60077Y-26722D01*
X60107Y-26692D01*
X60122Y-26662D01*
X60137Y-26602D01*
X60137Y-26557D01*
X60122Y-26497D01*
X60107Y-26467D01*
X60077Y-26437D01*
X60032Y-26422D01*
X60002Y-26422D01*
X59957Y-26437D01*
X59942Y-26452D01*
X59672Y-26422D02*
X59732Y-26422D01*
X59762Y-26437D01*
X59777Y-26452D01*
X59807Y-26497D01*
X59822Y-26557D01*
X59822Y-26677D01*
X59807Y-26707D01*
X59792Y-26722D01*
X59762Y-26737D01*
X59702Y-26737D01*
X59672Y-26722D01*
X59657Y-26707D01*
X59642Y-26677D01*
X59642Y-26602D01*
X59657Y-26572D01*
X59672Y-26557D01*
X59702Y-26542D01*
X59762Y-26542D01*
X59792Y-26557D01*
X59807Y-26572D01*
X59822Y-26602D01*
X59492Y-26737D02*
X59432Y-26737D01*
X59402Y-26722D01*
X59387Y-26707D01*
X59357Y-26662D01*
X59342Y-26602D01*
X59342Y-26482D01*
X59357Y-26452D01*
X59372Y-26437D01*
X59402Y-26422D01*
X59462Y-26422D01*
X59492Y-26437D01*
X59507Y-26452D01*
X59522Y-26482D01*
X59522Y-26557D01*
X59507Y-26587D01*
X59492Y-26602D01*
X59462Y-26617D01*
X59402Y-26617D01*
X59372Y-26602D01*
X59357Y-26587D01*
X59342Y-26557D01*
X54710Y-23552D02*
X54815Y-23402D01*
X54890Y-23552D02*
X54890Y-23237D01*
X54770Y-23237D01*
X54740Y-23252D01*
X54725Y-23267D01*
X54710Y-23297D01*
X54710Y-23342D01*
X54725Y-23372D01*
X54740Y-23387D01*
X54770Y-23402D01*
X54890Y-23402D01*
X54425Y-23237D02*
X54575Y-23237D01*
X54590Y-23387D01*
X54575Y-23372D01*
X54545Y-23357D01*
X54470Y-23357D01*
X54440Y-23372D01*
X54425Y-23387D01*
X54410Y-23417D01*
X54410Y-23492D01*
X54425Y-23522D01*
X54440Y-23537D01*
X54470Y-23552D01*
X54545Y-23552D01*
X54575Y-23537D01*
X54590Y-23522D01*
X54305Y-23237D02*
X54095Y-23237D01*
X54230Y-23552D01*
X54779Y-28817D02*
X54794Y-28832D01*
X54839Y-28847D01*
X54869Y-28847D01*
X54914Y-28832D01*
X54944Y-28802D01*
X54959Y-28772D01*
X54974Y-28712D01*
X54974Y-28667D01*
X54959Y-28607D01*
X54944Y-28577D01*
X54914Y-28547D01*
X54869Y-28532D01*
X54839Y-28532D01*
X54794Y-28547D01*
X54779Y-28562D01*
X54509Y-28637D02*
X54509Y-28847D01*
X54584Y-28517D02*
X54659Y-28742D01*
X54464Y-28742D01*
X54209Y-28637D02*
X54209Y-28847D01*
X54284Y-28517D02*
X54359Y-28742D01*
X54164Y-28742D01*
X62895Y-33262D02*
X62910Y-33277D01*
X62955Y-33292D01*
X62985Y-33292D01*
X63030Y-33277D01*
X63060Y-33247D01*
X63075Y-33217D01*
X63090Y-33157D01*
X63090Y-33112D01*
X63075Y-33052D01*
X63060Y-33022D01*
X63030Y-32992D01*
X62985Y-32977D01*
X62955Y-32977D01*
X62910Y-32992D01*
X62895Y-33007D01*
X62610Y-32977D02*
X62760Y-32977D01*
X62775Y-33127D01*
X62760Y-33112D01*
X62730Y-33097D01*
X62655Y-33097D01*
X62625Y-33112D01*
X62610Y-33127D01*
X62595Y-33157D01*
X62595Y-33232D01*
X62610Y-33262D01*
X62625Y-33277D01*
X62655Y-33292D01*
X62730Y-33292D01*
X62760Y-33277D01*
X62775Y-33262D01*
X62325Y-32977D02*
X62385Y-32977D01*
X62415Y-32992D01*
X62430Y-33007D01*
X62460Y-33052D01*
X62475Y-33112D01*
X62475Y-33232D01*
X62460Y-33262D01*
X62445Y-33277D01*
X62415Y-33292D01*
X62355Y-33292D01*
X62325Y-33277D01*
X62310Y-33262D01*
X62295Y-33232D01*
X62295Y-33157D01*
X62310Y-33127D01*
X62325Y-33112D01*
X62355Y-33097D01*
X62415Y-33097D01*
X62445Y-33112D01*
X62460Y-33127D01*
X62475Y-33157D01*
X63076Y-49241D02*
X63181Y-49091D01*
X63256Y-49241D02*
X63256Y-48926D01*
X63136Y-48926D01*
X63106Y-48941D01*
X63091Y-48956D01*
X63076Y-48986D01*
X63076Y-49031D01*
X63091Y-49061D01*
X63106Y-49076D01*
X63136Y-49091D01*
X63256Y-49091D01*
X62791Y-48926D02*
X62941Y-48926D01*
X62956Y-49076D01*
X62941Y-49061D01*
X62911Y-49046D01*
X62836Y-49046D01*
X62806Y-49061D01*
X62791Y-49076D01*
X62776Y-49106D01*
X62776Y-49181D01*
X62791Y-49211D01*
X62806Y-49226D01*
X62836Y-49241D01*
X62911Y-49241D01*
X62941Y-49226D01*
X62956Y-49211D01*
X62671Y-48926D02*
X62476Y-48926D01*
X62581Y-49046D01*
X62536Y-49046D01*
X62506Y-49061D01*
X62491Y-49076D01*
X62476Y-49106D01*
X62476Y-49181D01*
X62491Y-49211D01*
X62506Y-49226D01*
X62536Y-49241D01*
X62626Y-49241D01*
X62656Y-49226D01*
X62671Y-49211D01*
X62426Y-51151D02*
X62531Y-51001D01*
X62606Y-51151D02*
X62606Y-50836D01*
X62486Y-50836D01*
X62456Y-50851D01*
X62441Y-50866D01*
X62426Y-50896D01*
X62426Y-50941D01*
X62441Y-50971D01*
X62456Y-50986D01*
X62486Y-51001D01*
X62606Y-51001D01*
X62141Y-50836D02*
X62291Y-50836D01*
X62306Y-50986D01*
X62291Y-50971D01*
X62261Y-50956D01*
X62186Y-50956D01*
X62156Y-50971D01*
X62141Y-50986D01*
X62126Y-51016D01*
X62126Y-51091D01*
X62141Y-51121D01*
X62156Y-51136D01*
X62186Y-51151D01*
X62261Y-51151D01*
X62291Y-51136D01*
X62306Y-51121D01*
X61826Y-51151D02*
X62006Y-51151D01*
X61916Y-51151D02*
X61916Y-50836D01*
X61946Y-50881D01*
X61976Y-50911D01*
X62006Y-50926D01*
X62446Y-52312D02*
X62551Y-52162D01*
X62626Y-52312D02*
X62626Y-51997D01*
X62506Y-51997D01*
X62476Y-52012D01*
X62461Y-52027D01*
X62446Y-52057D01*
X62446Y-52102D01*
X62461Y-52132D01*
X62476Y-52147D01*
X62506Y-52162D01*
X62626Y-52162D01*
X62176Y-52102D02*
X62176Y-52312D01*
X62251Y-51982D02*
X62326Y-52207D01*
X62131Y-52207D01*
X61966Y-52132D02*
X61996Y-52117D01*
X62011Y-52102D01*
X62026Y-52072D01*
X62026Y-52057D01*
X62011Y-52027D01*
X61996Y-52012D01*
X61966Y-51997D01*
X61906Y-51997D01*
X61876Y-52012D01*
X61861Y-52027D01*
X61846Y-52057D01*
X61846Y-52072D01*
X61861Y-52102D01*
X61876Y-52117D01*
X61906Y-52132D01*
X61966Y-52132D01*
X61996Y-52147D01*
X62011Y-52162D01*
X62026Y-52192D01*
X62026Y-52252D01*
X62011Y-52282D01*
X61996Y-52297D01*
X61966Y-52312D01*
X61906Y-52312D01*
X61876Y-52297D01*
X61861Y-52282D01*
X61846Y-52252D01*
X61846Y-52192D01*
X61861Y-52162D01*
X61876Y-52147D01*
X61906Y-52132D01*
X60104Y-50698D02*
X60209Y-50548D01*
X60284Y-50698D02*
X60284Y-50383D01*
X60164Y-50383D01*
X60134Y-50398D01*
X60119Y-50413D01*
X60104Y-50443D01*
X60104Y-50488D01*
X60119Y-50518D01*
X60134Y-50533D01*
X60164Y-50548D01*
X60284Y-50548D01*
X59834Y-50488D02*
X59834Y-50698D01*
X59909Y-50368D02*
X59984Y-50593D01*
X59789Y-50593D01*
X59534Y-50383D02*
X59594Y-50383D01*
X59624Y-50398D01*
X59639Y-50413D01*
X59669Y-50458D01*
X59684Y-50518D01*
X59684Y-50638D01*
X59669Y-50668D01*
X59654Y-50683D01*
X59624Y-50698D01*
X59564Y-50698D01*
X59534Y-50683D01*
X59519Y-50668D01*
X59504Y-50638D01*
X59504Y-50563D01*
X59519Y-50533D01*
X59534Y-50518D01*
X59564Y-50503D01*
X59624Y-50503D01*
X59654Y-50518D01*
X59669Y-50533D01*
X59684Y-50563D01*
X58627Y-50628D02*
X58642Y-50643D01*
X58687Y-50658D01*
X58717Y-50658D01*
X58762Y-50643D01*
X58792Y-50613D01*
X58807Y-50583D01*
X58822Y-50523D01*
X58822Y-50479D01*
X58807Y-50419D01*
X58792Y-50389D01*
X58762Y-50359D01*
X58717Y-50344D01*
X58687Y-50344D01*
X58642Y-50359D01*
X58627Y-50374D01*
X58357Y-50449D02*
X58357Y-50658D01*
X58432Y-50329D02*
X58507Y-50553D01*
X58312Y-50553D01*
X58177Y-50658D02*
X58117Y-50658D01*
X58087Y-50643D01*
X58072Y-50628D01*
X58042Y-50583D01*
X58027Y-50523D01*
X58027Y-50404D01*
X58042Y-50374D01*
X58057Y-50359D01*
X58087Y-50344D01*
X58147Y-50344D01*
X58177Y-50359D01*
X58192Y-50374D01*
X58207Y-50404D01*
X58207Y-50479D01*
X58192Y-50508D01*
X58177Y-50523D01*
X58147Y-50538D01*
X58087Y-50538D01*
X58057Y-50523D01*
X58042Y-50508D01*
X58027Y-50479D01*
X62308Y-44851D02*
X62413Y-44701D01*
X62488Y-44851D02*
X62488Y-44536D01*
X62368Y-44536D01*
X62338Y-44551D01*
X62323Y-44566D01*
X62308Y-44596D01*
X62308Y-44641D01*
X62323Y-44671D01*
X62338Y-44686D01*
X62368Y-44701D01*
X62488Y-44701D01*
X62038Y-44641D02*
X62038Y-44851D01*
X62113Y-44521D02*
X62188Y-44746D01*
X61993Y-44746D01*
X61903Y-44536D02*
X61693Y-44536D01*
X61828Y-44851D01*
X62328Y-43690D02*
X62433Y-43540D01*
X62508Y-43690D02*
X62508Y-43375D01*
X62388Y-43375D01*
X62358Y-43390D01*
X62343Y-43405D01*
X62328Y-43435D01*
X62328Y-43480D01*
X62343Y-43510D01*
X62358Y-43525D01*
X62388Y-43540D01*
X62508Y-43540D01*
X62058Y-43480D02*
X62058Y-43690D01*
X62133Y-43360D02*
X62208Y-43585D01*
X62013Y-43585D01*
X61878Y-43690D02*
X61818Y-43690D01*
X61788Y-43675D01*
X61773Y-43660D01*
X61743Y-43615D01*
X61728Y-43555D01*
X61728Y-43435D01*
X61743Y-43405D01*
X61758Y-43390D01*
X61788Y-43375D01*
X61848Y-43375D01*
X61878Y-43390D01*
X61893Y-43405D01*
X61908Y-43435D01*
X61908Y-43510D01*
X61893Y-43540D01*
X61878Y-43555D01*
X61848Y-43570D01*
X61788Y-43570D01*
X61758Y-43555D01*
X61743Y-43540D01*
X61728Y-43510D01*
X54730Y-30619D02*
X54835Y-30469D01*
X54910Y-30619D02*
X54910Y-30304D01*
X54790Y-30304D01*
X54760Y-30319D01*
X54745Y-30334D01*
X54730Y-30364D01*
X54730Y-30409D01*
X54745Y-30439D01*
X54760Y-30454D01*
X54790Y-30469D01*
X54910Y-30469D01*
X54460Y-30409D02*
X54460Y-30619D01*
X54535Y-30289D02*
X54610Y-30514D01*
X54415Y-30514D01*
X54310Y-30334D02*
X54295Y-30319D01*
X54265Y-30304D01*
X54190Y-30304D01*
X54160Y-30319D01*
X54145Y-30334D01*
X54130Y-30364D01*
X54130Y-30394D01*
X54145Y-30439D01*
X54325Y-30619D01*
X54130Y-30619D01*
X61993Y-49241D02*
X62098Y-49091D01*
X62173Y-49241D02*
X62173Y-48926D01*
X62053Y-48926D01*
X62023Y-48941D01*
X62008Y-48956D01*
X61993Y-48986D01*
X61993Y-49031D01*
X62008Y-49061D01*
X62023Y-49076D01*
X62053Y-49091D01*
X62173Y-49091D01*
X61708Y-48926D02*
X61858Y-48926D01*
X61873Y-49076D01*
X61858Y-49061D01*
X61828Y-49046D01*
X61753Y-49046D01*
X61723Y-49061D01*
X61708Y-49076D01*
X61693Y-49106D01*
X61693Y-49181D01*
X61708Y-49211D01*
X61723Y-49226D01*
X61753Y-49241D01*
X61828Y-49241D01*
X61858Y-49226D01*
X61873Y-49211D01*
X61573Y-48956D02*
X61558Y-48941D01*
X61528Y-48926D01*
X61453Y-48926D01*
X61423Y-48941D01*
X61408Y-48956D01*
X61393Y-48986D01*
X61393Y-49016D01*
X61408Y-49061D01*
X61588Y-49241D01*
X61393Y-49241D01*
X59529Y-33262D02*
X59544Y-33277D01*
X59589Y-33292D01*
X59619Y-33292D01*
X59664Y-33277D01*
X59694Y-33247D01*
X59709Y-33217D01*
X59724Y-33157D01*
X59724Y-33112D01*
X59709Y-33052D01*
X59694Y-33022D01*
X59664Y-32992D01*
X59619Y-32977D01*
X59589Y-32977D01*
X59544Y-32992D01*
X59529Y-33007D01*
X59259Y-32977D02*
X59319Y-32977D01*
X59349Y-32992D01*
X59364Y-33007D01*
X59394Y-33052D01*
X59409Y-33112D01*
X59409Y-33232D01*
X59394Y-33262D01*
X59379Y-33277D01*
X59349Y-33292D01*
X59289Y-33292D01*
X59259Y-33277D01*
X59244Y-33262D01*
X59229Y-33232D01*
X59229Y-33157D01*
X59244Y-33127D01*
X59259Y-33112D01*
X59289Y-33097D01*
X59349Y-33097D01*
X59379Y-33112D01*
X59394Y-33127D01*
X59409Y-33157D01*
X59124Y-32977D02*
X58929Y-32977D01*
X59034Y-33097D01*
X58989Y-33097D01*
X58959Y-33112D01*
X58944Y-33127D01*
X58929Y-33157D01*
X58929Y-33232D01*
X58944Y-33262D01*
X58959Y-33277D01*
X58989Y-33292D01*
X59079Y-33292D01*
X59109Y-33277D01*
X59124Y-33262D01*
X61163Y-34384D02*
X61178Y-34399D01*
X61223Y-34414D01*
X61253Y-34414D01*
X61298Y-34399D01*
X61328Y-34369D01*
X61343Y-34339D01*
X61358Y-34279D01*
X61358Y-34234D01*
X61343Y-34174D01*
X61328Y-34144D01*
X61298Y-34114D01*
X61253Y-34099D01*
X61223Y-34099D01*
X61178Y-34114D01*
X61163Y-34129D01*
X60893Y-34099D02*
X60953Y-34099D01*
X60983Y-34114D01*
X60998Y-34129D01*
X61028Y-34174D01*
X61043Y-34234D01*
X61043Y-34354D01*
X61028Y-34384D01*
X61013Y-34399D01*
X60983Y-34414D01*
X60923Y-34414D01*
X60893Y-34399D01*
X60878Y-34384D01*
X60863Y-34354D01*
X60863Y-34279D01*
X60878Y-34249D01*
X60893Y-34234D01*
X60923Y-34219D01*
X60983Y-34219D01*
X61013Y-34234D01*
X61028Y-34249D01*
X61043Y-34279D01*
X60563Y-34414D02*
X60743Y-34414D01*
X60653Y-34414D02*
X60653Y-34099D01*
X60683Y-34144D01*
X60713Y-34174D01*
X60743Y-34189D01*
X59651Y-35609D02*
X59666Y-35624D01*
X59711Y-35639D01*
X59741Y-35639D01*
X59786Y-35624D01*
X59816Y-35594D01*
X59831Y-35564D01*
X59846Y-35504D01*
X59846Y-35459D01*
X59831Y-35399D01*
X59816Y-35369D01*
X59786Y-35339D01*
X59741Y-35324D01*
X59711Y-35324D01*
X59666Y-35339D01*
X59651Y-35354D01*
X59366Y-35324D02*
X59516Y-35324D01*
X59531Y-35474D01*
X59516Y-35459D01*
X59486Y-35444D01*
X59411Y-35444D01*
X59381Y-35459D01*
X59366Y-35474D01*
X59351Y-35504D01*
X59351Y-35579D01*
X59366Y-35609D01*
X59381Y-35624D01*
X59411Y-35639D01*
X59486Y-35639D01*
X59516Y-35624D01*
X59531Y-35609D01*
X59171Y-35459D02*
X59201Y-35444D01*
X59216Y-35429D01*
X59231Y-35399D01*
X59231Y-35384D01*
X59216Y-35354D01*
X59201Y-35339D01*
X59171Y-35324D01*
X59111Y-35324D01*
X59081Y-35339D01*
X59066Y-35354D01*
X59051Y-35384D01*
X59051Y-35399D01*
X59066Y-35429D01*
X59081Y-35444D01*
X59111Y-35459D01*
X59171Y-35459D01*
X59201Y-35474D01*
X59216Y-35489D01*
X59231Y-35519D01*
X59231Y-35579D01*
X59216Y-35609D01*
X59201Y-35624D01*
X59171Y-35639D01*
X59111Y-35639D01*
X59081Y-35624D01*
X59066Y-35609D01*
X59051Y-35579D01*
X59051Y-35519D01*
X59066Y-35489D01*
X59081Y-35474D01*
X59111Y-35459D01*
X61186Y-33266D02*
X61201Y-33281D01*
X61246Y-33296D01*
X61276Y-33296D01*
X61321Y-33281D01*
X61351Y-33251D01*
X61366Y-33221D01*
X61381Y-33161D01*
X61381Y-33116D01*
X61366Y-33056D01*
X61351Y-33026D01*
X61321Y-32996D01*
X61276Y-32981D01*
X61246Y-32981D01*
X61201Y-32996D01*
X61186Y-33011D01*
X60901Y-32981D02*
X61051Y-32981D01*
X61066Y-33131D01*
X61051Y-33116D01*
X61021Y-33101D01*
X60946Y-33101D01*
X60916Y-33116D01*
X60901Y-33131D01*
X60886Y-33161D01*
X60886Y-33236D01*
X60901Y-33266D01*
X60916Y-33281D01*
X60946Y-33296D01*
X61021Y-33296D01*
X61051Y-33281D01*
X61066Y-33266D01*
X60736Y-33296D02*
X60676Y-33296D01*
X60646Y-33281D01*
X60631Y-33266D01*
X60601Y-33221D01*
X60586Y-33161D01*
X60586Y-33041D01*
X60601Y-33011D01*
X60616Y-32996D01*
X60646Y-32981D01*
X60706Y-32981D01*
X60736Y-32996D01*
X60751Y-33011D01*
X60766Y-33041D01*
X60766Y-33116D01*
X60751Y-33146D01*
X60736Y-33161D01*
X60706Y-33176D01*
X60646Y-33176D01*
X60616Y-33161D01*
X60601Y-33146D01*
X60586Y-33116D01*
X59572Y-34399D02*
X59677Y-34249D01*
X59752Y-34399D02*
X59752Y-34084D01*
X59632Y-34084D01*
X59602Y-34099D01*
X59587Y-34114D01*
X59572Y-34144D01*
X59572Y-34189D01*
X59587Y-34219D01*
X59602Y-34234D01*
X59632Y-34249D01*
X59752Y-34249D01*
X59287Y-34084D02*
X59437Y-34084D01*
X59452Y-34234D01*
X59437Y-34219D01*
X59407Y-34204D01*
X59332Y-34204D01*
X59302Y-34219D01*
X59287Y-34234D01*
X59272Y-34264D01*
X59272Y-34339D01*
X59287Y-34369D01*
X59302Y-34384D01*
X59332Y-34399D01*
X59407Y-34399D01*
X59437Y-34384D01*
X59452Y-34369D01*
X59002Y-34189D02*
X59002Y-34399D01*
X59077Y-34069D02*
X59152Y-34294D01*
X58957Y-34294D01*
X59312Y-37711D02*
X59327Y-37726D01*
X59372Y-37741D01*
X59402Y-37741D01*
X59447Y-37726D01*
X59477Y-37696D01*
X59492Y-37666D01*
X59507Y-37606D01*
X59507Y-37561D01*
X59492Y-37501D01*
X59477Y-37471D01*
X59447Y-37441D01*
X59402Y-37426D01*
X59372Y-37426D01*
X59327Y-37441D01*
X59312Y-37456D01*
X59042Y-37426D02*
X59102Y-37426D01*
X59132Y-37441D01*
X59147Y-37456D01*
X59177Y-37501D01*
X59192Y-37561D01*
X59192Y-37681D01*
X59177Y-37711D01*
X59162Y-37726D01*
X59132Y-37741D01*
X59072Y-37741D01*
X59042Y-37726D01*
X59027Y-37711D01*
X59012Y-37681D01*
X59012Y-37606D01*
X59027Y-37576D01*
X59042Y-37561D01*
X59072Y-37546D01*
X59132Y-37546D01*
X59162Y-37561D01*
X59177Y-37576D01*
X59192Y-37606D01*
X58907Y-37426D02*
X58697Y-37426D01*
X58832Y-37741D01*
X59356Y-38907D02*
X59461Y-38757D01*
X59535Y-38907D02*
X59535Y-38592D01*
X59416Y-38592D01*
X59386Y-38607D01*
X59371Y-38622D01*
X59356Y-38652D01*
X59356Y-38697D01*
X59371Y-38727D01*
X59386Y-38742D01*
X59416Y-38757D01*
X59535Y-38757D01*
X59071Y-38592D02*
X59221Y-38592D01*
X59236Y-38742D01*
X59221Y-38727D01*
X59191Y-38712D01*
X59116Y-38712D01*
X59086Y-38727D01*
X59071Y-38742D01*
X59056Y-38772D01*
X59056Y-38847D01*
X59071Y-38877D01*
X59086Y-38892D01*
X59116Y-38907D01*
X59191Y-38907D01*
X59221Y-38892D01*
X59236Y-38877D01*
X58786Y-38592D02*
X58846Y-38592D01*
X58876Y-38607D01*
X58891Y-38622D01*
X58921Y-38667D01*
X58936Y-38727D01*
X58936Y-38847D01*
X58921Y-38877D01*
X58906Y-38892D01*
X58876Y-38907D01*
X58816Y-38907D01*
X58786Y-38892D01*
X58771Y-38877D01*
X58756Y-38847D01*
X58756Y-38772D01*
X58771Y-38742D01*
X58786Y-38727D01*
X58816Y-38712D01*
X58876Y-38712D01*
X58906Y-38727D01*
X58921Y-38742D01*
X58936Y-38772D01*
X62367Y-38907D02*
X62472Y-38757D01*
X62547Y-38907D02*
X62547Y-38592D01*
X62427Y-38592D01*
X62397Y-38607D01*
X62382Y-38622D01*
X62367Y-38652D01*
X62367Y-38697D01*
X62382Y-38727D01*
X62397Y-38742D01*
X62427Y-38757D01*
X62547Y-38757D01*
X62082Y-38592D02*
X62232Y-38592D01*
X62247Y-38742D01*
X62232Y-38727D01*
X62202Y-38712D01*
X62127Y-38712D01*
X62097Y-38727D01*
X62082Y-38742D01*
X62067Y-38772D01*
X62067Y-38847D01*
X62082Y-38877D01*
X62097Y-38892D01*
X62127Y-38907D01*
X62202Y-38907D01*
X62232Y-38892D01*
X62247Y-38877D01*
X61782Y-38592D02*
X61932Y-38592D01*
X61947Y-38742D01*
X61932Y-38727D01*
X61902Y-38712D01*
X61827Y-38712D01*
X61797Y-38727D01*
X61782Y-38742D01*
X61767Y-38772D01*
X61767Y-38847D01*
X61782Y-38877D01*
X61797Y-38892D01*
X61827Y-38907D01*
X61902Y-38907D01*
X61932Y-38892D01*
X61947Y-38877D01*
X45005Y-49861D02*
X45020Y-49876D01*
X45065Y-49891D01*
X45095Y-49891D01*
X45140Y-49876D01*
X45170Y-49846D01*
X45185Y-49816D01*
X45200Y-49756D01*
X45200Y-49711D01*
X45185Y-49651D01*
X45170Y-49621D01*
X45140Y-49591D01*
X45095Y-49576D01*
X45065Y-49576D01*
X45020Y-49591D01*
X45005Y-49606D01*
X44885Y-49606D02*
X44870Y-49591D01*
X44840Y-49576D01*
X44765Y-49576D01*
X44735Y-49591D01*
X44720Y-49606D01*
X44705Y-49636D01*
X44705Y-49666D01*
X44720Y-49711D01*
X44900Y-49891D01*
X44705Y-49891D01*
X44585Y-49606D02*
X44570Y-49591D01*
X44540Y-49576D01*
X44465Y-49576D01*
X44435Y-49591D01*
X44420Y-49606D01*
X44405Y-49636D01*
X44405Y-49666D01*
X44420Y-49711D01*
X44600Y-49891D01*
X44405Y-49891D01*
X47682Y-43306D02*
X47697Y-43321D01*
X47742Y-43336D01*
X47772Y-43336D01*
X47817Y-43321D01*
X47847Y-43291D01*
X47862Y-43261D01*
X47877Y-43201D01*
X47877Y-43156D01*
X47862Y-43096D01*
X47847Y-43066D01*
X47817Y-43036D01*
X47772Y-43021D01*
X47742Y-43021D01*
X47697Y-43036D01*
X47682Y-43051D01*
X47562Y-43051D02*
X47547Y-43036D01*
X47517Y-43021D01*
X47442Y-43021D01*
X47412Y-43036D01*
X47397Y-43051D01*
X47382Y-43081D01*
X47382Y-43111D01*
X47397Y-43156D01*
X47577Y-43336D01*
X47382Y-43336D01*
X47112Y-43126D02*
X47112Y-43336D01*
X47187Y-43006D02*
X47262Y-43231D01*
X47067Y-43231D01*
X49848Y-49900D02*
X49863Y-49915D01*
X49908Y-49930D01*
X49938Y-49930D01*
X49983Y-49915D01*
X50013Y-49885D01*
X50028Y-49855D01*
X50043Y-49795D01*
X50043Y-49750D01*
X50028Y-49690D01*
X50013Y-49660D01*
X49983Y-49630D01*
X49938Y-49615D01*
X49908Y-49615D01*
X49863Y-49630D01*
X49848Y-49645D01*
X49728Y-49645D02*
X49713Y-49630D01*
X49683Y-49615D01*
X49608Y-49615D01*
X49578Y-49630D01*
X49563Y-49645D01*
X49548Y-49675D01*
X49548Y-49705D01*
X49563Y-49750D01*
X49743Y-49930D01*
X49548Y-49930D01*
X49443Y-49615D02*
X49233Y-49615D01*
X49368Y-49930D01*
X51048Y-42656D02*
X51063Y-42671D01*
X51108Y-42686D01*
X51138Y-42686D01*
X51183Y-42671D01*
X51213Y-42641D01*
X51228Y-42611D01*
X51243Y-42551D01*
X51243Y-42506D01*
X51228Y-42446D01*
X51213Y-42416D01*
X51183Y-42386D01*
X51138Y-42371D01*
X51108Y-42371D01*
X51063Y-42386D01*
X51048Y-42401D01*
X50928Y-42401D02*
X50913Y-42386D01*
X50883Y-42371D01*
X50808Y-42371D01*
X50778Y-42386D01*
X50763Y-42401D01*
X50748Y-42431D01*
X50748Y-42461D01*
X50763Y-42506D01*
X50943Y-42686D01*
X50748Y-42686D01*
X50568Y-42506D02*
X50598Y-42491D01*
X50613Y-42476D01*
X50628Y-42446D01*
X50628Y-42431D01*
X50613Y-42401D01*
X50598Y-42386D01*
X50568Y-42371D01*
X50508Y-42371D01*
X50479Y-42386D01*
X50464Y-42401D01*
X50449Y-42431D01*
X50449Y-42446D01*
X50464Y-42476D01*
X50479Y-42491D01*
X50508Y-42506D01*
X50568Y-42506D01*
X50598Y-42521D01*
X50613Y-42536D01*
X50628Y-42566D01*
X50628Y-42626D01*
X50613Y-42656D01*
X50598Y-42671D01*
X50568Y-42686D01*
X50508Y-42686D01*
X50479Y-42671D01*
X50464Y-42656D01*
X50449Y-42626D01*
X50449Y-42566D01*
X50464Y-42536D01*
X50479Y-42521D01*
X50508Y-42506D01*
X50655Y-53788D02*
X50760Y-53638D01*
X50835Y-53788D02*
X50835Y-53473D01*
X50715Y-53473D01*
X50685Y-53488D01*
X50670Y-53503D01*
X50655Y-53533D01*
X50655Y-53578D01*
X50670Y-53608D01*
X50685Y-53623D01*
X50715Y-53638D01*
X50835Y-53638D01*
X50535Y-53503D02*
X50520Y-53488D01*
X50490Y-53473D01*
X50415Y-53473D01*
X50385Y-53488D01*
X50370Y-53503D01*
X50355Y-53533D01*
X50355Y-53563D01*
X50370Y-53608D01*
X50550Y-53788D01*
X50355Y-53788D01*
X50055Y-53788D02*
X50235Y-53788D01*
X50145Y-53788D02*
X50145Y-53473D01*
X50175Y-53518D01*
X50205Y-53548D01*
X50235Y-53563D01*
X43174Y-42695D02*
X43189Y-42710D01*
X43234Y-42725D01*
X43264Y-42725D01*
X43309Y-42710D01*
X43339Y-42680D01*
X43354Y-42650D01*
X43369Y-42590D01*
X43369Y-42545D01*
X43354Y-42485D01*
X43339Y-42455D01*
X43309Y-42425D01*
X43264Y-42410D01*
X43234Y-42410D01*
X43189Y-42425D01*
X43174Y-42440D01*
X43054Y-42440D02*
X43039Y-42425D01*
X43009Y-42410D01*
X42934Y-42410D01*
X42904Y-42425D01*
X42889Y-42440D01*
X42874Y-42470D01*
X42874Y-42500D01*
X42889Y-42545D01*
X43069Y-42725D01*
X42874Y-42725D01*
X42574Y-42725D02*
X42754Y-42725D01*
X42664Y-42725D02*
X42664Y-42410D01*
X42694Y-42455D01*
X42724Y-42485D01*
X42754Y-42500D01*
X43615Y-52942D02*
X43720Y-52792D01*
X43795Y-52942D02*
X43795Y-52627D01*
X43675Y-52627D01*
X43645Y-52642D01*
X43630Y-52657D01*
X43615Y-52687D01*
X43615Y-52732D01*
X43630Y-52762D01*
X43645Y-52777D01*
X43675Y-52792D01*
X43795Y-52792D01*
X43495Y-52657D02*
X43480Y-52642D01*
X43450Y-52627D01*
X43375Y-52627D01*
X43345Y-52642D01*
X43330Y-52657D01*
X43315Y-52687D01*
X43315Y-52717D01*
X43330Y-52762D01*
X43510Y-52942D01*
X43315Y-52942D01*
X51005Y-52495D02*
X51020Y-52510D01*
X51065Y-52525D01*
X51095Y-52525D01*
X51140Y-52510D01*
X51170Y-52480D01*
X51185Y-52450D01*
X51200Y-52390D01*
X51200Y-52345D01*
X51185Y-52285D01*
X51170Y-52255D01*
X51140Y-52225D01*
X51095Y-52210D01*
X51065Y-52210D01*
X51020Y-52225D01*
X51005Y-52240D01*
X50705Y-52525D02*
X50885Y-52525D01*
X50795Y-52525D02*
X50795Y-52210D01*
X50825Y-52255D01*
X50855Y-52285D01*
X50885Y-52300D01*
X50435Y-52210D02*
X50495Y-52210D01*
X50525Y-52225D01*
X50540Y-52240D01*
X50570Y-52285D01*
X50585Y-52345D01*
X50585Y-52465D01*
X50570Y-52495D01*
X50555Y-52510D01*
X50525Y-52525D01*
X50465Y-52525D01*
X50435Y-52510D01*
X50420Y-52495D01*
X50405Y-52465D01*
X50405Y-52390D01*
X50420Y-52360D01*
X50435Y-52345D01*
X50465Y-52330D01*
X50525Y-52330D01*
X50555Y-52345D01*
X50570Y-52360D01*
X50585Y-52390D01*
X49848Y-51593D02*
X49863Y-51608D01*
X49908Y-51623D01*
X49938Y-51623D01*
X49983Y-51608D01*
X50013Y-51578D01*
X50028Y-51548D01*
X50043Y-51488D01*
X50043Y-51443D01*
X50028Y-51383D01*
X50013Y-51353D01*
X49983Y-51323D01*
X49938Y-51308D01*
X49908Y-51308D01*
X49863Y-51323D01*
X49848Y-51338D01*
X49548Y-51623D02*
X49728Y-51623D01*
X49638Y-51623D02*
X49638Y-51308D01*
X49668Y-51353D01*
X49698Y-51383D01*
X49728Y-51398D01*
X49443Y-51308D02*
X49248Y-51308D01*
X49353Y-51428D01*
X49308Y-51428D01*
X49278Y-51443D01*
X49263Y-51458D01*
X49248Y-51488D01*
X49248Y-51563D01*
X49263Y-51593D01*
X49278Y-51608D01*
X49308Y-51623D01*
X49398Y-51623D01*
X49428Y-51608D01*
X49443Y-51593D01*
X50753Y-50777D02*
X50858Y-50627D01*
X50933Y-50777D02*
X50933Y-50462D01*
X50813Y-50462D01*
X50783Y-50477D01*
X50768Y-50492D01*
X50753Y-50522D01*
X50753Y-50567D01*
X50768Y-50597D01*
X50783Y-50612D01*
X50813Y-50627D01*
X50933Y-50627D01*
X50453Y-50777D02*
X50633Y-50777D01*
X50543Y-50777D02*
X50543Y-50462D01*
X50573Y-50507D01*
X50603Y-50537D01*
X50633Y-50552D01*
X50153Y-50777D02*
X50333Y-50777D01*
X50243Y-50777D02*
X50243Y-50462D01*
X50273Y-50507D01*
X50303Y-50537D01*
X50333Y-50552D01*
X48013Y-53243D02*
X48028Y-53258D01*
X48073Y-53273D01*
X48103Y-53273D01*
X48148Y-53258D01*
X48178Y-53228D01*
X48193Y-53198D01*
X48208Y-53138D01*
X48208Y-53093D01*
X48193Y-53033D01*
X48178Y-53003D01*
X48148Y-52973D01*
X48103Y-52958D01*
X48073Y-52958D01*
X48028Y-52973D01*
X48013Y-52988D01*
X47713Y-53273D02*
X47893Y-53273D01*
X47803Y-53273D02*
X47803Y-52958D01*
X47833Y-53003D01*
X47863Y-53033D01*
X47893Y-53048D01*
X47413Y-53273D02*
X47593Y-53273D01*
X47503Y-53273D02*
X47503Y-52958D01*
X47533Y-53003D01*
X47563Y-53033D01*
X47593Y-53048D01*
X47863Y-54375D02*
X47968Y-54225D01*
X48043Y-54375D02*
X48043Y-54060D01*
X47923Y-54060D01*
X47893Y-54075D01*
X47878Y-54090D01*
X47863Y-54120D01*
X47863Y-54165D01*
X47878Y-54195D01*
X47893Y-54210D01*
X47923Y-54225D01*
X48043Y-54225D01*
X47758Y-54060D02*
X47548Y-54060D01*
X47683Y-54375D01*
X49300Y-54375D02*
X49405Y-54225D01*
X49480Y-54375D02*
X49480Y-54060D01*
X49360Y-54060D01*
X49330Y-54075D01*
X49315Y-54090D01*
X49300Y-54120D01*
X49300Y-54165D01*
X49315Y-54195D01*
X49330Y-54210D01*
X49360Y-54225D01*
X49480Y-54225D01*
X49015Y-54060D02*
X49165Y-54060D01*
X49180Y-54210D01*
X49165Y-54195D01*
X49135Y-54180D01*
X49060Y-54180D01*
X49030Y-54195D01*
X49015Y-54210D01*
X49000Y-54240D01*
X49000Y-54315D01*
X49015Y-54345D01*
X49030Y-54360D01*
X49060Y-54375D01*
X49135Y-54375D01*
X49165Y-54360D01*
X49180Y-54345D01*
X51852Y-55458D02*
X51957Y-55308D01*
X52032Y-55458D02*
X52032Y-55143D01*
X51912Y-55143D01*
X51882Y-55158D01*
X51867Y-55173D01*
X51852Y-55203D01*
X51852Y-55248D01*
X51867Y-55278D01*
X51882Y-55293D01*
X51912Y-55308D01*
X52032Y-55308D01*
X51732Y-55173D02*
X51717Y-55158D01*
X51687Y-55143D01*
X51612Y-55143D01*
X51582Y-55158D01*
X51567Y-55173D01*
X51552Y-55203D01*
X51552Y-55233D01*
X51567Y-55278D01*
X51747Y-55458D01*
X51552Y-55458D01*
X51282Y-55248D02*
X51282Y-55458D01*
X51357Y-55128D02*
X51432Y-55353D01*
X51237Y-55353D01*
X51875Y-54349D02*
X51890Y-54364D01*
X51935Y-54379D01*
X51965Y-54379D01*
X52010Y-54364D01*
X52040Y-54334D01*
X52055Y-54304D01*
X52070Y-54244D01*
X52070Y-54199D01*
X52055Y-54139D01*
X52040Y-54109D01*
X52010Y-54079D01*
X51965Y-54064D01*
X51935Y-54064D01*
X51890Y-54079D01*
X51875Y-54094D01*
X51755Y-54094D02*
X51740Y-54079D01*
X51710Y-54064D01*
X51635Y-54064D01*
X51605Y-54079D01*
X51590Y-54094D01*
X51575Y-54124D01*
X51575Y-54154D01*
X51590Y-54199D01*
X51770Y-54379D01*
X51575Y-54379D01*
X51290Y-54064D02*
X51440Y-54064D01*
X51455Y-54214D01*
X51440Y-54199D01*
X51410Y-54184D01*
X51335Y-54184D01*
X51305Y-54199D01*
X51290Y-54214D01*
X51275Y-54244D01*
X51275Y-54319D01*
X51290Y-54349D01*
X51305Y-54364D01*
X51335Y-54379D01*
X51410Y-54379D01*
X51440Y-54364D01*
X51455Y-54349D01*
X54415Y-54349D02*
X54430Y-54364D01*
X54475Y-54379D01*
X54505Y-54379D01*
X54550Y-54364D01*
X54580Y-54334D01*
X54595Y-54304D01*
X54610Y-54244D01*
X54610Y-54199D01*
X54595Y-54139D01*
X54580Y-54109D01*
X54550Y-54079D01*
X54505Y-54064D01*
X54475Y-54064D01*
X54430Y-54079D01*
X54415Y-54094D01*
X54295Y-54094D02*
X54280Y-54079D01*
X54250Y-54064D01*
X54175Y-54064D01*
X54145Y-54079D01*
X54130Y-54094D01*
X54115Y-54124D01*
X54115Y-54154D01*
X54130Y-54199D01*
X54310Y-54379D01*
X54115Y-54379D01*
X54010Y-54064D02*
X53815Y-54064D01*
X53920Y-54184D01*
X53875Y-54184D01*
X53845Y-54199D01*
X53830Y-54214D01*
X53815Y-54244D01*
X53815Y-54319D01*
X53830Y-54349D01*
X53845Y-54364D01*
X53875Y-54379D01*
X53965Y-54379D01*
X53995Y-54364D01*
X54010Y-54349D01*
X53289Y-54375D02*
X53394Y-54225D01*
X53469Y-54375D02*
X53469Y-54060D01*
X53349Y-54060D01*
X53319Y-54075D01*
X53304Y-54090D01*
X53289Y-54120D01*
X53289Y-54165D01*
X53304Y-54195D01*
X53319Y-54210D01*
X53349Y-54225D01*
X53469Y-54225D01*
X53169Y-54090D02*
X53154Y-54075D01*
X53124Y-54060D01*
X53049Y-54060D01*
X53019Y-54075D01*
X53004Y-54090D01*
X52989Y-54120D01*
X52989Y-54150D01*
X53004Y-54195D01*
X53184Y-54375D01*
X52989Y-54375D01*
X52704Y-54060D02*
X52854Y-54060D01*
X52869Y-54210D01*
X52854Y-54195D01*
X52824Y-54180D01*
X52749Y-54180D01*
X52719Y-54195D01*
X52704Y-54210D01*
X52689Y-54240D01*
X52689Y-54315D01*
X52704Y-54345D01*
X52719Y-54360D01*
X52749Y-54375D01*
X52824Y-54375D01*
X52854Y-54360D01*
X52869Y-54345D01*
X48064Y-50954D02*
X48169Y-50804D01*
X48244Y-50954D02*
X48244Y-50639D01*
X48124Y-50639D01*
X48094Y-50654D01*
X48079Y-50669D01*
X48064Y-50699D01*
X48064Y-50744D01*
X48079Y-50774D01*
X48094Y-50789D01*
X48124Y-50804D01*
X48244Y-50804D01*
X47914Y-50954D02*
X47854Y-50954D01*
X47824Y-50939D01*
X47809Y-50924D01*
X47779Y-50879D01*
X47764Y-50819D01*
X47764Y-50699D01*
X47779Y-50669D01*
X47794Y-50654D01*
X47824Y-50639D01*
X47884Y-50639D01*
X47914Y-50654D01*
X47929Y-50669D01*
X47944Y-50699D01*
X47944Y-50774D01*
X47929Y-50804D01*
X47914Y-50819D01*
X47884Y-50834D01*
X47824Y-50834D01*
X47794Y-50819D01*
X47779Y-50804D01*
X47764Y-50774D01*
X48080Y-52101D02*
X48095Y-52116D01*
X48140Y-52131D01*
X48170Y-52131D01*
X48215Y-52116D01*
X48245Y-52086D01*
X48260Y-52056D01*
X48275Y-51996D01*
X48275Y-51951D01*
X48260Y-51891D01*
X48245Y-51861D01*
X48215Y-51831D01*
X48170Y-51816D01*
X48140Y-51816D01*
X48095Y-51831D01*
X48080Y-51846D01*
X47930Y-52131D02*
X47870Y-52131D01*
X47840Y-52116D01*
X47825Y-52101D01*
X47795Y-52056D01*
X47780Y-51996D01*
X47780Y-51876D01*
X47795Y-51846D01*
X47810Y-51831D01*
X47840Y-51816D01*
X47900Y-51816D01*
X47930Y-51831D01*
X47945Y-51846D01*
X47960Y-51876D01*
X47960Y-51951D01*
X47945Y-51981D01*
X47930Y-51996D01*
X47900Y-52011D01*
X47840Y-52011D01*
X47810Y-51996D01*
X47795Y-51981D01*
X47780Y-51951D01*
X55556Y-51938D02*
X55661Y-51788D01*
X55736Y-51938D02*
X55736Y-51623D01*
X55616Y-51623D01*
X55586Y-51638D01*
X55571Y-51653D01*
X55556Y-51683D01*
X55556Y-51728D01*
X55571Y-51758D01*
X55586Y-51773D01*
X55616Y-51788D01*
X55736Y-51788D01*
X55436Y-51653D02*
X55421Y-51638D01*
X55391Y-51623D01*
X55316Y-51623D01*
X55286Y-51638D01*
X55271Y-51653D01*
X55256Y-51683D01*
X55256Y-51713D01*
X55271Y-51758D01*
X55451Y-51938D01*
X55256Y-51938D01*
X55136Y-51653D02*
X55121Y-51638D01*
X55091Y-51623D01*
X55016Y-51623D01*
X54986Y-51638D01*
X54971Y-51653D01*
X54956Y-51683D01*
X54956Y-51713D01*
X54971Y-51758D01*
X55151Y-51938D01*
X54956Y-51938D01*
X45859Y-53817D02*
X45874Y-53832D01*
X45919Y-53847D01*
X45949Y-53847D01*
X45994Y-53832D01*
X46024Y-53802D01*
X46039Y-53772D01*
X46054Y-53712D01*
X46054Y-53667D01*
X46039Y-53607D01*
X46024Y-53577D01*
X45994Y-53547D01*
X45949Y-53532D01*
X45919Y-53532D01*
X45874Y-53547D01*
X45859Y-53562D01*
X45574Y-53532D02*
X45724Y-53532D01*
X45739Y-53682D01*
X45724Y-53667D01*
X45694Y-53652D01*
X45619Y-53652D01*
X45589Y-53667D01*
X45574Y-53682D01*
X45559Y-53712D01*
X45559Y-53787D01*
X45574Y-53817D01*
X45589Y-53832D01*
X45619Y-53847D01*
X45694Y-53847D01*
X45724Y-53832D01*
X45739Y-53817D01*
X46686Y-53828D02*
X46791Y-53678D01*
X46866Y-53828D02*
X46866Y-53513D01*
X46746Y-53513D01*
X46716Y-53528D01*
X46701Y-53543D01*
X46686Y-53573D01*
X46686Y-53618D01*
X46701Y-53648D01*
X46716Y-53663D01*
X46746Y-53678D01*
X46866Y-53678D01*
X46581Y-53513D02*
X46386Y-53513D01*
X46491Y-53633D01*
X46446Y-53633D01*
X46416Y-53648D01*
X46401Y-53663D01*
X46386Y-53693D01*
X46386Y-53768D01*
X46401Y-53798D01*
X46416Y-53813D01*
X46446Y-53828D01*
X46536Y-53828D01*
X46566Y-53813D01*
X46581Y-53798D01*
X55655Y-50038D02*
X55670Y-50053D01*
X55715Y-50068D01*
X55745Y-50068D01*
X55790Y-50053D01*
X55820Y-50023D01*
X55835Y-49993D01*
X55850Y-49933D01*
X55850Y-49888D01*
X55835Y-49828D01*
X55820Y-49798D01*
X55790Y-49768D01*
X55745Y-49753D01*
X55715Y-49753D01*
X55670Y-49768D01*
X55655Y-49783D01*
X55355Y-50068D02*
X55535Y-50068D01*
X55445Y-50068D02*
X55445Y-49753D01*
X55475Y-49798D01*
X55505Y-49828D01*
X55535Y-49843D01*
X55250Y-49753D02*
X55040Y-49753D01*
X55175Y-50068D01*
X54178Y-50068D02*
X54283Y-49918D01*
X54358Y-50068D02*
X54358Y-49753D01*
X54238Y-49753D01*
X54208Y-49768D01*
X54193Y-49783D01*
X54178Y-49813D01*
X54178Y-49858D01*
X54193Y-49888D01*
X54208Y-49903D01*
X54238Y-49918D01*
X54358Y-49918D01*
X53878Y-50068D02*
X54058Y-50068D01*
X53968Y-50068D02*
X53968Y-49753D01*
X53998Y-49798D01*
X54028Y-49828D01*
X54058Y-49843D01*
X53593Y-49753D02*
X53743Y-49753D01*
X53758Y-49903D01*
X53743Y-49888D01*
X53713Y-49873D01*
X53638Y-49873D01*
X53608Y-49888D01*
X53593Y-49903D01*
X53578Y-49933D01*
X53578Y-50008D01*
X53593Y-50038D01*
X53608Y-50053D01*
X53638Y-50068D01*
X53713Y-50068D01*
X53743Y-50053D01*
X53758Y-50038D01*
X44206Y-51249D02*
X44311Y-51099D01*
X44386Y-51249D02*
X44386Y-50934D01*
X44266Y-50934D01*
X44236Y-50949D01*
X44221Y-50964D01*
X44206Y-50994D01*
X44206Y-51039D01*
X44221Y-51069D01*
X44236Y-51084D01*
X44266Y-51099D01*
X44386Y-51099D01*
X43906Y-51249D02*
X44086Y-51249D01*
X43996Y-51249D02*
X43996Y-50934D01*
X44026Y-50979D01*
X44056Y-51009D01*
X44086Y-51024D01*
X46646Y-50609D02*
X46661Y-50624D01*
X46706Y-50639D01*
X46736Y-50639D01*
X46781Y-50624D01*
X46811Y-50594D01*
X46826Y-50564D01*
X46841Y-50504D01*
X46841Y-50459D01*
X46826Y-50399D01*
X46811Y-50369D01*
X46781Y-50339D01*
X46736Y-50324D01*
X46706Y-50324D01*
X46661Y-50339D01*
X46646Y-50354D01*
X46526Y-50354D02*
X46511Y-50339D01*
X46482Y-50324D01*
X46407Y-50324D01*
X46377Y-50339D01*
X46362Y-50354D01*
X46347Y-50384D01*
X46347Y-50414D01*
X46362Y-50459D01*
X46541Y-50639D01*
X46347Y-50639D01*
X52718Y-50064D02*
X52823Y-49914D01*
X52898Y-50064D02*
X52898Y-49749D01*
X52778Y-49749D01*
X52748Y-49764D01*
X52733Y-49779D01*
X52718Y-49809D01*
X52718Y-49854D01*
X52733Y-49884D01*
X52748Y-49899D01*
X52778Y-49914D01*
X52898Y-49914D01*
X52418Y-50064D02*
X52598Y-50064D01*
X52508Y-50064D02*
X52508Y-49749D01*
X52538Y-49794D01*
X52568Y-49824D01*
X52598Y-49839D01*
X52313Y-49749D02*
X52103Y-49749D01*
X52238Y-50064D01*
X55533Y-54178D02*
X55638Y-54028D01*
X55713Y-54178D02*
X55713Y-53863D01*
X55593Y-53863D01*
X55563Y-53878D01*
X55548Y-53893D01*
X55533Y-53923D01*
X55533Y-53968D01*
X55548Y-53998D01*
X55563Y-54013D01*
X55593Y-54028D01*
X55713Y-54028D01*
X55413Y-53893D02*
X55398Y-53878D01*
X55368Y-53863D01*
X55293Y-53863D01*
X55263Y-53878D01*
X55248Y-53893D01*
X55233Y-53923D01*
X55233Y-53953D01*
X55248Y-53998D01*
X55428Y-54178D01*
X55233Y-54178D01*
X55128Y-53863D02*
X54933Y-53863D01*
X55038Y-53983D01*
X54993Y-53983D01*
X54963Y-53998D01*
X54948Y-54013D01*
X54933Y-54043D01*
X54933Y-54118D01*
X54948Y-54148D01*
X54963Y-54163D01*
X54993Y-54178D01*
X55083Y-54178D01*
X55113Y-54163D01*
X55128Y-54148D01*
M02*
