G04 (created by PCBNEW (2012-nov-02)-testing) date Wed 09 Jan 2013 07:39:13 PM PST*
%MOIN*%
G04 Gerber Fmt 3.4, Leading zero omitted, Abs format*
%FSLAX34Y34*%
G01*
G70*
G90*
G04 APERTURE LIST*
%ADD10C,0.006*%
%ADD11C,0.00590551*%
%ADD12C,0.0787*%
%ADD13C,0.0512*%
%ADD14C,0.0748031*%
%ADD15C,0.0629921*%
%ADD16C,0.0433071*%
%ADD17R,0.036X0.036*%
%ADD18R,0.0472441X0.0561024*%
%ADD19R,0.0393701X0.0561024*%
%ADD20R,0.0393701X0.0669291*%
%ADD21R,0.02X0.045*%
%ADD22R,0.055X0.055*%
%ADD23C,0.055*%
%ADD24C,0.102362*%
%ADD25C,0.0590551*%
%ADD26C,0.0669291*%
%ADD27R,0.0472441X0.0708661*%
%ADD28R,0.023622X0.0590551*%
%ADD29R,0.2165X0.0787*%
%ADD30R,0.06X0.06*%
%ADD31C,0.06*%
%ADD32C,0.16*%
%ADD33R,0.055X0.035*%
%ADD34R,0.035X0.055*%
%ADD35R,0.15748X0.0590551*%
%ADD36R,0.0590551X0.15748*%
%ADD37R,0.05X0.1*%
%ADD38R,0.0393701X0.11811*%
%ADD39C,0.1181*%
%ADD40C,0.0591*%
%ADD41O,0.1378X0.0787*%
%ADD42O,0.177211X0.0787*%
%ADD43O,0.0787X0.1378*%
G04 APERTURE END LIST*
G54D10*
G54D11*
X65748Y-59055D02*
G75*
G03X66929Y-57874I0J1181D01*
G74*
G01*
X39370Y-57874D02*
G75*
G03X40551Y-59055I1181J0D01*
G74*
G01*
X40551Y-20078D02*
G75*
G03X39370Y-21259I0J-1181D01*
G74*
G01*
X66929Y-21259D02*
G75*
G03X65748Y-20078I-1181J0D01*
G74*
G01*
X40551Y-20078D02*
X65748Y-20078D01*
X40551Y-59055D02*
X65748Y-59055D01*
X66929Y-57874D02*
X66929Y-21259D01*
X39370Y-20866D02*
X39370Y-20885D01*
X39370Y-57874D02*
X39370Y-21259D01*
G54D12*
X56239Y-51437D03*
X54271Y-51437D03*
X44665Y-40708D03*
X44665Y-38740D03*
X47283Y-40728D03*
X47283Y-38760D03*
G54D13*
X42814Y-34094D03*
X41712Y-36062D03*
X59271Y-40177D03*
X61240Y-41279D03*
X54655Y-32991D03*
X52686Y-31889D03*
X53149Y-28188D03*
X52047Y-30157D03*
X61240Y-43306D03*
X59271Y-42204D03*
X44546Y-34124D03*
X46515Y-35226D03*
X46506Y-32066D03*
X44537Y-30964D03*
X50236Y-39291D03*
X49134Y-41260D03*
X44576Y-27854D03*
X46545Y-28956D03*
X42795Y-39291D03*
X41693Y-41260D03*
X44763Y-49015D03*
X44763Y-47834D03*
X41023Y-49842D03*
X41023Y-47007D03*
X44783Y-45059D03*
X44783Y-43877D03*
X41043Y-45885D03*
X41043Y-43051D03*
G54D14*
X43366Y-57834D03*
X41397Y-55866D03*
X44350Y-55866D03*
X42381Y-55866D03*
X45334Y-55866D03*
G54D15*
X43370Y-55866D03*
X41397Y-57834D03*
X45334Y-57834D03*
G54D14*
X60629Y-21299D03*
X62598Y-23267D03*
X59645Y-23267D03*
X61614Y-23267D03*
X58661Y-23267D03*
G54D15*
X60625Y-23267D03*
X62598Y-21299D03*
X58661Y-21299D03*
G54D16*
X58082Y-57267D03*
X58082Y-56267D03*
X59082Y-56267D03*
X59082Y-57267D03*
G54D17*
X49088Y-44877D03*
X49088Y-44177D03*
X49888Y-44527D03*
X45575Y-46056D03*
X46275Y-46056D03*
X45925Y-46856D03*
X52799Y-52080D03*
X53499Y-52080D03*
X53149Y-52880D03*
X42987Y-29986D03*
X42287Y-29986D03*
X42637Y-29186D03*
X42287Y-30958D03*
X42987Y-30958D03*
X42637Y-31758D03*
X43418Y-53342D03*
X43418Y-52642D03*
X44218Y-52992D03*
G54D18*
X51515Y-40078D03*
G54D19*
X52460Y-40078D03*
X52460Y-39064D03*
X51515Y-39064D03*
G54D18*
X47086Y-49015D03*
G54D19*
X48031Y-49015D03*
X48031Y-48001D03*
X47086Y-48001D03*
G54D20*
X48051Y-36092D03*
X49350Y-36092D03*
G54D21*
X51793Y-36407D03*
X51293Y-36407D03*
X50793Y-36407D03*
X50293Y-36407D03*
X50293Y-33907D03*
X50793Y-33907D03*
X51293Y-33907D03*
X51793Y-33907D03*
G54D22*
X64960Y-34720D03*
G54D23*
X64960Y-35720D03*
X64960Y-36720D03*
X64960Y-37720D03*
G54D22*
X64960Y-39838D03*
G54D23*
X64960Y-40838D03*
X64960Y-41838D03*
X64960Y-42838D03*
G54D22*
X64960Y-30496D03*
G54D23*
X64960Y-31496D03*
X64960Y-32496D03*
G54D22*
X49350Y-33661D03*
X61417Y-27795D03*
X56929Y-32480D03*
X51358Y-51181D03*
X56397Y-27696D03*
X52834Y-48956D03*
X64547Y-25551D03*
X54783Y-27696D03*
G54D24*
X46515Y-56023D03*
X49744Y-56023D03*
G54D25*
X47145Y-57322D03*
X48129Y-57322D03*
X49114Y-57322D03*
G54D26*
X54330Y-56909D03*
X57086Y-56909D03*
G54D25*
X54822Y-57893D03*
X56594Y-57893D03*
G54D26*
X50688Y-56909D03*
X53444Y-56909D03*
G54D25*
X51181Y-57893D03*
X52952Y-57893D03*
G54D27*
X54468Y-20590D03*
X57460Y-20590D03*
G54D28*
X56948Y-21988D03*
X56555Y-21988D03*
X56161Y-21988D03*
X55767Y-21988D03*
X55374Y-21988D03*
X54980Y-21988D03*
G54D24*
X65275Y-56456D03*
X60236Y-56456D03*
G54D15*
X61771Y-57834D03*
X62755Y-57834D03*
X63740Y-57834D03*
X61771Y-56850D03*
X63740Y-56850D03*
G54D23*
X45940Y-36269D03*
X43940Y-36269D03*
X43950Y-33100D03*
X45950Y-33100D03*
X45980Y-29980D03*
X43980Y-29980D03*
X43980Y-26830D03*
X45980Y-26830D03*
G54D13*
X52539Y-44901D03*
X52539Y-43759D03*
X46397Y-42716D03*
X45255Y-42716D03*
G54D29*
X51417Y-54488D03*
X55117Y-54488D03*
G54D30*
X64988Y-47850D03*
G54D31*
X63988Y-47850D03*
X64988Y-46850D03*
X63988Y-46850D03*
X64988Y-45850D03*
X63988Y-45850D03*
G54D32*
X41338Y-22047D03*
X64960Y-22047D03*
X41338Y-51968D03*
X64960Y-51968D03*
G54D33*
X43523Y-51536D03*
X43523Y-50786D03*
X47992Y-46831D03*
X47992Y-46081D03*
G54D34*
X45628Y-47952D03*
X46378Y-47952D03*
G54D33*
X45688Y-45138D03*
X45688Y-44388D03*
X44763Y-46930D03*
X44763Y-46180D03*
X46555Y-44388D03*
X46555Y-45138D03*
X47519Y-45138D03*
X47519Y-44388D03*
X47637Y-43209D03*
X47637Y-42459D03*
X47086Y-46831D03*
X47086Y-46081D03*
G54D34*
X46378Y-49015D03*
X45628Y-49015D03*
X50315Y-47893D03*
X49565Y-47893D03*
G54D33*
X48307Y-50827D03*
X48307Y-50077D03*
G54D34*
X47422Y-49862D03*
X46672Y-49862D03*
X51339Y-53051D03*
X50589Y-53051D03*
X50589Y-52204D03*
X51339Y-52204D03*
X52735Y-50826D03*
X53485Y-50826D03*
X48603Y-53838D03*
X47853Y-53838D03*
X49821Y-43110D03*
X50571Y-43110D03*
G54D33*
X42795Y-27065D03*
X42795Y-27815D03*
G54D34*
X43758Y-37677D03*
X44508Y-37677D03*
X46004Y-37677D03*
X45254Y-37677D03*
X46711Y-37677D03*
X47461Y-37677D03*
X48878Y-37677D03*
X48128Y-37677D03*
X51081Y-37677D03*
X51831Y-37677D03*
G54D33*
X50570Y-44922D03*
X50570Y-44172D03*
X51141Y-41199D03*
X51141Y-41949D03*
X52027Y-41949D03*
X52027Y-41199D03*
X52578Y-47166D03*
X52578Y-46416D03*
G54D34*
X50296Y-49015D03*
X49546Y-49015D03*
G54D33*
X52854Y-36851D03*
X52854Y-36101D03*
G54D34*
X51792Y-46515D03*
X51042Y-46515D03*
X49095Y-43110D03*
X48345Y-43110D03*
G54D33*
X50137Y-45884D03*
X50137Y-46634D03*
X49173Y-46634D03*
X49173Y-45884D03*
X48366Y-44922D03*
X48366Y-44172D03*
G54D34*
X46142Y-41437D03*
X45392Y-41437D03*
X44331Y-41732D03*
X43581Y-41732D03*
X52754Y-49744D03*
X53504Y-49744D03*
X54250Y-49744D03*
X55000Y-49744D03*
X54231Y-53070D03*
X54981Y-53070D03*
G54D33*
X50196Y-50886D03*
X50196Y-50136D03*
X48799Y-47853D03*
X48799Y-48603D03*
G54D35*
X44921Y-51948D03*
X47401Y-51948D03*
G54D36*
X49724Y-28100D03*
X49724Y-30580D03*
G54D37*
X49892Y-32362D03*
X51092Y-32362D03*
G54D23*
X48228Y-34582D03*
X48228Y-32582D03*
G54D35*
X59625Y-53267D03*
X57145Y-53267D03*
G54D38*
X49173Y-53090D03*
X49173Y-51397D03*
X51535Y-49980D03*
X51535Y-48287D03*
G54D39*
X44141Y-23314D03*
X48141Y-23314D03*
G54D40*
X46141Y-25314D03*
X45141Y-25314D03*
G54D41*
X51771Y-23247D03*
G54D42*
X51771Y-25649D03*
G54D43*
X49960Y-24507D03*
M02*
