M48
;DRILL file {Pcbnew (2012-nov-02)-testing} date Wed 09 Jan 2013 07:50:33 PM PST
;FORMAT={2:4/ absolute / inch / suppress leading zeros}
FMAT,2
INCH,TZ
T1C0.016
T2C0.028
T3C0.032
T4C0.035
T5C0.039
T6C0.039
T7C0.040
T8C0.051
T9C0.051
T10C0.079
T11C0.083
T12C0.120
%
G90
G05
M72
T1
X42835Y-25768
X45531Y-53169
X45984Y-38839
X46811Y-43642
X47067Y-53209
X47500Y-48996
X47776Y-50433
X48415Y-26427
X48681Y-51929
X48957Y-50492
X49075Y-32028
X50177Y-52461
X50630Y-47146
X50827Y-55295
X52028Y-49705
X52461Y-38169
X53051Y-47736
X53130Y-37500
X53760Y-48435
X53917Y-29154
X54222Y-48120
X55778Y-23415
X55807Y-43386
X55807Y-45925
X56161Y-23110
X56240Y-38848
X56240Y-47264
X56791Y-36654
X56791Y-43169
X56791Y-45807
X57087Y-55256
X57254Y-45443
X57441Y-50984
X57549Y-50531
X57785Y-50079
X57953Y-38150
X58602Y-44734
X58780Y-44390
X58917Y-48386
X59154Y-51811
X59252Y-44409
X59252Y-47972
X59488Y-47539
X59862Y-44173
X59872Y-46191
X60197Y-48268
X60295Y-51811
X60856Y-51821
X60965Y-44724
X61358Y-52165
X61417Y-38701
X61457Y-37362
X61703Y-47795
X61713Y-46860
X61831Y-34252
X62343Y-37362
X62815Y-52165
X62904Y-44094
X62913Y-44675
X63750Y-55423
X63819Y-38386
X63986Y-49508
X64350Y-38386
X64498Y-44715
T2
X58083Y-56268
X58083Y-57268
X59083Y-56268
X59083Y-57268
T3
X41024Y-47008
X41024Y-49843
X41043Y-43051
X41043Y-45886
X41693Y-41260
X41713Y-36063
X42795Y-39291
X42815Y-34094
X43941Y-36270
X43951Y-33100
X43980Y-26831
X43980Y-29980
X44537Y-30965
X44547Y-34124
X44577Y-27855
X44764Y-47835
X44764Y-49016
X44783Y-43878
X44783Y-45059
X45256Y-42717
X45941Y-36270
X45951Y-33100
X45980Y-26831
X45980Y-29980
X46398Y-42717
X46506Y-32067
X46516Y-35226
X46546Y-28957
X48228Y-32583
X48228Y-34583
X49134Y-41260
X49350Y-33661
X50236Y-39291
X51358Y-51181
X52047Y-30158
X52539Y-43760
X52539Y-44902
X52687Y-31890
X52835Y-48957
X53149Y-28189
X54656Y-32992
X54783Y-27697
X56398Y-27697
X56929Y-32480
X59271Y-40177
X59271Y-42205
X61240Y-41279
X61240Y-43307
X61417Y-27795
X64547Y-25551
X64961Y-30496
X64961Y-31496
X64961Y-32496
X64961Y-34720
X64961Y-35720
X64961Y-36720
X64961Y-37720
X64961Y-39839
X64961Y-40839
X64961Y-41839
X64961Y-42839
T4
X45142Y-25315
X46142Y-25315
T5
X47146Y-57323
X48130Y-57323
X49114Y-57323
X51181Y-57894
X52953Y-57894
X54823Y-57894
X56594Y-57894
X61772Y-56850
X61772Y-57835
X62756Y-57835
X63740Y-56850
X63740Y-57835
T7
X63988Y-45850
X63988Y-46850
X63988Y-47850
X64988Y-45850
X64988Y-46850
X64988Y-47850
T8
X41398Y-55866
X42382Y-55866
X43366Y-57835
X44350Y-55866
X45335Y-55866
X50689Y-56909
X53445Y-56909
X54331Y-56909
X57087Y-56909
X58661Y-23268
X59646Y-23268
X60630Y-21299
X61614Y-23268
X62598Y-23268
T9
X44665Y-38740
X44665Y-40708
X47283Y-38760
X47283Y-40728
X54272Y-51437
X56240Y-51437
T10
X44142Y-23315
X48142Y-23315
T11
X46516Y-56024
X49744Y-56024
X60236Y-56457
X65276Y-56457
T12
X41339Y-22047
X41339Y-51969
X64961Y-22047
X64961Y-51969
T6
X49961Y-24803G85X49961Y-24213
G05
X52067Y-23248G85X51477Y-23248
G05
X52264Y-25650G85X51280Y-25650
G05
T0
M30
