G04 (created by PCBNEW (2012-nov-02)-testing) date Wed 09 Jan 2013 07:39:13 PM PST*
%MOIN*%
G04 Gerber Fmt 3.4, Leading zero omitted, Abs format*
%FSLAX34Y34*%
G01*
G70*
G90*
G04 APERTURE LIST*
%ADD10C,0.006*%
%ADD11C,0.00590551*%
%ADD12R,0.0708661X0.0787402*%
%ADD13R,0.015748X0.0433071*%
%ADD14C,0.0787*%
%ADD15R,0.0787X0.0177*%
%ADD16R,0.0177X0.0787*%
%ADD17R,0.0472441X0.0472441*%
%ADD18R,0.0590551X0.0629921*%
%ADD19C,0.0512*%
%ADD20C,0.0748031*%
%ADD21C,0.0629921*%
%ADD22C,0.0433071*%
%ADD23R,0.02X0.03*%
%ADD24R,0.036X0.036*%
%ADD25R,0.0669291X0.0393701*%
%ADD26R,0.0255906X0.038189*%
%ADD27R,0.02X0.045*%
%ADD28R,0.045X0.02*%
%ADD29R,0.055X0.055*%
%ADD30C,0.055*%
%ADD31C,0.102362*%
%ADD32C,0.0590551*%
%ADD33C,0.0669291*%
%ADD34R,0.0787X0.2165*%
%ADD35R,0.06X0.06*%
%ADD36C,0.06*%
%ADD37C,0.16*%
%ADD38R,0.035X0.055*%
%ADD39R,0.055X0.035*%
%ADD40C,0.1181*%
%ADD41C,0.0591*%
%ADD42O,0.1378X0.0787*%
%ADD43O,0.177211X0.0787*%
%ADD44O,0.0787X0.1378*%
G04 APERTURE END LIST*
G54D10*
G54D11*
X65748Y-59055D02*
G75*
G03X66929Y-57874I0J1181D01*
G74*
G01*
X39370Y-57874D02*
G75*
G03X40551Y-59055I1181J0D01*
G74*
G01*
X40551Y-20078D02*
G75*
G03X39370Y-21259I0J-1181D01*
G74*
G01*
X66929Y-21259D02*
G75*
G03X65748Y-20078I-1181J0D01*
G74*
G01*
X40551Y-20078D02*
X65748Y-20078D01*
X40551Y-59055D02*
X65748Y-59055D01*
X66929Y-57874D02*
X66929Y-21259D01*
X39370Y-20866D02*
X39370Y-20885D01*
X39370Y-57874D02*
X39370Y-21259D01*
G54D12*
X59984Y-30629D03*
X61984Y-30629D03*
X61984Y-32204D03*
X59984Y-32204D03*
G54D13*
X60343Y-36013D03*
X60600Y-36013D03*
X60856Y-36013D03*
X61112Y-36013D03*
X61368Y-36013D03*
X61624Y-36013D03*
X61879Y-36013D03*
X62135Y-36013D03*
X62391Y-36013D03*
X62647Y-36013D03*
X62647Y-38041D03*
X62391Y-38041D03*
X62135Y-38041D03*
X61879Y-38041D03*
X61624Y-38041D03*
X61368Y-38041D03*
X61112Y-38041D03*
X60856Y-38041D03*
X60600Y-38041D03*
X60344Y-38041D03*
G54D14*
X56239Y-51437D03*
X54271Y-51437D03*
X44665Y-40708D03*
X44665Y-38740D03*
X47283Y-40728D03*
X47283Y-38760D03*
G54D15*
X57198Y-46229D03*
X57198Y-46544D03*
X57198Y-46859D03*
X57198Y-47174D03*
X57198Y-47489D03*
X57198Y-47804D03*
X57198Y-48119D03*
X57198Y-48434D03*
X60964Y-48432D03*
X60964Y-46222D03*
X60964Y-46542D03*
X60964Y-46862D03*
X60964Y-47172D03*
X60964Y-47492D03*
X60964Y-47802D03*
X60964Y-48122D03*
G54D16*
X57982Y-49222D03*
X58296Y-49222D03*
X58612Y-49222D03*
X58926Y-49222D03*
X59242Y-49222D03*
X59556Y-49222D03*
X59872Y-49222D03*
X60186Y-49222D03*
X57984Y-45442D03*
X58294Y-45442D03*
X58614Y-45442D03*
X58924Y-45442D03*
X59234Y-45442D03*
X59554Y-45442D03*
X59874Y-45442D03*
X60194Y-45442D03*
G54D17*
X53208Y-47185D03*
X53208Y-46397D03*
G54D18*
X54488Y-46791D03*
G54D19*
X42814Y-34094D03*
X41712Y-36062D03*
X59271Y-40177D03*
X61240Y-41279D03*
X54655Y-32991D03*
X52686Y-31889D03*
X53149Y-28188D03*
X52047Y-30157D03*
X61240Y-43306D03*
X59271Y-42204D03*
X44546Y-34124D03*
X46515Y-35226D03*
X46506Y-32066D03*
X44537Y-30964D03*
X50236Y-39291D03*
X49134Y-41260D03*
X44576Y-27854D03*
X46545Y-28956D03*
X42795Y-39291D03*
X41693Y-41260D03*
X44763Y-49015D03*
X44763Y-47834D03*
X41023Y-49842D03*
X41023Y-47007D03*
X44783Y-45059D03*
X44783Y-43877D03*
X41043Y-45885D03*
X41043Y-43051D03*
G54D20*
X43366Y-57834D03*
X41397Y-55866D03*
X44350Y-55866D03*
X42381Y-55866D03*
X45334Y-55866D03*
G54D21*
X43370Y-55866D03*
X41397Y-57834D03*
X45334Y-57834D03*
G54D20*
X60629Y-21299D03*
X62598Y-23267D03*
X59645Y-23267D03*
X61614Y-23267D03*
X58661Y-23267D03*
G54D21*
X60625Y-23267D03*
X62598Y-21299D03*
X58661Y-21299D03*
G54D22*
X58082Y-57267D03*
X58082Y-56267D03*
X59082Y-56267D03*
X59082Y-57267D03*
G54D23*
X56416Y-37157D03*
X57166Y-37157D03*
X56416Y-38157D03*
X56791Y-37157D03*
X57166Y-38157D03*
X57735Y-27275D03*
X58485Y-27275D03*
X57735Y-28275D03*
X58110Y-27275D03*
X58485Y-28275D03*
X62656Y-27354D03*
X63406Y-27354D03*
X62656Y-28354D03*
X63031Y-27354D03*
X63406Y-28354D03*
G54D24*
X45949Y-53175D03*
X46649Y-53175D03*
X46299Y-52375D03*
X45054Y-53261D03*
X44354Y-53261D03*
X44704Y-54061D03*
X54789Y-25605D03*
X54789Y-24905D03*
X53989Y-25255D03*
X45664Y-51725D03*
X44964Y-51725D03*
X45314Y-52525D03*
G54D25*
X55698Y-24606D03*
X55698Y-25905D03*
G54D26*
X43503Y-52578D03*
X43503Y-51208D03*
G54D27*
X51986Y-53690D03*
X52486Y-53690D03*
X52986Y-53690D03*
X53486Y-53690D03*
X53486Y-51190D03*
X52986Y-51190D03*
X52486Y-51190D03*
X51986Y-51190D03*
G54D28*
X50916Y-27820D03*
X50916Y-28320D03*
X50916Y-28820D03*
X50916Y-29320D03*
X50916Y-29820D03*
X50916Y-30320D03*
X50916Y-30820D03*
X48416Y-30820D03*
X48416Y-30320D03*
X48416Y-29320D03*
X48416Y-28820D03*
X48416Y-28320D03*
X48416Y-27820D03*
X48416Y-29820D03*
G54D29*
X64960Y-34720D03*
G54D30*
X64960Y-35720D03*
X64960Y-36720D03*
X64960Y-37720D03*
G54D29*
X64960Y-39838D03*
G54D30*
X64960Y-40838D03*
X64960Y-41838D03*
X64960Y-42838D03*
G54D29*
X64960Y-30496D03*
G54D30*
X64960Y-31496D03*
X64960Y-32496D03*
G54D29*
X49350Y-33661D03*
X61417Y-27795D03*
X56929Y-32480D03*
X51358Y-51181D03*
X56397Y-27696D03*
X52834Y-48956D03*
X64547Y-25551D03*
X54783Y-27696D03*
G54D31*
X46515Y-56023D03*
X49744Y-56023D03*
G54D32*
X47145Y-57322D03*
X48129Y-57322D03*
X49114Y-57322D03*
G54D33*
X54330Y-56909D03*
X57086Y-56909D03*
G54D32*
X54822Y-57893D03*
X56594Y-57893D03*
G54D33*
X50688Y-56909D03*
X53444Y-56909D03*
G54D32*
X51181Y-57893D03*
X52952Y-57893D03*
G54D31*
X65275Y-56456D03*
X60236Y-56456D03*
G54D21*
X61771Y-57834D03*
X62755Y-57834D03*
X63740Y-57834D03*
X61771Y-56850D03*
X63740Y-56850D03*
G54D30*
X45940Y-36269D03*
X43940Y-36269D03*
X43950Y-33100D03*
X45950Y-33100D03*
X45980Y-29980D03*
X43980Y-29980D03*
X43980Y-26830D03*
X45980Y-26830D03*
G54D19*
X52539Y-44901D03*
X52539Y-43759D03*
X46397Y-42716D03*
X45255Y-42716D03*
G54D34*
X43366Y-45394D03*
X43366Y-49094D03*
X46161Y-49094D03*
X46161Y-45394D03*
X48720Y-45394D03*
X48720Y-49094D03*
X51181Y-49094D03*
X51181Y-45394D03*
G54D35*
X64988Y-47850D03*
G54D36*
X63988Y-47850D03*
X64988Y-46850D03*
X63988Y-46850D03*
X64988Y-45850D03*
X63988Y-45850D03*
G54D37*
X41338Y-22047D03*
X64960Y-22047D03*
X41338Y-51968D03*
X64960Y-51968D03*
G54D38*
X55963Y-45177D03*
X56713Y-45177D03*
X63091Y-34803D03*
X62341Y-34803D03*
X55158Y-44055D03*
X54408Y-44055D03*
X55729Y-55669D03*
X54979Y-55669D03*
G54D39*
X53582Y-45276D03*
X53582Y-44526D03*
G54D38*
X54408Y-45177D03*
X55158Y-45177D03*
G54D39*
X62539Y-47579D03*
X62539Y-46829D03*
G54D38*
X56713Y-44055D03*
X55963Y-44055D03*
X58308Y-44055D03*
X57558Y-44055D03*
G54D39*
X55629Y-47658D03*
X55629Y-46908D03*
G54D38*
X53780Y-30531D03*
X53030Y-30531D03*
G54D39*
X55718Y-30934D03*
X55718Y-31684D03*
X56929Y-31103D03*
X56929Y-30353D03*
X55718Y-29162D03*
X55718Y-29912D03*
G54D38*
X48896Y-53661D03*
X49646Y-53661D03*
X54979Y-53464D03*
X55729Y-53464D03*
X55687Y-33897D03*
X56437Y-33897D03*
G54D39*
X62736Y-40530D03*
X62736Y-41280D03*
G54D38*
X56947Y-42598D03*
X57697Y-42598D03*
X57697Y-41437D03*
X56947Y-41437D03*
X55687Y-36082D03*
X56437Y-36082D03*
X57697Y-40236D03*
X56947Y-40236D03*
X57380Y-33897D03*
X58130Y-33897D03*
X57380Y-35000D03*
X58130Y-35000D03*
X58130Y-36082D03*
X57380Y-36082D03*
X55687Y-35000D03*
X56437Y-35000D03*
X60235Y-39311D03*
X60985Y-39311D03*
X64882Y-28346D03*
X64132Y-28346D03*
X60138Y-28267D03*
X59388Y-28267D03*
X63406Y-29389D03*
X62656Y-29389D03*
X58485Y-29311D03*
X57735Y-29311D03*
X64882Y-27185D03*
X64132Y-27185D03*
X60138Y-27125D03*
X59388Y-27125D03*
X54132Y-23976D03*
X54882Y-23976D03*
G54D39*
X54566Y-29152D03*
X54566Y-29902D03*
G54D38*
X63091Y-33681D03*
X62341Y-33681D03*
G54D39*
X62893Y-50335D03*
X62893Y-49585D03*
G54D38*
X62619Y-51574D03*
X61869Y-51574D03*
X61869Y-52755D03*
X62619Y-52755D03*
X60296Y-51122D03*
X59546Y-51122D03*
X58030Y-51122D03*
X58780Y-51122D03*
X61691Y-45334D03*
X62441Y-45334D03*
X61711Y-44094D03*
X62461Y-44094D03*
G54D39*
X54566Y-30934D03*
X54566Y-31684D03*
X61771Y-50335D03*
X61771Y-49585D03*
G54D38*
X59725Y-33681D03*
X58975Y-33681D03*
X61359Y-34803D03*
X60609Y-34803D03*
G54D39*
X59448Y-36733D03*
X59448Y-35983D03*
G54D38*
X60609Y-33681D03*
X61359Y-33681D03*
X58975Y-34803D03*
X59725Y-34803D03*
X59508Y-38129D03*
X58758Y-38129D03*
X58758Y-39311D03*
X59508Y-39311D03*
X61770Y-39311D03*
X62520Y-39311D03*
G54D39*
X44783Y-50195D03*
X44783Y-50945D03*
X47460Y-44390D03*
X47460Y-43640D03*
X49665Y-50254D03*
X49665Y-51004D03*
G54D38*
X50432Y-43110D03*
X51182Y-43110D03*
G54D39*
X50452Y-54863D03*
X50452Y-54113D03*
G54D38*
X43386Y-43169D03*
X42636Y-43169D03*
G54D39*
X43582Y-53247D03*
X43582Y-53997D03*
G54D38*
X51201Y-52913D03*
X50451Y-52913D03*
G54D39*
X49625Y-51888D03*
X49625Y-52638D03*
X50551Y-51851D03*
X50551Y-51101D03*
G54D38*
X48209Y-53661D03*
X47459Y-53661D03*
X48209Y-54763D03*
X47459Y-54763D03*
X49646Y-54763D03*
X48896Y-54763D03*
X52048Y-55846D03*
X51298Y-55846D03*
X51298Y-54763D03*
X52048Y-54763D03*
G54D39*
X54212Y-54684D03*
X54212Y-55434D03*
G54D38*
X53485Y-54763D03*
X52735Y-54763D03*
X47676Y-51358D03*
X48426Y-51358D03*
X48426Y-52519D03*
X47676Y-52519D03*
X54979Y-52322D03*
X55729Y-52322D03*
G54D39*
X45826Y-54113D03*
X45826Y-54863D03*
X46653Y-54113D03*
X46653Y-54863D03*
G54D38*
X55058Y-50452D03*
X55808Y-50452D03*
X53601Y-50452D03*
X54351Y-50452D03*
G54D39*
X44271Y-52304D03*
X44271Y-51554D03*
G54D38*
X46239Y-51023D03*
X46989Y-51023D03*
X52914Y-50452D03*
X52164Y-50452D03*
X55729Y-54566D03*
X54979Y-54566D03*
G54D30*
X48228Y-34582D03*
X48228Y-32582D03*
G54D40*
X44141Y-23314D03*
X48141Y-23314D03*
G54D41*
X46141Y-25314D03*
X45141Y-25314D03*
G54D42*
X51771Y-23247D03*
G54D43*
X51771Y-25649D03*
G54D44*
X49960Y-24507D03*
M02*
