G04 (created by PCBNEW (2012-nov-02)-testing) date Wed 09 Jan 2013 07:39:13 PM PST*
%MOIN*%
G04 Gerber Fmt 3.4, Leading zero omitted, Abs format*
%FSLAX34Y34*%
G01*
G70*
G90*
G04 APERTURE LIST*
%ADD10C,0.006*%
%ADD11C,0.00885827*%
%ADD12C,0.00590551*%
%ADD13C,0.015*%
%ADD14C,0.0047*%
%ADD15C,0.00984252*%
%ADD16C,0.005*%
%ADD17C,0.012*%
%ADD18C,0.0125*%
%ADD19C,0.008*%
%ADD20C,0.0039*%
%ADD21C,0.0001*%
%ADD22C,0.00787402*%
%ADD23C,0.0051*%
%ADD24C,0.00472441*%
G04 APERTURE END LIST*
G54D10*
G54D11*
X58261Y-35658D02*
X58287Y-35674D01*
X58313Y-35725D01*
X58313Y-35759D01*
X58287Y-35809D01*
X58234Y-35843D01*
X58182Y-35860D01*
X58077Y-35877D01*
X57998Y-35877D01*
X57893Y-35860D01*
X57841Y-35843D01*
X57788Y-35809D01*
X57762Y-35759D01*
X57762Y-35725D01*
X57788Y-35674D01*
X57814Y-35658D01*
X58261Y-35303D02*
X58287Y-35320D01*
X58313Y-35371D01*
X58313Y-35404D01*
X58287Y-35455D01*
X58234Y-35489D01*
X58182Y-35506D01*
X58077Y-35523D01*
X57998Y-35523D01*
X57893Y-35506D01*
X57841Y-35489D01*
X57788Y-35455D01*
X57762Y-35404D01*
X57762Y-35371D01*
X57788Y-35320D01*
X57814Y-35303D01*
X58313Y-34966D02*
X58313Y-35168D01*
X58313Y-35067D02*
X57762Y-35067D01*
X57841Y-35101D01*
X57893Y-35134D01*
X57919Y-35168D01*
X57762Y-34595D02*
X57762Y-34392D01*
X58313Y-34493D02*
X57762Y-34493D01*
X58313Y-34274D02*
X57946Y-34274D01*
X58051Y-34274D02*
X57998Y-34257D01*
X57972Y-34240D01*
X57946Y-34206D01*
X57946Y-34173D01*
X58313Y-33903D02*
X58024Y-33903D01*
X57972Y-33920D01*
X57946Y-33953D01*
X57946Y-34021D01*
X57972Y-34055D01*
X58287Y-33903D02*
X58313Y-33937D01*
X58313Y-34021D01*
X58287Y-34055D01*
X58234Y-34071D01*
X58182Y-34071D01*
X58129Y-34055D01*
X58103Y-34021D01*
X58103Y-33937D01*
X58077Y-33903D01*
X57946Y-33734D02*
X58313Y-33734D01*
X57998Y-33734D02*
X57972Y-33717D01*
X57946Y-33683D01*
X57946Y-33633D01*
X57972Y-33599D01*
X58024Y-33582D01*
X58313Y-33582D01*
X58287Y-33430D02*
X58313Y-33397D01*
X58313Y-33329D01*
X58287Y-33295D01*
X58234Y-33278D01*
X58208Y-33278D01*
X58156Y-33295D01*
X58129Y-33329D01*
X58129Y-33380D01*
X58103Y-33413D01*
X58051Y-33430D01*
X58024Y-33430D01*
X57972Y-33413D01*
X57946Y-33380D01*
X57946Y-33329D01*
X57972Y-33295D01*
X58287Y-32975D02*
X58313Y-33008D01*
X58313Y-33076D01*
X58287Y-33110D01*
X58261Y-33127D01*
X58208Y-33143D01*
X58051Y-33143D01*
X57998Y-33127D01*
X57972Y-33110D01*
X57946Y-33076D01*
X57946Y-33008D01*
X57972Y-32975D01*
X58287Y-32688D02*
X58313Y-32722D01*
X58313Y-32789D01*
X58287Y-32823D01*
X58234Y-32840D01*
X58024Y-32840D01*
X57972Y-32823D01*
X57946Y-32789D01*
X57946Y-32722D01*
X57972Y-32688D01*
X58024Y-32671D01*
X58077Y-32671D01*
X58129Y-32840D01*
X58313Y-32519D02*
X57946Y-32519D01*
X57762Y-32519D02*
X57788Y-32536D01*
X57814Y-32519D01*
X57788Y-32502D01*
X57762Y-32519D01*
X57814Y-32519D01*
X57946Y-32384D02*
X58313Y-32300D01*
X57946Y-32215D01*
X58287Y-31946D02*
X58313Y-31979D01*
X58313Y-32047D01*
X58287Y-32080D01*
X58234Y-32097D01*
X58024Y-32097D01*
X57972Y-32080D01*
X57946Y-32047D01*
X57946Y-31979D01*
X57972Y-31946D01*
X58024Y-31929D01*
X58077Y-31929D01*
X58129Y-32097D01*
X58313Y-31777D02*
X57946Y-31777D01*
X58051Y-31777D02*
X57998Y-31760D01*
X57972Y-31743D01*
X57946Y-31709D01*
X57946Y-31676D01*
X59147Y-35725D02*
X59173Y-35759D01*
X59173Y-35826D01*
X59147Y-35860D01*
X59095Y-35877D01*
X58885Y-35877D01*
X58832Y-35860D01*
X58806Y-35826D01*
X58806Y-35759D01*
X58832Y-35725D01*
X58885Y-35708D01*
X58937Y-35708D01*
X58990Y-35877D01*
X58806Y-35607D02*
X58806Y-35472D01*
X58622Y-35556D02*
X59095Y-35556D01*
X59147Y-35539D01*
X59173Y-35506D01*
X59173Y-35472D01*
X59173Y-35354D02*
X58622Y-35354D01*
X59173Y-35202D02*
X58885Y-35202D01*
X58832Y-35219D01*
X58806Y-35253D01*
X58806Y-35303D01*
X58832Y-35337D01*
X58858Y-35354D01*
X59147Y-34898D02*
X59173Y-34932D01*
X59173Y-34999D01*
X59147Y-35033D01*
X59095Y-35050D01*
X58885Y-35050D01*
X58832Y-35033D01*
X58806Y-34999D01*
X58806Y-34932D01*
X58832Y-34898D01*
X58885Y-34881D01*
X58937Y-34881D01*
X58990Y-35050D01*
X59173Y-34730D02*
X58806Y-34730D01*
X58911Y-34730D02*
X58858Y-34713D01*
X58832Y-34696D01*
X58806Y-34662D01*
X58806Y-34628D01*
X59173Y-34510D02*
X58622Y-34510D01*
X58963Y-34476D02*
X59173Y-34375D01*
X58806Y-34375D02*
X59016Y-34510D01*
X59173Y-34223D02*
X58806Y-34223D01*
X58622Y-34223D02*
X58648Y-34240D01*
X58675Y-34223D01*
X58648Y-34206D01*
X58622Y-34223D01*
X58675Y-34223D01*
X58806Y-34105D02*
X58806Y-33970D01*
X58622Y-34055D02*
X59095Y-34055D01*
X59147Y-34038D01*
X59173Y-34004D01*
X59173Y-33970D01*
X59121Y-33852D02*
X59147Y-33835D01*
X59173Y-33852D01*
X59147Y-33869D01*
X59121Y-33852D01*
X59173Y-33852D01*
X59147Y-33532D02*
X59173Y-33565D01*
X59173Y-33633D01*
X59147Y-33667D01*
X59121Y-33683D01*
X59068Y-33700D01*
X58911Y-33700D01*
X58858Y-33683D01*
X58832Y-33667D01*
X58806Y-33633D01*
X58806Y-33565D01*
X58832Y-33532D01*
X59173Y-33329D02*
X59147Y-33363D01*
X59121Y-33380D01*
X59068Y-33397D01*
X58911Y-33397D01*
X58858Y-33380D01*
X58832Y-33363D01*
X58806Y-33329D01*
X58806Y-33278D01*
X58832Y-33245D01*
X58858Y-33228D01*
X58911Y-33211D01*
X59068Y-33211D01*
X59121Y-33228D01*
X59147Y-33245D01*
X59173Y-33278D01*
X59173Y-33329D01*
X59173Y-33059D02*
X58806Y-33059D01*
X58858Y-33059D02*
X58832Y-33042D01*
X58806Y-33008D01*
X58806Y-32958D01*
X58832Y-32924D01*
X58885Y-32907D01*
X59173Y-32907D01*
X58885Y-32907D02*
X58832Y-32890D01*
X58806Y-32857D01*
X58806Y-32806D01*
X58832Y-32772D01*
X58885Y-32755D01*
X59173Y-32755D01*
X58675Y-32334D02*
X58648Y-32317D01*
X58622Y-32283D01*
X58622Y-32199D01*
X58648Y-32165D01*
X58675Y-32148D01*
X58727Y-32131D01*
X58780Y-32131D01*
X58858Y-32148D01*
X59173Y-32350D01*
X59173Y-32131D01*
X58622Y-31912D02*
X58622Y-31878D01*
X58648Y-31844D01*
X58675Y-31827D01*
X58727Y-31811D01*
X58832Y-31794D01*
X58963Y-31794D01*
X59068Y-31811D01*
X59121Y-31827D01*
X59147Y-31844D01*
X59173Y-31878D01*
X59173Y-31912D01*
X59147Y-31946D01*
X59121Y-31962D01*
X59068Y-31979D01*
X58963Y-31996D01*
X58832Y-31996D01*
X58727Y-31979D01*
X58675Y-31962D01*
X58648Y-31946D01*
X58622Y-31912D01*
X59173Y-31456D02*
X59173Y-31659D01*
X59173Y-31557D02*
X58622Y-31557D01*
X58701Y-31591D01*
X58753Y-31625D01*
X58780Y-31659D01*
X58622Y-31338D02*
X58622Y-31119D01*
X58832Y-31237D01*
X58832Y-31186D01*
X58858Y-31152D01*
X58885Y-31136D01*
X58937Y-31119D01*
X59068Y-31119D01*
X59121Y-31136D01*
X59147Y-31152D01*
X59173Y-31186D01*
X59173Y-31287D01*
X59147Y-31321D01*
X59121Y-31338D01*
X59981Y-35658D02*
X60007Y-35674D01*
X60034Y-35725D01*
X60034Y-35759D01*
X60007Y-35809D01*
X59955Y-35843D01*
X59902Y-35860D01*
X59797Y-35877D01*
X59719Y-35877D01*
X59614Y-35860D01*
X59561Y-35843D01*
X59509Y-35809D01*
X59482Y-35759D01*
X59482Y-35725D01*
X59509Y-35674D01*
X59535Y-35658D01*
X60034Y-35506D02*
X59666Y-35506D01*
X59771Y-35506D02*
X59719Y-35489D01*
X59692Y-35472D01*
X59666Y-35438D01*
X59666Y-35404D01*
X60007Y-35151D02*
X60034Y-35185D01*
X60034Y-35253D01*
X60007Y-35286D01*
X59955Y-35303D01*
X59745Y-35303D01*
X59692Y-35286D01*
X59666Y-35253D01*
X59666Y-35185D01*
X59692Y-35151D01*
X59745Y-35134D01*
X59797Y-35134D01*
X59850Y-35303D01*
X60034Y-34831D02*
X59745Y-34831D01*
X59692Y-34848D01*
X59666Y-34881D01*
X59666Y-34949D01*
X59692Y-34983D01*
X60007Y-34831D02*
X60034Y-34865D01*
X60034Y-34949D01*
X60007Y-34983D01*
X59955Y-34999D01*
X59902Y-34999D01*
X59850Y-34983D01*
X59824Y-34949D01*
X59824Y-34865D01*
X59797Y-34831D01*
X59666Y-34713D02*
X59666Y-34578D01*
X59482Y-34662D02*
X59955Y-34662D01*
X60007Y-34645D01*
X60034Y-34611D01*
X60034Y-34578D01*
X60034Y-34460D02*
X59666Y-34460D01*
X59482Y-34460D02*
X59509Y-34476D01*
X59535Y-34460D01*
X59509Y-34443D01*
X59482Y-34460D01*
X59535Y-34460D01*
X59666Y-34325D02*
X60034Y-34240D01*
X59666Y-34156D01*
X60007Y-33886D02*
X60034Y-33920D01*
X60034Y-33987D01*
X60007Y-34021D01*
X59955Y-34038D01*
X59745Y-34038D01*
X59692Y-34021D01*
X59666Y-33987D01*
X59666Y-33920D01*
X59692Y-33886D01*
X59745Y-33869D01*
X59797Y-33869D01*
X59850Y-34038D01*
X59981Y-33245D02*
X60007Y-33262D01*
X60034Y-33312D01*
X60034Y-33346D01*
X60007Y-33397D01*
X59955Y-33430D01*
X59902Y-33447D01*
X59797Y-33464D01*
X59719Y-33464D01*
X59614Y-33447D01*
X59561Y-33430D01*
X59509Y-33397D01*
X59482Y-33346D01*
X59482Y-33312D01*
X59509Y-33262D01*
X59535Y-33245D01*
X60034Y-33042D02*
X60007Y-33076D01*
X59981Y-33093D01*
X59929Y-33110D01*
X59771Y-33110D01*
X59719Y-33093D01*
X59692Y-33076D01*
X59666Y-33042D01*
X59666Y-32992D01*
X59692Y-32958D01*
X59719Y-32941D01*
X59771Y-32924D01*
X59929Y-32924D01*
X59981Y-32941D01*
X60007Y-32958D01*
X60034Y-32992D01*
X60034Y-33042D01*
X60034Y-32772D02*
X59666Y-32772D01*
X59719Y-32772D02*
X59692Y-32755D01*
X59666Y-32722D01*
X59666Y-32671D01*
X59692Y-32637D01*
X59745Y-32620D01*
X60034Y-32620D01*
X59745Y-32620D02*
X59692Y-32604D01*
X59666Y-32570D01*
X59666Y-32519D01*
X59692Y-32485D01*
X59745Y-32469D01*
X60034Y-32469D01*
X60034Y-32300D02*
X59666Y-32300D01*
X59719Y-32300D02*
X59692Y-32283D01*
X59666Y-32249D01*
X59666Y-32199D01*
X59692Y-32165D01*
X59745Y-32148D01*
X60034Y-32148D01*
X59745Y-32148D02*
X59692Y-32131D01*
X59666Y-32097D01*
X59666Y-32047D01*
X59692Y-32013D01*
X59745Y-31996D01*
X60034Y-31996D01*
X60034Y-31777D02*
X60007Y-31811D01*
X59981Y-31827D01*
X59929Y-31844D01*
X59771Y-31844D01*
X59719Y-31827D01*
X59692Y-31811D01*
X59666Y-31777D01*
X59666Y-31726D01*
X59692Y-31692D01*
X59719Y-31676D01*
X59771Y-31659D01*
X59929Y-31659D01*
X59981Y-31676D01*
X60007Y-31692D01*
X60034Y-31726D01*
X60034Y-31777D01*
X59666Y-31507D02*
X60034Y-31507D01*
X59719Y-31507D02*
X59692Y-31490D01*
X59666Y-31456D01*
X59666Y-31406D01*
X59692Y-31372D01*
X59745Y-31355D01*
X60034Y-31355D01*
X60007Y-31203D02*
X60034Y-31169D01*
X60034Y-31102D01*
X60007Y-31068D01*
X59955Y-31051D01*
X59929Y-31051D01*
X59876Y-31068D01*
X59850Y-31102D01*
X59850Y-31152D01*
X59824Y-31186D01*
X59771Y-31203D01*
X59745Y-31203D01*
X59692Y-31186D01*
X59666Y-31152D01*
X59666Y-31102D01*
X59692Y-31068D01*
X60034Y-30461D02*
X60034Y-30629D01*
X59482Y-30629D01*
X60034Y-30343D02*
X59666Y-30343D01*
X59482Y-30343D02*
X59509Y-30359D01*
X59535Y-30343D01*
X59509Y-30326D01*
X59482Y-30343D01*
X59535Y-30343D01*
X60007Y-30022D02*
X60034Y-30056D01*
X60034Y-30123D01*
X60007Y-30157D01*
X59981Y-30174D01*
X59929Y-30191D01*
X59771Y-30191D01*
X59719Y-30174D01*
X59692Y-30157D01*
X59666Y-30123D01*
X59666Y-30056D01*
X59692Y-30022D01*
X60007Y-29735D02*
X60034Y-29769D01*
X60034Y-29836D01*
X60007Y-29870D01*
X59955Y-29887D01*
X59745Y-29887D01*
X59692Y-29870D01*
X59666Y-29836D01*
X59666Y-29769D01*
X59692Y-29735D01*
X59745Y-29718D01*
X59797Y-29718D01*
X59850Y-29887D01*
X59666Y-29566D02*
X60034Y-29566D01*
X59719Y-29566D02*
X59692Y-29550D01*
X59666Y-29516D01*
X59666Y-29465D01*
X59692Y-29431D01*
X59745Y-29415D01*
X60034Y-29415D01*
X60007Y-29263D02*
X60034Y-29229D01*
X60034Y-29161D01*
X60007Y-29128D01*
X59955Y-29111D01*
X59929Y-29111D01*
X59876Y-29128D01*
X59850Y-29161D01*
X59850Y-29212D01*
X59824Y-29246D01*
X59771Y-29263D01*
X59745Y-29263D01*
X59692Y-29246D01*
X59666Y-29212D01*
X59666Y-29161D01*
X59692Y-29128D01*
X60007Y-28824D02*
X60034Y-28858D01*
X60034Y-28925D01*
X60007Y-28959D01*
X59955Y-28976D01*
X59745Y-28976D01*
X59692Y-28959D01*
X59666Y-28925D01*
X59666Y-28858D01*
X59692Y-28824D01*
X59745Y-28807D01*
X59797Y-28807D01*
X59850Y-28976D01*
X59981Y-28183D02*
X60007Y-28200D01*
X60034Y-28250D01*
X60034Y-28284D01*
X60007Y-28335D01*
X59955Y-28368D01*
X59902Y-28385D01*
X59797Y-28402D01*
X59719Y-28402D01*
X59614Y-28385D01*
X59561Y-28368D01*
X59509Y-28335D01*
X59482Y-28284D01*
X59482Y-28250D01*
X59509Y-28200D01*
X59535Y-28183D01*
X59981Y-27829D02*
X60007Y-27845D01*
X60034Y-27896D01*
X60034Y-27930D01*
X60007Y-27980D01*
X59955Y-28014D01*
X59902Y-28031D01*
X59797Y-28048D01*
X59719Y-28048D01*
X59614Y-28031D01*
X59561Y-28014D01*
X59509Y-27980D01*
X59482Y-27930D01*
X59482Y-27896D01*
X59509Y-27845D01*
X59535Y-27829D01*
X59824Y-27677D02*
X59824Y-27407D01*
X59745Y-27120D02*
X59771Y-27069D01*
X59797Y-27052D01*
X59850Y-27035D01*
X59929Y-27035D01*
X59981Y-27052D01*
X60007Y-27069D01*
X60034Y-27103D01*
X60034Y-27238D01*
X59482Y-27238D01*
X59482Y-27120D01*
X59509Y-27086D01*
X59535Y-27069D01*
X59587Y-27052D01*
X59640Y-27052D01*
X59692Y-27069D01*
X59719Y-27086D01*
X59745Y-27120D01*
X59745Y-27238D01*
X59771Y-26816D02*
X60034Y-26816D01*
X59482Y-26934D02*
X59771Y-26816D01*
X59482Y-26698D01*
X59824Y-26580D02*
X59824Y-26310D01*
X60007Y-26158D02*
X60034Y-26107D01*
X60034Y-26023D01*
X60007Y-25989D01*
X59981Y-25973D01*
X59929Y-25956D01*
X59876Y-25956D01*
X59824Y-25973D01*
X59797Y-25989D01*
X59771Y-26023D01*
X59745Y-26091D01*
X59719Y-26124D01*
X59692Y-26141D01*
X59640Y-26158D01*
X59587Y-26158D01*
X59535Y-26141D01*
X59509Y-26124D01*
X59482Y-26091D01*
X59482Y-26006D01*
X59509Y-25956D01*
X59876Y-25821D02*
X59876Y-25652D01*
X60034Y-25854D02*
X59482Y-25736D01*
X60034Y-25618D01*
G54D12*
X65748Y-59055D02*
G75*
G03X66929Y-57874I0J1181D01*
G74*
G01*
X39370Y-57874D02*
G75*
G03X40551Y-59055I1181J0D01*
G74*
G01*
X40551Y-20078D02*
G75*
G03X39370Y-21259I0J-1181D01*
G74*
G01*
X66929Y-21259D02*
G75*
G03X65748Y-20078I-1181J0D01*
G74*
G01*
X40551Y-20078D02*
X65748Y-20078D01*
X40551Y-59055D02*
X65748Y-59055D01*
X66929Y-57874D02*
X66929Y-21259D01*
X39370Y-20866D02*
X39370Y-20885D01*
X39370Y-57874D02*
X39370Y-21259D01*
G54D13*
X54074Y-52224D02*
X54074Y-51988D01*
X54074Y-50650D02*
X54074Y-50886D01*
X54074Y-50650D02*
X55255Y-50256D01*
X54074Y-52224D02*
X55255Y-52618D01*
X56436Y-51437D02*
G75*
G03X55255Y-50256I-1181J0D01*
G74*
G01*
X55255Y-52618D02*
G75*
G03X56436Y-51437I0J1181D01*
G74*
G01*
X43878Y-38543D02*
X44114Y-38543D01*
X45452Y-38543D02*
X45216Y-38543D01*
X45452Y-38543D02*
X45846Y-39724D01*
X43878Y-38543D02*
X43484Y-39724D01*
X44665Y-40905D02*
G75*
G03X45846Y-39724I0J1181D01*
G74*
G01*
X43484Y-39724D02*
G75*
G03X44665Y-40905I1181J0D01*
G74*
G01*
X46496Y-38563D02*
X46732Y-38563D01*
X48070Y-38563D02*
X47834Y-38563D01*
X48070Y-38563D02*
X48464Y-39744D01*
X46496Y-38563D02*
X46102Y-39744D01*
X47283Y-40925D02*
G75*
G03X48464Y-39744I0J1181D01*
G74*
G01*
X46102Y-39744D02*
G75*
G03X47283Y-40925I1181J0D01*
G74*
G01*
X43216Y-32578D02*
X41311Y-32578D01*
X41311Y-32578D02*
X41311Y-37578D01*
X41311Y-37578D02*
X43216Y-37578D01*
X43216Y-37578D02*
X43216Y-32578D01*
X58287Y-39822D02*
X58287Y-41634D01*
X58287Y-41634D02*
X62224Y-41634D01*
X62224Y-41634D02*
X62224Y-39822D01*
X62224Y-39822D02*
X58287Y-39822D01*
X55639Y-33346D02*
X55639Y-31534D01*
X55639Y-31534D02*
X51702Y-31534D01*
X51702Y-31534D02*
X51702Y-33346D01*
X51702Y-33346D02*
X55639Y-33346D01*
X53504Y-27204D02*
X51692Y-27204D01*
X51692Y-27204D02*
X51692Y-31141D01*
X51692Y-31141D02*
X53504Y-31141D01*
X53504Y-31141D02*
X53504Y-27204D01*
X62224Y-43661D02*
X62224Y-41849D01*
X62224Y-41849D02*
X58287Y-41849D01*
X58287Y-41849D02*
X58287Y-43661D01*
X58287Y-43661D02*
X62224Y-43661D01*
X43562Y-33769D02*
X43562Y-35581D01*
X43562Y-35581D02*
X47499Y-35581D01*
X47499Y-35581D02*
X47499Y-33769D01*
X47499Y-33769D02*
X43562Y-33769D01*
X47490Y-32421D02*
X47490Y-30609D01*
X47490Y-30609D02*
X43553Y-30609D01*
X43553Y-30609D02*
X43553Y-32421D01*
X43553Y-32421D02*
X47490Y-32421D01*
X50591Y-38307D02*
X48779Y-38307D01*
X48779Y-38307D02*
X48779Y-42244D01*
X48779Y-42244D02*
X50591Y-42244D01*
X50591Y-42244D02*
X50591Y-38307D01*
X43592Y-27499D02*
X43592Y-29311D01*
X43592Y-29311D02*
X47529Y-29311D01*
X47529Y-29311D02*
X47529Y-27499D01*
X47529Y-27499D02*
X43592Y-27499D01*
X43150Y-38307D02*
X41338Y-38307D01*
X41338Y-38307D02*
X41338Y-42244D01*
X41338Y-42244D02*
X43150Y-42244D01*
X43150Y-42244D02*
X43150Y-38307D01*
G54D12*
X43614Y-48425D02*
G75*
G03X43614Y-48425I-937J0D01*
G74*
G01*
X44547Y-48425D02*
G75*
G03X44547Y-48425I-1870J0D01*
G74*
G01*
X43633Y-44468D02*
G75*
G03X43633Y-44468I-937J0D01*
G74*
G01*
X44566Y-44468D02*
G75*
G03X44566Y-44468I-1870J0D01*
G74*
G01*
X41003Y-58976D02*
X41003Y-54448D01*
X41003Y-54448D02*
X45728Y-54448D01*
X45728Y-54448D02*
X45728Y-58976D01*
X62992Y-20157D02*
X62992Y-24685D01*
X62992Y-24685D02*
X58267Y-24685D01*
X58267Y-24685D02*
X58267Y-20157D01*
X57732Y-58976D02*
X57732Y-55814D01*
X57732Y-55814D02*
X59433Y-55814D01*
X59433Y-55814D02*
X59433Y-58976D01*
G54D14*
X49338Y-45127D02*
X49338Y-43927D01*
X49338Y-43927D02*
X49638Y-43927D01*
X49638Y-43927D02*
X49638Y-45127D01*
X49638Y-45127D02*
X49338Y-45127D01*
X45325Y-46306D02*
X46525Y-46306D01*
X46525Y-46306D02*
X46525Y-46606D01*
X46525Y-46606D02*
X45325Y-46606D01*
X45325Y-46606D02*
X45325Y-46306D01*
X52549Y-52330D02*
X53749Y-52330D01*
X53749Y-52330D02*
X53749Y-52630D01*
X53749Y-52630D02*
X52549Y-52630D01*
X52549Y-52630D02*
X52549Y-52330D01*
X43237Y-29736D02*
X42037Y-29736D01*
X42037Y-29736D02*
X42037Y-29436D01*
X42037Y-29436D02*
X43237Y-29436D01*
X43237Y-29436D02*
X43237Y-29736D01*
X42037Y-31208D02*
X43237Y-31208D01*
X43237Y-31208D02*
X43237Y-31508D01*
X43237Y-31508D02*
X42037Y-31508D01*
X42037Y-31508D02*
X42037Y-31208D01*
X43668Y-53592D02*
X43668Y-52392D01*
X43668Y-52392D02*
X43968Y-52392D01*
X43968Y-52392D02*
X43968Y-53592D01*
X43968Y-53592D02*
X43668Y-53592D01*
G54D12*
X51397Y-39744D02*
X52578Y-39744D01*
X52578Y-39744D02*
X52578Y-39409D01*
X52578Y-39409D02*
X51397Y-39409D01*
X51397Y-39409D02*
X51397Y-39744D01*
X46968Y-48681D02*
X48149Y-48681D01*
X48149Y-48681D02*
X48149Y-48346D01*
X48149Y-48346D02*
X46968Y-48346D01*
X46968Y-48346D02*
X46968Y-48681D01*
G54D15*
X48944Y-35807D02*
X48944Y-36377D01*
G54D12*
X48307Y-36397D02*
X48307Y-35787D01*
X48307Y-35787D02*
X49094Y-35787D01*
X49094Y-35787D02*
X49094Y-36397D01*
X49094Y-36397D02*
X48307Y-36397D01*
G54D16*
X52043Y-36057D02*
X50043Y-36057D01*
X50043Y-36057D02*
X50043Y-34257D01*
X50043Y-34257D02*
X52043Y-34257D01*
X52043Y-34257D02*
X52043Y-36057D01*
X52043Y-35457D02*
X51843Y-35457D01*
X51843Y-35457D02*
X51843Y-34957D01*
X51843Y-34957D02*
X52043Y-34957D01*
G54D17*
X65460Y-34220D02*
X65460Y-34220D01*
X64460Y-34220D02*
X65460Y-34220D01*
X65460Y-34220D02*
X65460Y-34220D01*
X65460Y-34220D02*
X65460Y-38220D01*
X65460Y-38220D02*
X64460Y-38220D01*
X64460Y-38220D02*
X64460Y-34220D01*
X64460Y-35220D02*
X65460Y-35220D01*
X65460Y-39338D02*
X65460Y-39338D01*
X64460Y-39338D02*
X65460Y-39338D01*
X65460Y-39338D02*
X65460Y-39338D01*
X65460Y-39338D02*
X65460Y-43338D01*
X65460Y-43338D02*
X64460Y-43338D01*
X64460Y-43338D02*
X64460Y-39338D01*
X64460Y-40338D02*
X65460Y-40338D01*
X64460Y-29996D02*
X65460Y-29996D01*
X65460Y-29996D02*
X65460Y-32996D01*
X65460Y-32996D02*
X64460Y-32996D01*
X64460Y-32996D02*
X64460Y-29996D01*
X65460Y-30996D02*
X64460Y-30996D01*
G54D18*
X48850Y-34161D02*
X49850Y-34161D01*
X48850Y-33161D02*
X49850Y-33161D01*
G54D17*
X48850Y-34161D02*
X48850Y-33161D01*
X49850Y-33161D02*
X49850Y-34161D01*
G54D18*
X60917Y-28295D02*
X61917Y-28295D01*
X60917Y-27295D02*
X61917Y-27295D01*
G54D17*
X60917Y-28295D02*
X60917Y-27295D01*
X61917Y-27295D02*
X61917Y-28295D01*
G54D18*
X56429Y-32980D02*
X57429Y-32980D01*
X56429Y-31980D02*
X57429Y-31980D01*
G54D17*
X56429Y-32980D02*
X56429Y-31980D01*
X57429Y-31980D02*
X57429Y-32980D01*
G54D18*
X50858Y-51681D02*
X51858Y-51681D01*
X50858Y-50681D02*
X51858Y-50681D01*
G54D17*
X50858Y-51681D02*
X50858Y-50681D01*
X51858Y-50681D02*
X51858Y-51681D01*
G54D18*
X55897Y-28196D02*
X56897Y-28196D01*
X55897Y-27196D02*
X56897Y-27196D01*
G54D17*
X55897Y-28196D02*
X55897Y-27196D01*
X56897Y-27196D02*
X56897Y-28196D01*
G54D18*
X64047Y-26051D02*
X65047Y-26051D01*
X64047Y-25051D02*
X65047Y-25051D01*
G54D17*
X64047Y-26051D02*
X64047Y-25051D01*
X65047Y-25051D02*
X65047Y-26051D01*
G54D18*
X54283Y-28196D02*
X55283Y-28196D01*
X54283Y-27196D02*
X55283Y-27196D01*
G54D17*
X54283Y-28196D02*
X54283Y-27196D01*
X55283Y-27196D02*
X55283Y-28196D01*
G54D12*
X46161Y-55472D02*
X46161Y-55000D01*
X46161Y-55000D02*
X50098Y-55000D01*
X50098Y-55000D02*
X50098Y-55472D01*
X50098Y-58976D02*
X50098Y-56555D01*
X46161Y-58976D02*
X46161Y-56555D01*
X54232Y-56456D02*
X54232Y-56299D01*
X54232Y-56299D02*
X57185Y-56299D01*
X57185Y-56299D02*
X57185Y-56456D01*
X57185Y-58976D02*
X57185Y-57362D01*
X54232Y-58976D02*
X54232Y-57362D01*
X50590Y-56456D02*
X50590Y-56299D01*
X50590Y-56299D02*
X53543Y-56299D01*
X53543Y-56299D02*
X53543Y-56456D01*
X53543Y-58976D02*
X53543Y-57362D01*
X50590Y-58976D02*
X50590Y-57362D01*
X57539Y-21023D02*
X57539Y-21594D01*
X57539Y-21594D02*
X54389Y-21594D01*
X54389Y-21594D02*
X54389Y-21023D01*
X60314Y-55826D02*
X60314Y-55472D01*
X60314Y-55472D02*
X65196Y-55472D01*
X65196Y-55472D02*
X65196Y-55826D01*
X65196Y-58976D02*
X65196Y-57106D01*
X60314Y-58976D02*
X60314Y-57106D01*
G54D17*
X46340Y-36669D02*
X43540Y-36669D01*
X43540Y-36669D02*
X43540Y-35869D01*
X43540Y-35869D02*
X46340Y-35869D01*
X46340Y-35869D02*
X46340Y-36669D01*
X46340Y-36469D02*
X46140Y-36669D01*
X43550Y-32700D02*
X46350Y-32700D01*
X46350Y-32700D02*
X46350Y-33500D01*
X46350Y-33500D02*
X43550Y-33500D01*
X43550Y-33500D02*
X43550Y-32700D01*
X43550Y-32900D02*
X43750Y-32700D01*
X46380Y-30380D02*
X43580Y-30380D01*
X43580Y-30380D02*
X43580Y-29580D01*
X43580Y-29580D02*
X46380Y-29580D01*
X46380Y-29580D02*
X46380Y-30380D01*
X46380Y-30180D02*
X46180Y-30380D01*
X43580Y-26430D02*
X46380Y-26430D01*
X46380Y-26430D02*
X46380Y-27230D01*
X46380Y-27230D02*
X43580Y-27230D01*
X43580Y-27230D02*
X43580Y-26430D01*
X43580Y-26630D02*
X43780Y-26430D01*
G54D12*
X53366Y-43759D02*
G75*
G03X52539Y-42933I-826J0D01*
G74*
G01*
X52539Y-42933D02*
G75*
G03X51712Y-43759I0J-826D01*
G74*
G01*
X53366Y-44901D02*
X53366Y-43759D01*
X51712Y-44901D02*
X51712Y-43759D01*
X51712Y-44901D02*
G75*
G03X52539Y-45728I826J0D01*
G74*
G01*
X52539Y-45728D02*
G75*
G03X53366Y-44901I0J826D01*
G74*
G01*
X45255Y-41889D02*
G75*
G03X44429Y-42716I0J-826D01*
G74*
G01*
X44429Y-42716D02*
G75*
G03X45255Y-43543I826J0D01*
G74*
G01*
X46397Y-41889D02*
X45255Y-41889D01*
X46397Y-43543D02*
X45255Y-43543D01*
X46397Y-43543D02*
G75*
G03X47224Y-42716I0J826D01*
G74*
G01*
X47224Y-42716D02*
G75*
G03X46397Y-41889I-826J0D01*
G74*
G01*
G54D19*
X51317Y-53838D02*
X51317Y-53988D01*
X51317Y-55138D02*
X51317Y-54988D01*
X55217Y-55138D02*
X55217Y-54988D01*
X55217Y-53838D02*
X55217Y-53988D01*
X55517Y-53488D02*
X55517Y-53988D01*
X55517Y-55488D02*
X55517Y-54988D01*
X51017Y-55488D02*
X51017Y-54988D01*
X51017Y-53488D02*
X51017Y-53988D01*
X51317Y-55138D02*
X51567Y-55388D01*
X51567Y-55388D02*
X54967Y-55388D01*
X54967Y-55388D02*
X55217Y-55138D01*
X55217Y-53838D02*
X54967Y-53588D01*
X54967Y-53588D02*
X51567Y-53588D01*
X51567Y-53588D02*
X51317Y-53838D01*
X55517Y-55488D02*
X51017Y-55488D01*
X51017Y-53488D02*
X55517Y-53488D01*
G54D12*
X65902Y-48578D02*
G75*
G03X65902Y-48578I-158J0D01*
G74*
G01*
G54D19*
X65488Y-45350D02*
X65488Y-48350D01*
X63488Y-48350D02*
X63488Y-45350D01*
X63488Y-45350D02*
X65488Y-45350D01*
X65488Y-48350D02*
X63488Y-48350D01*
G54D13*
X42238Y-22047D02*
G75*
G03X42238Y-22047I-900J0D01*
G74*
G01*
X65860Y-22047D02*
G75*
G03X65860Y-22047I-900J0D01*
G74*
G01*
X42238Y-51968D02*
G75*
G03X42238Y-51968I-900J0D01*
G74*
G01*
X65860Y-51968D02*
G75*
G03X65860Y-51968I-900J0D01*
G74*
G01*
G54D20*
X43823Y-51361D02*
X43823Y-51761D01*
X43823Y-51761D02*
X43223Y-51761D01*
X43223Y-51761D02*
X43223Y-51361D01*
X43223Y-50961D02*
X43223Y-50561D01*
X43223Y-50561D02*
X43823Y-50561D01*
X43823Y-50561D02*
X43823Y-50961D01*
X48292Y-46656D02*
X48292Y-47056D01*
X48292Y-47056D02*
X47692Y-47056D01*
X47692Y-47056D02*
X47692Y-46656D01*
X47692Y-46256D02*
X47692Y-45856D01*
X47692Y-45856D02*
X48292Y-45856D01*
X48292Y-45856D02*
X48292Y-46256D01*
X45803Y-48252D02*
X45403Y-48252D01*
X45403Y-48252D02*
X45403Y-47652D01*
X45403Y-47652D02*
X45803Y-47652D01*
X46203Y-47652D02*
X46603Y-47652D01*
X46603Y-47652D02*
X46603Y-48252D01*
X46603Y-48252D02*
X46203Y-48252D01*
X45988Y-44963D02*
X45988Y-45363D01*
X45988Y-45363D02*
X45388Y-45363D01*
X45388Y-45363D02*
X45388Y-44963D01*
X45388Y-44563D02*
X45388Y-44163D01*
X45388Y-44163D02*
X45988Y-44163D01*
X45988Y-44163D02*
X45988Y-44563D01*
X45063Y-46755D02*
X45063Y-47155D01*
X45063Y-47155D02*
X44463Y-47155D01*
X44463Y-47155D02*
X44463Y-46755D01*
X44463Y-46355D02*
X44463Y-45955D01*
X44463Y-45955D02*
X45063Y-45955D01*
X45063Y-45955D02*
X45063Y-46355D01*
X46255Y-44563D02*
X46255Y-44163D01*
X46255Y-44163D02*
X46855Y-44163D01*
X46855Y-44163D02*
X46855Y-44563D01*
X46855Y-44963D02*
X46855Y-45363D01*
X46855Y-45363D02*
X46255Y-45363D01*
X46255Y-45363D02*
X46255Y-44963D01*
X47819Y-44963D02*
X47819Y-45363D01*
X47819Y-45363D02*
X47219Y-45363D01*
X47219Y-45363D02*
X47219Y-44963D01*
X47219Y-44563D02*
X47219Y-44163D01*
X47219Y-44163D02*
X47819Y-44163D01*
X47819Y-44163D02*
X47819Y-44563D01*
X47937Y-43034D02*
X47937Y-43434D01*
X47937Y-43434D02*
X47337Y-43434D01*
X47337Y-43434D02*
X47337Y-43034D01*
X47337Y-42634D02*
X47337Y-42234D01*
X47337Y-42234D02*
X47937Y-42234D01*
X47937Y-42234D02*
X47937Y-42634D01*
X47386Y-46656D02*
X47386Y-47056D01*
X47386Y-47056D02*
X46786Y-47056D01*
X46786Y-47056D02*
X46786Y-46656D01*
X46786Y-46256D02*
X46786Y-45856D01*
X46786Y-45856D02*
X47386Y-45856D01*
X47386Y-45856D02*
X47386Y-46256D01*
X46203Y-48715D02*
X46603Y-48715D01*
X46603Y-48715D02*
X46603Y-49315D01*
X46603Y-49315D02*
X46203Y-49315D01*
X45803Y-49315D02*
X45403Y-49315D01*
X45403Y-49315D02*
X45403Y-48715D01*
X45403Y-48715D02*
X45803Y-48715D01*
X50140Y-47593D02*
X50540Y-47593D01*
X50540Y-47593D02*
X50540Y-48193D01*
X50540Y-48193D02*
X50140Y-48193D01*
X49740Y-48193D02*
X49340Y-48193D01*
X49340Y-48193D02*
X49340Y-47593D01*
X49340Y-47593D02*
X49740Y-47593D01*
X48607Y-50652D02*
X48607Y-51052D01*
X48607Y-51052D02*
X48007Y-51052D01*
X48007Y-51052D02*
X48007Y-50652D01*
X48007Y-50252D02*
X48007Y-49852D01*
X48007Y-49852D02*
X48607Y-49852D01*
X48607Y-49852D02*
X48607Y-50252D01*
X47247Y-49562D02*
X47647Y-49562D01*
X47647Y-49562D02*
X47647Y-50162D01*
X47647Y-50162D02*
X47247Y-50162D01*
X46847Y-50162D02*
X46447Y-50162D01*
X46447Y-50162D02*
X46447Y-49562D01*
X46447Y-49562D02*
X46847Y-49562D01*
X51164Y-52751D02*
X51564Y-52751D01*
X51564Y-52751D02*
X51564Y-53351D01*
X51564Y-53351D02*
X51164Y-53351D01*
X50764Y-53351D02*
X50364Y-53351D01*
X50364Y-53351D02*
X50364Y-52751D01*
X50364Y-52751D02*
X50764Y-52751D01*
X50764Y-52504D02*
X50364Y-52504D01*
X50364Y-52504D02*
X50364Y-51904D01*
X50364Y-51904D02*
X50764Y-51904D01*
X51164Y-51904D02*
X51564Y-51904D01*
X51564Y-51904D02*
X51564Y-52504D01*
X51564Y-52504D02*
X51164Y-52504D01*
X52910Y-51126D02*
X52510Y-51126D01*
X52510Y-51126D02*
X52510Y-50526D01*
X52510Y-50526D02*
X52910Y-50526D01*
X53310Y-50526D02*
X53710Y-50526D01*
X53710Y-50526D02*
X53710Y-51126D01*
X53710Y-51126D02*
X53310Y-51126D01*
X48428Y-53538D02*
X48828Y-53538D01*
X48828Y-53538D02*
X48828Y-54138D01*
X48828Y-54138D02*
X48428Y-54138D01*
X48028Y-54138D02*
X47628Y-54138D01*
X47628Y-54138D02*
X47628Y-53538D01*
X47628Y-53538D02*
X48028Y-53538D01*
X49996Y-43410D02*
X49596Y-43410D01*
X49596Y-43410D02*
X49596Y-42810D01*
X49596Y-42810D02*
X49996Y-42810D01*
X50396Y-42810D02*
X50796Y-42810D01*
X50796Y-42810D02*
X50796Y-43410D01*
X50796Y-43410D02*
X50396Y-43410D01*
X42495Y-27240D02*
X42495Y-26840D01*
X42495Y-26840D02*
X43095Y-26840D01*
X43095Y-26840D02*
X43095Y-27240D01*
X43095Y-27640D02*
X43095Y-28040D01*
X43095Y-28040D02*
X42495Y-28040D01*
X42495Y-28040D02*
X42495Y-27640D01*
X43933Y-37977D02*
X43533Y-37977D01*
X43533Y-37977D02*
X43533Y-37377D01*
X43533Y-37377D02*
X43933Y-37377D01*
X44333Y-37377D02*
X44733Y-37377D01*
X44733Y-37377D02*
X44733Y-37977D01*
X44733Y-37977D02*
X44333Y-37977D01*
X45829Y-37377D02*
X46229Y-37377D01*
X46229Y-37377D02*
X46229Y-37977D01*
X46229Y-37977D02*
X45829Y-37977D01*
X45429Y-37977D02*
X45029Y-37977D01*
X45029Y-37977D02*
X45029Y-37377D01*
X45029Y-37377D02*
X45429Y-37377D01*
X46886Y-37977D02*
X46486Y-37977D01*
X46486Y-37977D02*
X46486Y-37377D01*
X46486Y-37377D02*
X46886Y-37377D01*
X47286Y-37377D02*
X47686Y-37377D01*
X47686Y-37377D02*
X47686Y-37977D01*
X47686Y-37977D02*
X47286Y-37977D01*
X48703Y-37377D02*
X49103Y-37377D01*
X49103Y-37377D02*
X49103Y-37977D01*
X49103Y-37977D02*
X48703Y-37977D01*
X48303Y-37977D02*
X47903Y-37977D01*
X47903Y-37977D02*
X47903Y-37377D01*
X47903Y-37377D02*
X48303Y-37377D01*
X51256Y-37977D02*
X50856Y-37977D01*
X50856Y-37977D02*
X50856Y-37377D01*
X50856Y-37377D02*
X51256Y-37377D01*
X51656Y-37377D02*
X52056Y-37377D01*
X52056Y-37377D02*
X52056Y-37977D01*
X52056Y-37977D02*
X51656Y-37977D01*
X50870Y-44747D02*
X50870Y-45147D01*
X50870Y-45147D02*
X50270Y-45147D01*
X50270Y-45147D02*
X50270Y-44747D01*
X50270Y-44347D02*
X50270Y-43947D01*
X50270Y-43947D02*
X50870Y-43947D01*
X50870Y-43947D02*
X50870Y-44347D01*
X50841Y-41374D02*
X50841Y-40974D01*
X50841Y-40974D02*
X51441Y-40974D01*
X51441Y-40974D02*
X51441Y-41374D01*
X51441Y-41774D02*
X51441Y-42174D01*
X51441Y-42174D02*
X50841Y-42174D01*
X50841Y-42174D02*
X50841Y-41774D01*
X52327Y-41774D02*
X52327Y-42174D01*
X52327Y-42174D02*
X51727Y-42174D01*
X51727Y-42174D02*
X51727Y-41774D01*
X51727Y-41374D02*
X51727Y-40974D01*
X51727Y-40974D02*
X52327Y-40974D01*
X52327Y-40974D02*
X52327Y-41374D01*
X52878Y-46991D02*
X52878Y-47391D01*
X52878Y-47391D02*
X52278Y-47391D01*
X52278Y-47391D02*
X52278Y-46991D01*
X52278Y-46591D02*
X52278Y-46191D01*
X52278Y-46191D02*
X52878Y-46191D01*
X52878Y-46191D02*
X52878Y-46591D01*
X50121Y-48715D02*
X50521Y-48715D01*
X50521Y-48715D02*
X50521Y-49315D01*
X50521Y-49315D02*
X50121Y-49315D01*
X49721Y-49315D02*
X49321Y-49315D01*
X49321Y-49315D02*
X49321Y-48715D01*
X49321Y-48715D02*
X49721Y-48715D01*
X53154Y-36676D02*
X53154Y-37076D01*
X53154Y-37076D02*
X52554Y-37076D01*
X52554Y-37076D02*
X52554Y-36676D01*
X52554Y-36276D02*
X52554Y-35876D01*
X52554Y-35876D02*
X53154Y-35876D01*
X53154Y-35876D02*
X53154Y-36276D01*
X51617Y-46215D02*
X52017Y-46215D01*
X52017Y-46215D02*
X52017Y-46815D01*
X52017Y-46815D02*
X51617Y-46815D01*
X51217Y-46815D02*
X50817Y-46815D01*
X50817Y-46815D02*
X50817Y-46215D01*
X50817Y-46215D02*
X51217Y-46215D01*
X48920Y-42810D02*
X49320Y-42810D01*
X49320Y-42810D02*
X49320Y-43410D01*
X49320Y-43410D02*
X48920Y-43410D01*
X48520Y-43410D02*
X48120Y-43410D01*
X48120Y-43410D02*
X48120Y-42810D01*
X48120Y-42810D02*
X48520Y-42810D01*
X49837Y-46059D02*
X49837Y-45659D01*
X49837Y-45659D02*
X50437Y-45659D01*
X50437Y-45659D02*
X50437Y-46059D01*
X50437Y-46459D02*
X50437Y-46859D01*
X50437Y-46859D02*
X49837Y-46859D01*
X49837Y-46859D02*
X49837Y-46459D01*
X49473Y-46459D02*
X49473Y-46859D01*
X49473Y-46859D02*
X48873Y-46859D01*
X48873Y-46859D02*
X48873Y-46459D01*
X48873Y-46059D02*
X48873Y-45659D01*
X48873Y-45659D02*
X49473Y-45659D01*
X49473Y-45659D02*
X49473Y-46059D01*
X48666Y-44747D02*
X48666Y-45147D01*
X48666Y-45147D02*
X48066Y-45147D01*
X48066Y-45147D02*
X48066Y-44747D01*
X48066Y-44347D02*
X48066Y-43947D01*
X48066Y-43947D02*
X48666Y-43947D01*
X48666Y-43947D02*
X48666Y-44347D01*
X45967Y-41137D02*
X46367Y-41137D01*
X46367Y-41137D02*
X46367Y-41737D01*
X46367Y-41737D02*
X45967Y-41737D01*
X45567Y-41737D02*
X45167Y-41737D01*
X45167Y-41737D02*
X45167Y-41137D01*
X45167Y-41137D02*
X45567Y-41137D01*
X44156Y-41432D02*
X44556Y-41432D01*
X44556Y-41432D02*
X44556Y-42032D01*
X44556Y-42032D02*
X44156Y-42032D01*
X43756Y-42032D02*
X43356Y-42032D01*
X43356Y-42032D02*
X43356Y-41432D01*
X43356Y-41432D02*
X43756Y-41432D01*
X52929Y-50044D02*
X52529Y-50044D01*
X52529Y-50044D02*
X52529Y-49444D01*
X52529Y-49444D02*
X52929Y-49444D01*
X53329Y-49444D02*
X53729Y-49444D01*
X53729Y-49444D02*
X53729Y-50044D01*
X53729Y-50044D02*
X53329Y-50044D01*
X54425Y-50044D02*
X54025Y-50044D01*
X54025Y-50044D02*
X54025Y-49444D01*
X54025Y-49444D02*
X54425Y-49444D01*
X54825Y-49444D02*
X55225Y-49444D01*
X55225Y-49444D02*
X55225Y-50044D01*
X55225Y-50044D02*
X54825Y-50044D01*
X54406Y-53370D02*
X54006Y-53370D01*
X54006Y-53370D02*
X54006Y-52770D01*
X54006Y-52770D02*
X54406Y-52770D01*
X54806Y-52770D02*
X55206Y-52770D01*
X55206Y-52770D02*
X55206Y-53370D01*
X55206Y-53370D02*
X54806Y-53370D01*
X50496Y-50711D02*
X50496Y-51111D01*
X50496Y-51111D02*
X49896Y-51111D01*
X49896Y-51111D02*
X49896Y-50711D01*
X49896Y-50311D02*
X49896Y-49911D01*
X49896Y-49911D02*
X50496Y-49911D01*
X50496Y-49911D02*
X50496Y-50311D01*
X48499Y-48028D02*
X48499Y-47628D01*
X48499Y-47628D02*
X49099Y-47628D01*
X49099Y-47628D02*
X49099Y-48028D01*
X49099Y-48428D02*
X49099Y-48828D01*
X49099Y-48828D02*
X48499Y-48828D01*
X48499Y-48828D02*
X48499Y-48428D01*
G54D12*
X47795Y-53188D02*
X47401Y-53582D01*
X47401Y-53582D02*
X44527Y-53582D01*
X47795Y-50708D02*
X47401Y-50314D01*
X47401Y-50314D02*
X44527Y-50314D01*
X47795Y-51555D02*
X47795Y-50708D01*
X47795Y-52342D02*
X47795Y-53188D01*
X44527Y-51555D02*
X44527Y-50314D01*
X44527Y-52342D02*
X44527Y-53582D01*
X48484Y-30974D02*
X48090Y-30580D01*
X48090Y-30580D02*
X48090Y-27706D01*
X50964Y-30974D02*
X51358Y-30580D01*
X51358Y-30580D02*
X51358Y-27706D01*
X50118Y-30974D02*
X50964Y-30974D01*
X49330Y-30974D02*
X48484Y-30974D01*
X50118Y-27706D02*
X51358Y-27706D01*
X49330Y-27706D02*
X48090Y-27706D01*
G54D16*
X50192Y-31812D02*
X49592Y-31812D01*
X49592Y-31812D02*
X49592Y-32912D01*
X49592Y-32912D02*
X50192Y-32912D01*
X50792Y-32912D02*
X51392Y-32912D01*
X51392Y-32912D02*
X51392Y-31812D01*
X51392Y-31812D02*
X50792Y-31812D01*
G54D17*
X47828Y-34982D02*
X47828Y-32182D01*
X47828Y-32182D02*
X48628Y-32182D01*
X48628Y-32182D02*
X48628Y-34982D01*
X48628Y-34982D02*
X47828Y-34982D01*
X48028Y-34982D02*
X47828Y-34782D01*
G54D12*
X56751Y-52027D02*
X57145Y-51633D01*
X57145Y-51633D02*
X60019Y-51633D01*
X56751Y-54507D02*
X57145Y-54901D01*
X57145Y-54901D02*
X60019Y-54901D01*
X56751Y-53661D02*
X56751Y-54507D01*
X56751Y-52874D02*
X56751Y-52027D01*
X60019Y-53661D02*
X60019Y-54901D01*
X60019Y-52874D02*
X60019Y-51633D01*
X48720Y-51200D02*
X48326Y-51594D01*
X48326Y-51594D02*
X48326Y-53287D01*
X49625Y-51200D02*
X50019Y-51594D01*
X50019Y-51594D02*
X50019Y-53287D01*
X48858Y-51200D02*
X48720Y-51200D01*
X49488Y-51200D02*
X49625Y-51200D01*
X48858Y-53287D02*
X48326Y-53287D01*
X49488Y-53287D02*
X50019Y-53287D01*
X51082Y-48090D02*
X50688Y-48484D01*
X50688Y-48484D02*
X50688Y-50177D01*
X51988Y-48090D02*
X52381Y-48484D01*
X52381Y-48484D02*
X52381Y-50177D01*
X51220Y-48090D02*
X51082Y-48090D01*
X51850Y-48090D02*
X51988Y-48090D01*
X51220Y-50177D02*
X50688Y-50177D01*
X51850Y-50177D02*
X52381Y-50177D01*
G54D21*
G36*
X59901Y-38916D02*
X59896Y-38907D01*
X59883Y-38886D01*
X59864Y-38857D01*
X59841Y-38822D01*
X59817Y-38788D01*
X59798Y-38759D01*
X59785Y-38739D01*
X59781Y-38731D01*
X59782Y-38726D01*
X59790Y-38710D01*
X59803Y-38686D01*
X59810Y-38672D01*
X59819Y-38650D01*
X59821Y-38639D01*
X59818Y-38637D01*
X59802Y-38629D01*
X59773Y-38617D01*
X59735Y-38600D01*
X59690Y-38581D01*
X59642Y-38561D01*
X59594Y-38540D01*
X59547Y-38521D01*
X59505Y-38504D01*
X59471Y-38490D01*
X59447Y-38481D01*
X59437Y-38478D01*
X59435Y-38479D01*
X59424Y-38490D01*
X59410Y-38509D01*
X59376Y-38550D01*
X59325Y-38591D01*
X59267Y-38616D01*
X59202Y-38625D01*
X59143Y-38618D01*
X59086Y-38594D01*
X59034Y-38554D01*
X58996Y-38505D01*
X58971Y-38449D01*
X58963Y-38385D01*
X58970Y-38324D01*
X58993Y-38266D01*
X59033Y-38214D01*
X59058Y-38192D01*
X59110Y-38162D01*
X59166Y-38145D01*
X59180Y-38143D01*
X59242Y-38146D01*
X59301Y-38164D01*
X59353Y-38196D01*
X59397Y-38241D01*
X59401Y-38247D01*
X59416Y-38268D01*
X59427Y-38282D01*
X59436Y-38293D01*
X59625Y-38215D01*
X59655Y-38202D01*
X59706Y-38181D01*
X59751Y-38162D01*
X59786Y-38146D01*
X59810Y-38136D01*
X59819Y-38131D01*
X59820Y-38131D01*
X59821Y-38124D01*
X59816Y-38110D01*
X59803Y-38083D01*
X59794Y-38066D01*
X59784Y-38046D01*
X59781Y-38037D01*
X59785Y-38029D01*
X59797Y-38010D01*
X59816Y-37982D01*
X59839Y-37948D01*
X59861Y-37916D01*
X59880Y-37887D01*
X59894Y-37865D01*
X59900Y-37855D01*
X59900Y-37853D01*
X59895Y-37844D01*
X59880Y-37827D01*
X59856Y-37801D01*
X59820Y-37765D01*
X59815Y-37759D01*
X59784Y-37729D01*
X59759Y-37705D01*
X59741Y-37689D01*
X59732Y-37683D01*
X59732Y-37683D01*
X59722Y-37688D01*
X59701Y-37702D01*
X59671Y-37721D01*
X59636Y-37745D01*
X59545Y-37808D01*
X59459Y-37773D01*
X59433Y-37763D01*
X59401Y-37749D01*
X59379Y-37739D01*
X59369Y-37734D01*
X59365Y-37725D01*
X59360Y-37702D01*
X59353Y-37668D01*
X59345Y-37627D01*
X59338Y-37588D01*
X59331Y-37554D01*
X59326Y-37528D01*
X59324Y-37517D01*
X59323Y-37514D01*
X59317Y-37512D01*
X59305Y-37511D01*
X59284Y-37510D01*
X59251Y-37509D01*
X59202Y-37509D01*
X59197Y-37509D01*
X59151Y-37510D01*
X59114Y-37510D01*
X59091Y-37512D01*
X59081Y-37513D01*
X59081Y-37513D01*
X59079Y-37524D01*
X59073Y-37549D01*
X59067Y-37584D01*
X59059Y-37625D01*
X59058Y-37628D01*
X59050Y-37669D01*
X59043Y-37704D01*
X59037Y-37728D01*
X59034Y-37739D01*
X59031Y-37741D01*
X59015Y-37749D01*
X58989Y-37761D01*
X58958Y-37775D01*
X58925Y-37788D01*
X58896Y-37800D01*
X58874Y-37808D01*
X58864Y-37810D01*
X58864Y-37810D01*
X58854Y-37804D01*
X58833Y-37790D01*
X58803Y-37770D01*
X58768Y-37745D01*
X58765Y-37744D01*
X58730Y-37720D01*
X58700Y-37700D01*
X58679Y-37688D01*
X58670Y-37683D01*
X58669Y-37683D01*
X58659Y-37691D01*
X58639Y-37709D01*
X58612Y-37734D01*
X58581Y-37765D01*
X58571Y-37775D01*
X58538Y-37809D01*
X58516Y-37832D01*
X58505Y-37847D01*
X58502Y-37854D01*
X58502Y-37854D01*
X58509Y-37865D01*
X58523Y-37887D01*
X58544Y-37917D01*
X58568Y-37953D01*
X58569Y-37955D01*
X58593Y-37990D01*
X58613Y-38019D01*
X58627Y-38040D01*
X58632Y-38049D01*
X58632Y-38051D01*
X58628Y-38065D01*
X58619Y-38090D01*
X58607Y-38120D01*
X58594Y-38153D01*
X58582Y-38182D01*
X58572Y-38204D01*
X58566Y-38215D01*
X58565Y-38215D01*
X58553Y-38219D01*
X58527Y-38225D01*
X58491Y-38232D01*
X58448Y-38240D01*
X58441Y-38242D01*
X58399Y-38250D01*
X58365Y-38256D01*
X58341Y-38261D01*
X58331Y-38264D01*
X58330Y-38270D01*
X58328Y-38290D01*
X58327Y-38321D01*
X58327Y-38359D01*
X58327Y-38398D01*
X58328Y-38437D01*
X58329Y-38470D01*
X58331Y-38493D01*
X58333Y-38503D01*
X58333Y-38504D01*
X58346Y-38507D01*
X58372Y-38513D01*
X58409Y-38520D01*
X58452Y-38529D01*
X58459Y-38530D01*
X58501Y-38538D01*
X58535Y-38545D01*
X58559Y-38550D01*
X58568Y-38553D01*
X58570Y-38556D01*
X58577Y-38574D01*
X58589Y-38602D01*
X58603Y-38636D01*
X58635Y-38716D01*
X58568Y-38815D01*
X58562Y-38824D01*
X58538Y-38859D01*
X58518Y-38888D01*
X58505Y-38908D01*
X58501Y-38917D01*
X58501Y-38917D01*
X58510Y-38927D01*
X58528Y-38947D01*
X58554Y-38973D01*
X58585Y-39004D01*
X58607Y-39027D01*
X58635Y-39054D01*
X58654Y-39072D01*
X58666Y-39081D01*
X58673Y-39084D01*
X58678Y-39083D01*
X58688Y-39077D01*
X58709Y-39063D01*
X58739Y-39042D01*
X58774Y-39018D01*
X58803Y-38999D01*
X58836Y-38977D01*
X58860Y-38963D01*
X58871Y-38959D01*
X58876Y-38960D01*
X58895Y-38967D01*
X58924Y-38978D01*
X58959Y-38993D01*
X59037Y-39027D01*
X59047Y-39078D01*
X59052Y-39109D01*
X59061Y-39153D01*
X59069Y-39194D01*
X59081Y-39259D01*
X59318Y-39261D01*
X59322Y-39251D01*
X59325Y-39241D01*
X59330Y-39217D01*
X59337Y-39183D01*
X59345Y-39143D01*
X59351Y-39109D01*
X59358Y-39074D01*
X59363Y-39049D01*
X59365Y-39038D01*
X59369Y-39035D01*
X59385Y-39027D01*
X59412Y-39014D01*
X59444Y-39001D01*
X59477Y-38987D01*
X59508Y-38975D01*
X59531Y-38966D01*
X59544Y-38963D01*
X59553Y-38968D01*
X59573Y-38981D01*
X59602Y-39000D01*
X59636Y-39023D01*
X59671Y-39047D01*
X59700Y-39067D01*
X59721Y-39080D01*
X59731Y-39086D01*
X59738Y-39083D01*
X59754Y-39070D01*
X59781Y-39044D01*
X59819Y-39005D01*
X59825Y-38999D01*
X59855Y-38968D01*
X59879Y-38942D01*
X59895Y-38924D01*
X59901Y-38916D01*
X59901Y-38916D01*
G37*
G36*
X59864Y-36562D02*
X59864Y-36546D01*
X59863Y-36496D01*
X59861Y-36463D01*
X59858Y-36451D01*
X59850Y-36453D01*
X59822Y-36460D01*
X59775Y-36473D01*
X59714Y-36489D01*
X59641Y-36509D01*
X59499Y-36548D01*
X59424Y-36569D01*
X59358Y-36586D01*
X59307Y-36600D01*
X59272Y-36609D01*
X59258Y-36612D01*
X59257Y-36612D01*
X59241Y-36601D01*
X59209Y-36578D01*
X59165Y-36544D01*
X59112Y-36502D01*
X59052Y-36454D01*
X58857Y-36296D01*
X58857Y-36498D01*
X59070Y-36664D01*
X59097Y-36686D01*
X59156Y-36732D01*
X59207Y-36772D01*
X59247Y-36804D01*
X59272Y-36824D01*
X59281Y-36832D01*
X59275Y-36831D01*
X59247Y-36826D01*
X59200Y-36817D01*
X59137Y-36805D01*
X59059Y-36790D01*
X58971Y-36773D01*
X58875Y-36754D01*
X58807Y-36741D01*
X58715Y-36722D01*
X58633Y-36706D01*
X58563Y-36693D01*
X58509Y-36683D01*
X58474Y-36676D01*
X58459Y-36674D01*
X58456Y-36674D01*
X58452Y-36679D01*
X58450Y-36694D01*
X58450Y-36724D01*
X58450Y-36774D01*
X58452Y-36874D01*
X58501Y-36884D01*
X58547Y-36895D01*
X58580Y-36911D01*
X58607Y-36934D01*
X58621Y-36950D01*
X58636Y-36978D01*
X58640Y-37013D01*
X58640Y-37015D01*
X58636Y-37043D01*
X58621Y-37066D01*
X58617Y-37070D01*
X58598Y-37085D01*
X58575Y-37091D01*
X58539Y-37088D01*
X58486Y-37079D01*
X58450Y-37071D01*
X58420Y-37065D01*
X58408Y-37063D01*
X58407Y-37057D01*
X58407Y-37031D01*
X58406Y-37002D01*
X58238Y-37002D01*
X58236Y-37022D01*
X58233Y-37029D01*
X58228Y-37030D01*
X58222Y-37028D01*
X58196Y-37022D01*
X58159Y-37014D01*
X58143Y-37010D01*
X58104Y-36999D01*
X58077Y-36988D01*
X58072Y-36985D01*
X58041Y-36957D01*
X58022Y-36919D01*
X58016Y-36878D01*
X58024Y-36843D01*
X58048Y-36818D01*
X58050Y-36817D01*
X58085Y-36810D01*
X58134Y-36812D01*
X58189Y-36821D01*
X58235Y-36832D01*
X58237Y-36932D01*
X58238Y-36965D01*
X58238Y-37002D01*
X58406Y-37002D01*
X58406Y-36987D01*
X58406Y-36930D01*
X58405Y-36862D01*
X58405Y-36662D01*
X58391Y-36658D01*
X58388Y-36657D01*
X58346Y-36648D01*
X58291Y-36638D01*
X58231Y-36627D01*
X58171Y-36616D01*
X58118Y-36608D01*
X58076Y-36602D01*
X58053Y-36599D01*
X58041Y-36600D01*
X57970Y-36614D01*
X57908Y-36649D01*
X57858Y-36699D01*
X57828Y-36762D01*
X57826Y-36769D01*
X57819Y-36816D01*
X57819Y-36871D01*
X57825Y-36920D01*
X57839Y-36967D01*
X57879Y-37039D01*
X57935Y-37105D01*
X58001Y-37159D01*
X58072Y-37196D01*
X58081Y-37199D01*
X58116Y-37207D01*
X58167Y-37218D01*
X58229Y-37232D01*
X58298Y-37246D01*
X58369Y-37260D01*
X58437Y-37273D01*
X58496Y-37284D01*
X58542Y-37292D01*
X58570Y-37296D01*
X58610Y-37296D01*
X58675Y-37288D01*
X58729Y-37268D01*
X58742Y-37260D01*
X58793Y-37214D01*
X58829Y-37152D01*
X58847Y-37080D01*
X58845Y-37003D01*
X58844Y-36994D01*
X58840Y-36966D01*
X58840Y-36954D01*
X58843Y-36954D01*
X58867Y-36958D01*
X58911Y-36967D01*
X58972Y-36979D01*
X59050Y-36994D01*
X59140Y-37011D01*
X59240Y-37031D01*
X59404Y-37064D01*
X59508Y-37085D01*
X59604Y-37104D01*
X59688Y-37120D01*
X59759Y-37134D01*
X59812Y-37144D01*
X59847Y-37150D01*
X59859Y-37151D01*
X59860Y-37150D01*
X59862Y-37132D01*
X59863Y-37097D01*
X59864Y-37050D01*
X59864Y-37009D01*
X59863Y-36976D01*
X59861Y-36959D01*
X59857Y-36951D01*
X59850Y-36949D01*
X59840Y-36947D01*
X59809Y-36940D01*
X59764Y-36932D01*
X59710Y-36921D01*
X59694Y-36918D01*
X59630Y-36904D01*
X59590Y-36893D01*
X59571Y-36885D01*
X59567Y-36881D01*
X59533Y-36851D01*
X59498Y-36820D01*
X59468Y-36791D01*
X59447Y-36771D01*
X59439Y-36763D01*
X59445Y-36761D01*
X59471Y-36755D01*
X59515Y-36746D01*
X59572Y-36734D01*
X59638Y-36721D01*
X59684Y-36711D01*
X59746Y-36698D01*
X59798Y-36688D01*
X59834Y-36680D01*
X59850Y-36677D01*
X59851Y-36676D01*
X59857Y-36674D01*
X59861Y-36666D01*
X59863Y-36648D01*
X59864Y-36615D01*
X59864Y-36562D01*
X59864Y-36562D01*
G37*
G54D12*
X43306Y-20216D02*
X43306Y-25767D01*
X43306Y-25767D02*
X48976Y-25767D01*
X48976Y-25767D02*
X48976Y-20216D01*
X50039Y-25570D02*
X50039Y-25373D01*
X50039Y-20216D02*
X50039Y-23641D01*
X53503Y-25570D02*
X53503Y-20216D01*
X53503Y-25570D02*
X52637Y-25570D01*
X50039Y-25570D02*
X50885Y-25570D01*
G54D22*
X56242Y-50318D02*
X56224Y-50337D01*
X56167Y-50356D01*
X56130Y-50356D01*
X56074Y-50337D01*
X56036Y-50299D01*
X56017Y-50262D01*
X55999Y-50187D01*
X55999Y-50131D01*
X56017Y-50056D01*
X56036Y-50018D01*
X56074Y-49981D01*
X56130Y-49962D01*
X56167Y-49962D01*
X56224Y-49981D01*
X56242Y-50000D01*
X56580Y-50093D02*
X56580Y-50356D01*
X56486Y-49943D02*
X56392Y-50224D01*
X56636Y-50224D01*
X56992Y-50356D02*
X56767Y-50356D01*
X56880Y-50356D02*
X56880Y-49962D01*
X56842Y-50018D01*
X56805Y-50056D01*
X56767Y-50074D01*
X43517Y-38409D02*
X43498Y-38428D01*
X43442Y-38446D01*
X43404Y-38446D01*
X43348Y-38428D01*
X43310Y-38390D01*
X43292Y-38353D01*
X43273Y-38278D01*
X43273Y-38221D01*
X43292Y-38146D01*
X43310Y-38109D01*
X43348Y-38071D01*
X43404Y-38053D01*
X43442Y-38053D01*
X43498Y-38071D01*
X43517Y-38090D01*
X43854Y-38053D02*
X43779Y-38053D01*
X43742Y-38071D01*
X43723Y-38090D01*
X43685Y-38146D01*
X43667Y-38221D01*
X43667Y-38371D01*
X43685Y-38409D01*
X43704Y-38428D01*
X43742Y-38446D01*
X43817Y-38446D01*
X43854Y-38428D01*
X43873Y-38409D01*
X43892Y-38371D01*
X43892Y-38278D01*
X43873Y-38240D01*
X43854Y-38221D01*
X43817Y-38203D01*
X43742Y-38203D01*
X43704Y-38221D01*
X43685Y-38240D01*
X43667Y-38278D01*
X46154Y-38409D02*
X46136Y-38428D01*
X46079Y-38446D01*
X46042Y-38446D01*
X45986Y-38428D01*
X45948Y-38390D01*
X45929Y-38353D01*
X45911Y-38278D01*
X45911Y-38221D01*
X45929Y-38146D01*
X45948Y-38109D01*
X45986Y-38071D01*
X46042Y-38053D01*
X46079Y-38053D01*
X46136Y-38071D01*
X46154Y-38090D01*
X46379Y-38221D02*
X46342Y-38203D01*
X46323Y-38184D01*
X46304Y-38146D01*
X46304Y-38128D01*
X46323Y-38090D01*
X46342Y-38071D01*
X46379Y-38053D01*
X46454Y-38053D01*
X46492Y-38071D01*
X46511Y-38090D01*
X46529Y-38128D01*
X46529Y-38146D01*
X46511Y-38184D01*
X46492Y-38203D01*
X46454Y-38221D01*
X46379Y-38221D01*
X46342Y-38240D01*
X46323Y-38259D01*
X46304Y-38296D01*
X46304Y-38371D01*
X46323Y-38409D01*
X46342Y-38428D01*
X46379Y-38446D01*
X46454Y-38446D01*
X46492Y-38428D01*
X46511Y-38409D01*
X46529Y-38371D01*
X46529Y-38296D01*
X46511Y-38259D01*
X46492Y-38240D01*
X46454Y-38221D01*
X41548Y-32423D02*
X41361Y-32423D01*
X41361Y-32029D01*
X41886Y-32423D02*
X41661Y-32423D01*
X41773Y-32423D02*
X41773Y-32029D01*
X41736Y-32085D01*
X41698Y-32123D01*
X41661Y-32141D01*
G54D12*
X62640Y-40907D02*
X62453Y-40907D01*
X62453Y-40513D01*
X62978Y-40907D02*
X62753Y-40907D01*
X62865Y-40907D02*
X62865Y-40513D01*
X62828Y-40569D01*
X62790Y-40607D01*
X62753Y-40626D01*
X63128Y-40551D02*
X63146Y-40532D01*
X63184Y-40513D01*
X63278Y-40513D01*
X63315Y-40532D01*
X63334Y-40551D01*
X63353Y-40588D01*
X63353Y-40626D01*
X63334Y-40682D01*
X63109Y-40907D01*
X63353Y-40907D01*
G54D22*
X55111Y-31320D02*
X54924Y-31320D01*
X54924Y-30927D01*
X55299Y-31095D02*
X55261Y-31077D01*
X55242Y-31058D01*
X55224Y-31020D01*
X55224Y-31002D01*
X55242Y-30964D01*
X55261Y-30945D01*
X55299Y-30927D01*
X55374Y-30927D01*
X55411Y-30945D01*
X55430Y-30964D01*
X55449Y-31002D01*
X55449Y-31020D01*
X55430Y-31058D01*
X55411Y-31077D01*
X55374Y-31095D01*
X55299Y-31095D01*
X55261Y-31114D01*
X55242Y-31133D01*
X55224Y-31170D01*
X55224Y-31245D01*
X55242Y-31283D01*
X55261Y-31302D01*
X55299Y-31320D01*
X55374Y-31320D01*
X55411Y-31302D01*
X55430Y-31283D01*
X55449Y-31245D01*
X55449Y-31170D01*
X55430Y-31133D01*
X55411Y-31114D01*
X55374Y-31095D01*
X52532Y-27049D02*
X52345Y-27049D01*
X52345Y-26655D01*
X52626Y-26655D02*
X52889Y-26655D01*
X52720Y-27049D01*
G54D12*
X62620Y-42856D02*
X62433Y-42856D01*
X62433Y-42462D01*
X62958Y-42856D02*
X62733Y-42856D01*
X62845Y-42856D02*
X62845Y-42462D01*
X62808Y-42518D01*
X62770Y-42556D01*
X62733Y-42574D01*
X63089Y-42462D02*
X63333Y-42462D01*
X63202Y-42612D01*
X63258Y-42612D01*
X63295Y-42631D01*
X63314Y-42649D01*
X63333Y-42687D01*
X63333Y-42781D01*
X63314Y-42818D01*
X63295Y-42837D01*
X63258Y-42856D01*
X63145Y-42856D01*
X63108Y-42837D01*
X63089Y-42818D01*
G54D22*
X47089Y-33604D02*
X46902Y-33604D01*
X46902Y-33210D01*
X47239Y-33604D02*
X47314Y-33604D01*
X47352Y-33585D01*
X47371Y-33566D01*
X47408Y-33510D01*
X47427Y-33435D01*
X47427Y-33285D01*
X47408Y-33248D01*
X47389Y-33229D01*
X47352Y-33210D01*
X47277Y-33210D01*
X47239Y-33229D01*
X47221Y-33248D01*
X47202Y-33285D01*
X47202Y-33379D01*
X47221Y-33416D01*
X47239Y-33435D01*
X47277Y-33454D01*
X47352Y-33454D01*
X47389Y-33435D01*
X47408Y-33416D01*
X47427Y-33379D01*
X46951Y-30444D02*
X46764Y-30444D01*
X46764Y-30051D01*
X47289Y-30444D02*
X47064Y-30444D01*
X47176Y-30444D02*
X47176Y-30051D01*
X47139Y-30107D01*
X47101Y-30144D01*
X47064Y-30163D01*
X47532Y-30051D02*
X47570Y-30051D01*
X47607Y-30069D01*
X47626Y-30088D01*
X47645Y-30126D01*
X47664Y-30201D01*
X47664Y-30294D01*
X47645Y-30369D01*
X47626Y-30407D01*
X47607Y-30426D01*
X47570Y-30444D01*
X47532Y-30444D01*
X47495Y-30426D01*
X47476Y-30407D01*
X47457Y-30369D01*
X47439Y-30294D01*
X47439Y-30201D01*
X47457Y-30126D01*
X47476Y-30088D01*
X47495Y-30069D01*
X47532Y-30051D01*
X50190Y-38131D02*
X50002Y-38131D01*
X50002Y-37738D01*
X50284Y-37738D02*
X50527Y-37738D01*
X50396Y-37888D01*
X50452Y-37888D01*
X50490Y-37906D01*
X50508Y-37925D01*
X50527Y-37963D01*
X50527Y-38056D01*
X50508Y-38094D01*
X50490Y-38113D01*
X50452Y-38131D01*
X50340Y-38131D01*
X50302Y-38113D01*
X50284Y-38094D01*
X46941Y-27334D02*
X46754Y-27334D01*
X46754Y-26940D01*
X47279Y-27334D02*
X47054Y-27334D01*
X47166Y-27334D02*
X47166Y-26940D01*
X47129Y-26997D01*
X47091Y-27034D01*
X47054Y-27053D01*
X47654Y-27334D02*
X47429Y-27334D01*
X47541Y-27334D02*
X47541Y-26940D01*
X47504Y-26997D01*
X47466Y-27034D01*
X47429Y-27053D01*
X41666Y-38151D02*
X41479Y-38151D01*
X41479Y-37757D01*
X41779Y-37795D02*
X41797Y-37776D01*
X41835Y-37757D01*
X41929Y-37757D01*
X41966Y-37776D01*
X41985Y-37795D01*
X42004Y-37832D01*
X42004Y-37870D01*
X41985Y-37926D01*
X41760Y-38151D01*
X42004Y-38151D01*
G54D12*
X42396Y-48230D02*
X42621Y-48230D01*
X42509Y-48623D02*
X42509Y-48230D01*
X42734Y-48267D02*
X42753Y-48248D01*
X42790Y-48230D01*
X42884Y-48230D01*
X42921Y-48248D01*
X42940Y-48267D01*
X42959Y-48305D01*
X42959Y-48342D01*
X42940Y-48398D01*
X42715Y-48623D01*
X42959Y-48623D01*
X42436Y-44312D02*
X42661Y-44312D01*
X42548Y-44706D02*
X42548Y-44312D01*
X42998Y-44706D02*
X42773Y-44706D01*
X42886Y-44706D02*
X42886Y-44312D01*
X42848Y-44369D01*
X42811Y-44406D01*
X42773Y-44425D01*
G54D22*
X41200Y-53793D02*
X41200Y-54131D01*
X41178Y-54198D01*
X41133Y-54243D01*
X41065Y-54266D01*
X41020Y-54266D01*
X41673Y-54266D02*
X41403Y-54266D01*
X41538Y-54266D02*
X41538Y-53793D01*
X41493Y-53861D01*
X41448Y-53906D01*
X41403Y-53928D01*
X43388Y-54266D02*
X43388Y-53793D01*
X43568Y-53793D01*
X43613Y-53816D01*
X43636Y-53838D01*
X43658Y-53883D01*
X43658Y-53951D01*
X43636Y-53996D01*
X43613Y-54018D01*
X43568Y-54041D01*
X43388Y-54041D01*
X43861Y-54266D02*
X43861Y-53793D01*
X44063Y-54266D02*
X44063Y-54018D01*
X44041Y-53973D01*
X43996Y-53951D01*
X43928Y-53951D01*
X43883Y-53973D01*
X43861Y-53996D01*
X44356Y-54266D02*
X44311Y-54243D01*
X44288Y-54221D01*
X44266Y-54176D01*
X44266Y-54041D01*
X44288Y-53996D01*
X44311Y-53973D01*
X44356Y-53951D01*
X44423Y-53951D01*
X44468Y-53973D01*
X44491Y-53996D01*
X44513Y-54041D01*
X44513Y-54176D01*
X44491Y-54221D01*
X44468Y-54243D01*
X44423Y-54266D01*
X44356Y-54266D01*
X44715Y-53951D02*
X44715Y-54266D01*
X44715Y-53996D02*
X44738Y-53973D01*
X44783Y-53951D01*
X44850Y-53951D01*
X44895Y-53973D01*
X44918Y-54018D01*
X44918Y-54266D01*
X45323Y-54243D02*
X45278Y-54266D01*
X45188Y-54266D01*
X45143Y-54243D01*
X45120Y-54198D01*
X45120Y-54018D01*
X45143Y-53973D01*
X45188Y-53951D01*
X45278Y-53951D01*
X45323Y-53973D01*
X45345Y-54018D01*
X45345Y-54063D01*
X45120Y-54108D01*
X45525Y-54243D02*
X45570Y-54266D01*
X45660Y-54266D01*
X45705Y-54243D01*
X45728Y-54198D01*
X45728Y-54176D01*
X45705Y-54131D01*
X45660Y-54108D01*
X45593Y-54108D01*
X45548Y-54086D01*
X45525Y-54041D01*
X45525Y-54018D01*
X45548Y-53973D01*
X45593Y-53951D01*
X45660Y-53951D01*
X45705Y-53973D01*
X58543Y-24935D02*
X58543Y-25272D01*
X58520Y-25340D01*
X58475Y-25385D01*
X58408Y-25407D01*
X58363Y-25407D01*
X58745Y-24980D02*
X58768Y-24957D01*
X58813Y-24935D01*
X58925Y-24935D01*
X58970Y-24957D01*
X58993Y-24980D01*
X59015Y-25025D01*
X59015Y-25070D01*
X58993Y-25137D01*
X58723Y-25407D01*
X59015Y-25407D01*
X61934Y-25407D02*
X61934Y-24935D01*
X62204Y-25407D02*
X62002Y-25137D01*
X62204Y-24935D02*
X61934Y-25205D01*
X62587Y-25385D02*
X62542Y-25407D01*
X62452Y-25407D01*
X62407Y-25385D01*
X62384Y-25340D01*
X62384Y-25160D01*
X62407Y-25115D01*
X62452Y-25092D01*
X62542Y-25092D01*
X62587Y-25115D01*
X62609Y-25160D01*
X62609Y-25205D01*
X62384Y-25250D01*
X62767Y-25092D02*
X62879Y-25407D01*
X62992Y-25092D02*
X62879Y-25407D01*
X62834Y-25520D01*
X62812Y-25542D01*
X62767Y-25565D01*
X58237Y-55612D02*
X58237Y-55140D01*
X58350Y-55140D01*
X58417Y-55162D01*
X58462Y-55207D01*
X58485Y-55252D01*
X58507Y-55342D01*
X58507Y-55410D01*
X58485Y-55500D01*
X58462Y-55544D01*
X58417Y-55589D01*
X58350Y-55612D01*
X58237Y-55612D01*
X58912Y-55140D02*
X58822Y-55140D01*
X58777Y-55162D01*
X58755Y-55185D01*
X58710Y-55252D01*
X58687Y-55342D01*
X58687Y-55522D01*
X58710Y-55567D01*
X58732Y-55589D01*
X58777Y-55612D01*
X58867Y-55612D01*
X58912Y-55589D01*
X58935Y-55567D01*
X58957Y-55522D01*
X58957Y-55410D01*
X58935Y-55365D01*
X58912Y-55342D01*
X58867Y-55320D01*
X58777Y-55320D01*
X58732Y-55342D01*
X58710Y-55365D01*
X58687Y-55410D01*
G54D23*
X49380Y-43850D02*
X49352Y-43836D01*
X49323Y-43807D01*
X49280Y-43765D01*
X49252Y-43750D01*
X49223Y-43750D01*
X49238Y-43822D02*
X49209Y-43807D01*
X49180Y-43779D01*
X49166Y-43722D01*
X49166Y-43622D01*
X49180Y-43565D01*
X49209Y-43536D01*
X49238Y-43522D01*
X49295Y-43522D01*
X49323Y-43536D01*
X49352Y-43565D01*
X49366Y-43622D01*
X49366Y-43722D01*
X49352Y-43779D01*
X49323Y-43807D01*
X49295Y-43822D01*
X49238Y-43822D01*
X49638Y-43522D02*
X49495Y-43522D01*
X49480Y-43665D01*
X49495Y-43650D01*
X49523Y-43636D01*
X49595Y-43636D01*
X49623Y-43650D01*
X49638Y-43665D01*
X49652Y-43693D01*
X49652Y-43765D01*
X49638Y-43793D01*
X49623Y-43807D01*
X49595Y-43822D01*
X49523Y-43822D01*
X49495Y-43807D01*
X49480Y-43793D01*
X45896Y-45799D02*
X45868Y-45785D01*
X45839Y-45756D01*
X45796Y-45713D01*
X45768Y-45699D01*
X45739Y-45699D01*
X45753Y-45771D02*
X45725Y-45756D01*
X45696Y-45728D01*
X45682Y-45671D01*
X45682Y-45571D01*
X45696Y-45513D01*
X45725Y-45485D01*
X45753Y-45471D01*
X45810Y-45471D01*
X45839Y-45485D01*
X45868Y-45513D01*
X45882Y-45571D01*
X45882Y-45671D01*
X45868Y-45728D01*
X45839Y-45756D01*
X45810Y-45771D01*
X45753Y-45771D01*
X46139Y-45471D02*
X46082Y-45471D01*
X46053Y-45485D01*
X46039Y-45499D01*
X46010Y-45542D01*
X45996Y-45599D01*
X45996Y-45713D01*
X46010Y-45742D01*
X46025Y-45756D01*
X46053Y-45771D01*
X46110Y-45771D01*
X46139Y-45756D01*
X46153Y-45742D01*
X46168Y-45713D01*
X46168Y-45642D01*
X46153Y-45613D01*
X46139Y-45599D01*
X46110Y-45585D01*
X46053Y-45585D01*
X46025Y-45599D01*
X46010Y-45613D01*
X45996Y-45642D01*
X53495Y-51744D02*
X53466Y-51730D01*
X53437Y-51701D01*
X53395Y-51658D01*
X53366Y-51644D01*
X53337Y-51644D01*
X53352Y-51715D02*
X53323Y-51701D01*
X53295Y-51673D01*
X53280Y-51615D01*
X53280Y-51515D01*
X53295Y-51458D01*
X53323Y-51430D01*
X53352Y-51415D01*
X53409Y-51415D01*
X53437Y-51430D01*
X53466Y-51458D01*
X53480Y-51515D01*
X53480Y-51615D01*
X53466Y-51673D01*
X53437Y-51701D01*
X53409Y-51715D01*
X53352Y-51715D01*
X53652Y-51544D02*
X53623Y-51530D01*
X53609Y-51515D01*
X53595Y-51487D01*
X53595Y-51473D01*
X53609Y-51444D01*
X53623Y-51430D01*
X53652Y-51415D01*
X53709Y-51415D01*
X53737Y-51430D01*
X53752Y-51444D01*
X53766Y-51473D01*
X53766Y-51487D01*
X53752Y-51515D01*
X53737Y-51530D01*
X53709Y-51544D01*
X53652Y-51544D01*
X53623Y-51558D01*
X53609Y-51573D01*
X53595Y-51601D01*
X53595Y-51658D01*
X53609Y-51687D01*
X53623Y-51701D01*
X53652Y-51715D01*
X53709Y-51715D01*
X53737Y-51701D01*
X53752Y-51687D01*
X53766Y-51658D01*
X53766Y-51601D01*
X53752Y-51573D01*
X53737Y-51558D01*
X53709Y-51544D01*
X42436Y-28841D02*
X42436Y-28541D01*
X42507Y-28541D01*
X42550Y-28556D01*
X42578Y-28584D01*
X42593Y-28613D01*
X42607Y-28670D01*
X42607Y-28713D01*
X42593Y-28770D01*
X42578Y-28799D01*
X42550Y-28827D01*
X42507Y-28841D01*
X42436Y-28841D01*
X42721Y-28570D02*
X42736Y-28556D01*
X42764Y-28541D01*
X42836Y-28541D01*
X42864Y-28556D01*
X42878Y-28570D01*
X42893Y-28599D01*
X42893Y-28627D01*
X42878Y-28670D01*
X42707Y-28841D01*
X42893Y-28841D01*
X42416Y-30629D02*
X42416Y-30329D01*
X42487Y-30329D01*
X42530Y-30343D01*
X42559Y-30372D01*
X42573Y-30401D01*
X42587Y-30458D01*
X42587Y-30501D01*
X42573Y-30558D01*
X42559Y-30586D01*
X42530Y-30615D01*
X42487Y-30629D01*
X42416Y-30629D01*
X42687Y-30329D02*
X42873Y-30329D01*
X42773Y-30443D01*
X42816Y-30443D01*
X42844Y-30458D01*
X42859Y-30472D01*
X42873Y-30501D01*
X42873Y-30572D01*
X42859Y-30601D01*
X42844Y-30615D01*
X42816Y-30629D01*
X42730Y-30629D01*
X42702Y-30615D01*
X42687Y-30601D01*
X43400Y-52247D02*
X43400Y-51947D01*
X43472Y-51947D01*
X43514Y-51961D01*
X43543Y-51990D01*
X43557Y-52018D01*
X43572Y-52075D01*
X43572Y-52118D01*
X43557Y-52175D01*
X43543Y-52204D01*
X43514Y-52233D01*
X43472Y-52247D01*
X43400Y-52247D01*
X43829Y-52047D02*
X43829Y-52247D01*
X43757Y-51933D02*
X43686Y-52147D01*
X43872Y-52147D01*
G54D12*
X51891Y-38622D02*
X51854Y-38603D01*
X51816Y-38565D01*
X51760Y-38509D01*
X51722Y-38490D01*
X51685Y-38490D01*
X51704Y-38584D02*
X51666Y-38565D01*
X51629Y-38528D01*
X51610Y-38453D01*
X51610Y-38322D01*
X51629Y-38247D01*
X51666Y-38209D01*
X51704Y-38190D01*
X51779Y-38190D01*
X51816Y-38209D01*
X51854Y-38247D01*
X51872Y-38322D01*
X51872Y-38453D01*
X51854Y-38528D01*
X51816Y-38565D01*
X51779Y-38584D01*
X51704Y-38584D01*
X52210Y-38322D02*
X52210Y-38584D01*
X52116Y-38172D02*
X52022Y-38453D01*
X52266Y-38453D01*
X47501Y-47637D02*
X47464Y-47619D01*
X47426Y-47581D01*
X47370Y-47525D01*
X47333Y-47506D01*
X47295Y-47506D01*
X47314Y-47600D02*
X47276Y-47581D01*
X47239Y-47544D01*
X47220Y-47469D01*
X47220Y-47337D01*
X47239Y-47262D01*
X47276Y-47225D01*
X47314Y-47206D01*
X47389Y-47206D01*
X47426Y-47225D01*
X47464Y-47262D01*
X47483Y-47337D01*
X47483Y-47469D01*
X47464Y-47544D01*
X47426Y-47581D01*
X47389Y-47600D01*
X47314Y-47600D01*
X47614Y-47206D02*
X47876Y-47206D01*
X47708Y-47600D01*
X48410Y-35631D02*
X48410Y-35238D01*
X48503Y-35238D01*
X48560Y-35256D01*
X48597Y-35294D01*
X48616Y-35331D01*
X48635Y-35406D01*
X48635Y-35463D01*
X48616Y-35538D01*
X48597Y-35575D01*
X48560Y-35613D01*
X48503Y-35631D01*
X48410Y-35631D01*
X48991Y-35238D02*
X48803Y-35238D01*
X48785Y-35425D01*
X48803Y-35406D01*
X48841Y-35388D01*
X48935Y-35388D01*
X48972Y-35406D01*
X48991Y-35425D01*
X49010Y-35463D01*
X49010Y-35556D01*
X48991Y-35594D01*
X48972Y-35613D01*
X48935Y-35631D01*
X48841Y-35631D01*
X48803Y-35613D01*
X48785Y-35594D01*
X50877Y-33533D02*
X50840Y-33514D01*
X50802Y-33477D01*
X50746Y-33420D01*
X50709Y-33402D01*
X50671Y-33402D01*
X50690Y-33495D02*
X50652Y-33477D01*
X50615Y-33439D01*
X50596Y-33364D01*
X50596Y-33233D01*
X50615Y-33158D01*
X50652Y-33121D01*
X50690Y-33102D01*
X50765Y-33102D01*
X50802Y-33121D01*
X50840Y-33158D01*
X50859Y-33233D01*
X50859Y-33364D01*
X50840Y-33439D01*
X50802Y-33477D01*
X50765Y-33495D01*
X50690Y-33495D01*
X51046Y-33495D02*
X51121Y-33495D01*
X51159Y-33477D01*
X51177Y-33458D01*
X51215Y-33402D01*
X51234Y-33327D01*
X51234Y-33177D01*
X51215Y-33139D01*
X51196Y-33121D01*
X51159Y-33102D01*
X51084Y-33102D01*
X51046Y-33121D01*
X51027Y-33139D01*
X51009Y-33177D01*
X51009Y-33270D01*
X51027Y-33308D01*
X51046Y-33327D01*
X51084Y-33345D01*
X51159Y-33345D01*
X51196Y-33327D01*
X51215Y-33308D01*
X51234Y-33270D01*
X65631Y-38064D02*
X65913Y-38064D01*
X65969Y-38083D01*
X66006Y-38120D01*
X66025Y-38176D01*
X66025Y-38214D01*
X65631Y-37689D02*
X65631Y-37876D01*
X65819Y-37895D01*
X65800Y-37876D01*
X65781Y-37839D01*
X65781Y-37745D01*
X65800Y-37708D01*
X65819Y-37689D01*
X65856Y-37670D01*
X65950Y-37670D01*
X65988Y-37689D01*
X66006Y-37708D01*
X66025Y-37745D01*
X66025Y-37839D01*
X66006Y-37876D01*
X65988Y-37895D01*
X65651Y-35509D02*
X65970Y-35509D01*
X66007Y-35491D01*
X66026Y-35472D01*
X66045Y-35434D01*
X66045Y-35359D01*
X66026Y-35322D01*
X66007Y-35303D01*
X65970Y-35284D01*
X65651Y-35284D01*
X65932Y-35116D02*
X65932Y-34928D01*
X66045Y-35153D02*
X65651Y-35022D01*
X66045Y-34891D01*
X66045Y-34535D02*
X65857Y-34666D01*
X66045Y-34760D02*
X65651Y-34760D01*
X65651Y-34610D01*
X65670Y-34572D01*
X65688Y-34553D01*
X65726Y-34535D01*
X65782Y-34535D01*
X65820Y-34553D01*
X65838Y-34572D01*
X65857Y-34610D01*
X65857Y-34760D01*
X65651Y-34422D02*
X65651Y-34197D01*
X66045Y-34310D02*
X65651Y-34310D01*
X65671Y-43143D02*
X65952Y-43143D01*
X66008Y-43161D01*
X66046Y-43199D01*
X66064Y-43255D01*
X66064Y-43293D01*
X65671Y-42993D02*
X65671Y-42749D01*
X65821Y-42880D01*
X65821Y-42824D01*
X65839Y-42786D01*
X65858Y-42768D01*
X65896Y-42749D01*
X65989Y-42749D01*
X66027Y-42768D01*
X66046Y-42786D01*
X66064Y-42824D01*
X66064Y-42936D01*
X66046Y-42974D01*
X66027Y-42993D01*
X66064Y-40167D02*
X65671Y-40167D01*
X65708Y-39999D02*
X65689Y-39980D01*
X65671Y-39942D01*
X65671Y-39849D01*
X65689Y-39811D01*
X65708Y-39792D01*
X65746Y-39774D01*
X65783Y-39774D01*
X65839Y-39792D01*
X66064Y-40017D01*
X66064Y-39774D01*
X66027Y-39380D02*
X66046Y-39399D01*
X66064Y-39455D01*
X66064Y-39492D01*
X66046Y-39549D01*
X66008Y-39586D01*
X65971Y-39605D01*
X65896Y-39624D01*
X65839Y-39624D01*
X65764Y-39605D01*
X65727Y-39586D01*
X65689Y-39549D01*
X65671Y-39492D01*
X65671Y-39455D01*
X65689Y-39399D01*
X65708Y-39380D01*
X65651Y-32887D02*
X65932Y-32887D01*
X65988Y-32905D01*
X66026Y-32943D01*
X66045Y-32999D01*
X66045Y-33037D01*
X65651Y-32737D02*
X65651Y-32474D01*
X66045Y-32643D01*
X65972Y-30999D02*
X65972Y-30811D01*
X66084Y-31036D02*
X65690Y-30905D01*
X66084Y-30774D01*
X66084Y-30643D02*
X65690Y-30643D01*
X65690Y-30549D01*
X65709Y-30493D01*
X65747Y-30455D01*
X65784Y-30436D01*
X65859Y-30418D01*
X65915Y-30418D01*
X65990Y-30436D01*
X66028Y-30455D01*
X66065Y-30493D01*
X66084Y-30549D01*
X66084Y-30643D01*
X66047Y-30024D02*
X66065Y-30043D01*
X66084Y-30099D01*
X66084Y-30136D01*
X66065Y-30193D01*
X66028Y-30230D01*
X65990Y-30249D01*
X65915Y-30268D01*
X65859Y-30268D01*
X65784Y-30249D01*
X65747Y-30230D01*
X65709Y-30193D01*
X65690Y-30136D01*
X65690Y-30099D01*
X65709Y-30043D01*
X65728Y-30024D01*
G54D22*
X48862Y-32954D02*
X48862Y-32560D01*
X49012Y-32560D01*
X49050Y-32579D01*
X49069Y-32598D01*
X49087Y-32635D01*
X49087Y-32692D01*
X49069Y-32729D01*
X49050Y-32748D01*
X49012Y-32767D01*
X48862Y-32767D01*
X49219Y-32560D02*
X49462Y-32560D01*
X49331Y-32710D01*
X49387Y-32710D01*
X49425Y-32729D01*
X49444Y-32748D01*
X49462Y-32785D01*
X49462Y-32879D01*
X49444Y-32917D01*
X49425Y-32935D01*
X49387Y-32954D01*
X49275Y-32954D01*
X49237Y-32935D01*
X49219Y-32917D01*
G54D12*
X48840Y-34635D02*
X48840Y-34320D01*
X48915Y-34320D01*
X48960Y-34335D01*
X48990Y-34365D01*
X49005Y-34395D01*
X49020Y-34455D01*
X49020Y-34500D01*
X49005Y-34560D01*
X48990Y-34590D01*
X48960Y-34620D01*
X48915Y-34635D01*
X48840Y-34635D01*
X49155Y-34635D02*
X49155Y-34425D01*
X49155Y-34485D02*
X49170Y-34455D01*
X49185Y-34440D01*
X49215Y-34425D01*
X49245Y-34425D01*
X49350Y-34635D02*
X49350Y-34425D01*
X49350Y-34320D02*
X49335Y-34335D01*
X49350Y-34350D01*
X49365Y-34335D01*
X49350Y-34320D01*
X49350Y-34350D01*
X49470Y-34425D02*
X49545Y-34635D01*
X49620Y-34425D01*
X49860Y-34620D02*
X49830Y-34635D01*
X49770Y-34635D01*
X49740Y-34620D01*
X49725Y-34590D01*
X49725Y-34470D01*
X49740Y-34440D01*
X49770Y-34425D01*
X49830Y-34425D01*
X49860Y-34440D01*
X49875Y-34470D01*
X49875Y-34500D01*
X49725Y-34530D01*
G54D22*
X61107Y-27088D02*
X61107Y-26694D01*
X61257Y-26694D01*
X61294Y-26713D01*
X61313Y-26732D01*
X61332Y-26769D01*
X61332Y-26826D01*
X61313Y-26863D01*
X61294Y-26882D01*
X61257Y-26901D01*
X61107Y-26901D01*
X61688Y-26694D02*
X61500Y-26694D01*
X61482Y-26882D01*
X61500Y-26863D01*
X61538Y-26844D01*
X61631Y-26844D01*
X61669Y-26863D01*
X61688Y-26882D01*
X61706Y-26919D01*
X61706Y-27013D01*
X61688Y-27050D01*
X61669Y-27069D01*
X61631Y-27088D01*
X61538Y-27088D01*
X61500Y-27069D01*
X61482Y-27050D01*
X60551Y-28749D02*
X60851Y-28749D01*
X60701Y-28899D02*
X60701Y-28599D01*
X61001Y-28505D02*
X61244Y-28505D01*
X61113Y-28655D01*
X61169Y-28655D01*
X61207Y-28674D01*
X61226Y-28693D01*
X61244Y-28730D01*
X61244Y-28824D01*
X61226Y-28862D01*
X61207Y-28880D01*
X61169Y-28899D01*
X61057Y-28899D01*
X61019Y-28880D01*
X61001Y-28862D01*
X61413Y-28862D02*
X61432Y-28880D01*
X61413Y-28899D01*
X61394Y-28880D01*
X61413Y-28862D01*
X61413Y-28899D01*
X61563Y-28505D02*
X61807Y-28505D01*
X61676Y-28655D01*
X61732Y-28655D01*
X61769Y-28674D01*
X61788Y-28693D01*
X61807Y-28730D01*
X61807Y-28824D01*
X61788Y-28862D01*
X61769Y-28880D01*
X61732Y-28899D01*
X61619Y-28899D01*
X61582Y-28880D01*
X61563Y-28862D01*
X61919Y-28505D02*
X62050Y-28899D01*
X62182Y-28505D01*
X56638Y-31832D02*
X56638Y-31438D01*
X56788Y-31438D01*
X56826Y-31457D01*
X56844Y-31476D01*
X56863Y-31513D01*
X56863Y-31570D01*
X56844Y-31607D01*
X56826Y-31626D01*
X56788Y-31645D01*
X56638Y-31645D01*
X57050Y-31832D02*
X57125Y-31832D01*
X57163Y-31813D01*
X57182Y-31795D01*
X57219Y-31738D01*
X57238Y-31663D01*
X57238Y-31513D01*
X57219Y-31476D01*
X57200Y-31457D01*
X57163Y-31438D01*
X57088Y-31438D01*
X57050Y-31457D01*
X57032Y-31476D01*
X57013Y-31513D01*
X57013Y-31607D01*
X57032Y-31645D01*
X57050Y-31663D01*
X57088Y-31682D01*
X57163Y-31682D01*
X57200Y-31663D01*
X57219Y-31645D01*
X57238Y-31607D01*
X56462Y-33151D02*
X56593Y-33545D01*
X56724Y-33151D01*
X56987Y-33338D02*
X56856Y-33338D01*
X56856Y-33545D02*
X56856Y-33151D01*
X57043Y-33151D01*
X57268Y-33151D02*
X57343Y-33151D01*
X57380Y-33170D01*
X57418Y-33207D01*
X57437Y-33282D01*
X57437Y-33413D01*
X57418Y-33488D01*
X57380Y-33526D01*
X57343Y-33545D01*
X57268Y-33545D01*
X57230Y-33526D01*
X57193Y-33488D01*
X57174Y-33413D01*
X57174Y-33282D01*
X57193Y-33207D01*
X57230Y-33170D01*
X57268Y-33151D01*
X50122Y-51655D02*
X50122Y-51261D01*
X50272Y-51261D01*
X50310Y-51280D01*
X50329Y-51299D01*
X50347Y-51336D01*
X50347Y-51392D01*
X50329Y-51430D01*
X50310Y-51449D01*
X50272Y-51467D01*
X50122Y-51467D01*
X50497Y-51299D02*
X50516Y-51280D01*
X50553Y-51261D01*
X50647Y-51261D01*
X50685Y-51280D01*
X50703Y-51299D01*
X50722Y-51336D01*
X50722Y-51374D01*
X50703Y-51430D01*
X50479Y-51655D01*
X50722Y-51655D01*
X52172Y-51468D02*
X52229Y-51487D01*
X52247Y-51506D01*
X52266Y-51543D01*
X52266Y-51600D01*
X52247Y-51637D01*
X52229Y-51656D01*
X52191Y-51675D01*
X52041Y-51675D01*
X52041Y-51281D01*
X52172Y-51281D01*
X52210Y-51300D01*
X52229Y-51318D01*
X52247Y-51356D01*
X52247Y-51393D01*
X52229Y-51431D01*
X52210Y-51450D01*
X52172Y-51468D01*
X52041Y-51468D01*
X52566Y-51468D02*
X52435Y-51468D01*
X52435Y-51675D02*
X52435Y-51281D01*
X52622Y-51281D01*
X52847Y-51281D02*
X52922Y-51281D01*
X52960Y-51300D01*
X52997Y-51337D01*
X53016Y-51412D01*
X53016Y-51543D01*
X52997Y-51618D01*
X52960Y-51656D01*
X52922Y-51675D01*
X52847Y-51675D01*
X52810Y-51656D01*
X52772Y-51618D01*
X52754Y-51543D01*
X52754Y-51412D01*
X52772Y-51337D01*
X52810Y-51300D01*
X52847Y-51281D01*
X56107Y-27009D02*
X56107Y-26616D01*
X56257Y-26616D01*
X56294Y-26634D01*
X56313Y-26653D01*
X56332Y-26691D01*
X56332Y-26747D01*
X56313Y-26784D01*
X56294Y-26803D01*
X56257Y-26822D01*
X56107Y-26822D01*
X56556Y-26784D02*
X56519Y-26766D01*
X56500Y-26747D01*
X56482Y-26709D01*
X56482Y-26691D01*
X56500Y-26653D01*
X56519Y-26634D01*
X56556Y-26616D01*
X56631Y-26616D01*
X56669Y-26634D01*
X56688Y-26653D01*
X56706Y-26691D01*
X56706Y-26709D01*
X56688Y-26747D01*
X56669Y-26766D01*
X56631Y-26784D01*
X56556Y-26784D01*
X56519Y-26803D01*
X56500Y-26822D01*
X56482Y-26859D01*
X56482Y-26934D01*
X56500Y-26972D01*
X56519Y-26991D01*
X56556Y-27009D01*
X56631Y-27009D01*
X56669Y-26991D01*
X56688Y-26972D01*
X56706Y-26934D01*
X56706Y-26859D01*
X56688Y-26822D01*
X56669Y-26803D01*
X56631Y-26784D01*
X55793Y-28631D02*
X56092Y-28631D01*
X55943Y-28781D02*
X55943Y-28481D01*
X56467Y-28387D02*
X56280Y-28387D01*
X56261Y-28575D01*
X56280Y-28556D01*
X56317Y-28537D01*
X56411Y-28537D01*
X56449Y-28556D01*
X56467Y-28575D01*
X56486Y-28612D01*
X56486Y-28706D01*
X56467Y-28743D01*
X56449Y-28762D01*
X56411Y-28781D01*
X56317Y-28781D01*
X56280Y-28762D01*
X56261Y-28743D01*
X56599Y-28387D02*
X56730Y-28781D01*
X56861Y-28387D01*
X64256Y-24903D02*
X64256Y-24509D01*
X64406Y-24509D01*
X64444Y-24528D01*
X64462Y-24547D01*
X64481Y-24584D01*
X64481Y-24640D01*
X64462Y-24678D01*
X64444Y-24697D01*
X64406Y-24715D01*
X64256Y-24715D01*
X64612Y-24509D02*
X64875Y-24509D01*
X64706Y-24903D01*
X64266Y-26260D02*
X64229Y-26242D01*
X64173Y-26242D01*
X64116Y-26260D01*
X64079Y-26298D01*
X64060Y-26335D01*
X64041Y-26410D01*
X64041Y-26467D01*
X64060Y-26541D01*
X64079Y-26579D01*
X64116Y-26616D01*
X64173Y-26635D01*
X64210Y-26635D01*
X64266Y-26616D01*
X64285Y-26598D01*
X64285Y-26467D01*
X64210Y-26467D01*
X64454Y-26635D02*
X64454Y-26242D01*
X64679Y-26635D01*
X64679Y-26242D01*
X64866Y-26635D02*
X64866Y-26242D01*
X64960Y-26242D01*
X65016Y-26260D01*
X65054Y-26298D01*
X65073Y-26335D01*
X65091Y-26410D01*
X65091Y-26467D01*
X65073Y-26541D01*
X65054Y-26579D01*
X65016Y-26616D01*
X64960Y-26635D01*
X64866Y-26635D01*
X54512Y-27009D02*
X54512Y-26616D01*
X54662Y-26616D01*
X54700Y-26634D01*
X54718Y-26653D01*
X54737Y-26691D01*
X54737Y-26747D01*
X54718Y-26784D01*
X54700Y-26803D01*
X54662Y-26822D01*
X54512Y-26822D01*
X55074Y-26616D02*
X55000Y-26616D01*
X54962Y-26634D01*
X54943Y-26653D01*
X54906Y-26709D01*
X54887Y-26784D01*
X54887Y-26934D01*
X54906Y-26972D01*
X54925Y-26991D01*
X54962Y-27009D01*
X55037Y-27009D01*
X55074Y-26991D01*
X55093Y-26972D01*
X55112Y-26934D01*
X55112Y-26841D01*
X55093Y-26803D01*
X55074Y-26784D01*
X55037Y-26766D01*
X54962Y-26766D01*
X54925Y-26784D01*
X54906Y-26803D01*
X54887Y-26841D01*
X53991Y-28631D02*
X54291Y-28631D01*
X54141Y-28781D02*
X54141Y-28481D01*
X54685Y-28781D02*
X54460Y-28781D01*
X54572Y-28781D02*
X54572Y-28387D01*
X54535Y-28443D01*
X54497Y-28481D01*
X54460Y-28500D01*
X54835Y-28425D02*
X54853Y-28406D01*
X54891Y-28387D01*
X54985Y-28387D01*
X55022Y-28406D01*
X55041Y-28425D01*
X55059Y-28462D01*
X55059Y-28500D01*
X55041Y-28556D01*
X54816Y-28781D01*
X55059Y-28781D01*
X55172Y-28387D02*
X55303Y-28781D01*
X55434Y-28387D01*
X46456Y-54856D02*
X46299Y-54631D01*
X46186Y-54856D02*
X46186Y-54384D01*
X46366Y-54384D01*
X46411Y-54406D01*
X46434Y-54429D01*
X46456Y-54474D01*
X46456Y-54541D01*
X46434Y-54586D01*
X46411Y-54609D01*
X46366Y-54631D01*
X46186Y-54631D01*
X46861Y-54541D02*
X46861Y-54856D01*
X46749Y-54361D02*
X46636Y-54699D01*
X46929Y-54699D01*
X47547Y-54721D02*
X47772Y-54721D01*
X47502Y-54856D02*
X47660Y-54384D01*
X47817Y-54856D01*
X48132Y-54609D02*
X47975Y-54609D01*
X47975Y-54856D02*
X47975Y-54384D01*
X48200Y-54384D01*
X48987Y-54406D02*
X48942Y-54384D01*
X48875Y-54384D01*
X48807Y-54406D01*
X48762Y-54451D01*
X48740Y-54496D01*
X48717Y-54586D01*
X48717Y-54654D01*
X48740Y-54744D01*
X48762Y-54789D01*
X48807Y-54834D01*
X48875Y-54856D01*
X48920Y-54856D01*
X48987Y-54834D01*
X49010Y-54811D01*
X49010Y-54654D01*
X48920Y-54654D01*
X49415Y-54856D02*
X49415Y-54609D01*
X49392Y-54564D01*
X49347Y-54541D01*
X49257Y-54541D01*
X49212Y-54564D01*
X49415Y-54834D02*
X49370Y-54856D01*
X49257Y-54856D01*
X49212Y-54834D01*
X49190Y-54789D01*
X49190Y-54744D01*
X49212Y-54699D01*
X49257Y-54676D01*
X49370Y-54676D01*
X49415Y-54654D01*
X49640Y-54856D02*
X49640Y-54541D01*
X49640Y-54384D02*
X49617Y-54406D01*
X49640Y-54429D01*
X49662Y-54406D01*
X49640Y-54384D01*
X49640Y-54429D01*
X49865Y-54541D02*
X49865Y-54856D01*
X49865Y-54586D02*
X49887Y-54564D01*
X49932Y-54541D01*
X50000Y-54541D01*
X50044Y-54564D01*
X50067Y-54609D01*
X50067Y-54856D01*
X55352Y-56097D02*
X55420Y-56120D01*
X55532Y-56120D01*
X55577Y-56097D01*
X55600Y-56075D01*
X55622Y-56030D01*
X55622Y-55985D01*
X55600Y-55940D01*
X55577Y-55917D01*
X55532Y-55895D01*
X55442Y-55872D01*
X55397Y-55850D01*
X55375Y-55827D01*
X55352Y-55782D01*
X55352Y-55737D01*
X55375Y-55692D01*
X55397Y-55670D01*
X55442Y-55647D01*
X55555Y-55647D01*
X55622Y-55670D01*
X55802Y-55692D02*
X55825Y-55670D01*
X55870Y-55647D01*
X55982Y-55647D01*
X56027Y-55670D01*
X56050Y-55692D01*
X56072Y-55737D01*
X56072Y-55782D01*
X56050Y-55850D01*
X55780Y-56120D01*
X56072Y-56120D01*
X51710Y-56097D02*
X51778Y-56120D01*
X51890Y-56120D01*
X51935Y-56097D01*
X51958Y-56075D01*
X51980Y-56030D01*
X51980Y-55985D01*
X51958Y-55940D01*
X51935Y-55917D01*
X51890Y-55895D01*
X51800Y-55872D01*
X51755Y-55850D01*
X51733Y-55827D01*
X51710Y-55782D01*
X51710Y-55737D01*
X51733Y-55692D01*
X51755Y-55670D01*
X51800Y-55647D01*
X51913Y-55647D01*
X51980Y-55670D01*
X52430Y-56120D02*
X52160Y-56120D01*
X52295Y-56120D02*
X52295Y-55647D01*
X52250Y-55715D01*
X52205Y-55760D01*
X52160Y-55782D01*
X54488Y-22504D02*
X54488Y-22841D01*
X54465Y-22909D01*
X54420Y-22954D01*
X54353Y-22976D01*
X54308Y-22976D01*
X54915Y-22504D02*
X54825Y-22504D01*
X54780Y-22526D01*
X54758Y-22549D01*
X54713Y-22616D01*
X54690Y-22706D01*
X54690Y-22886D01*
X54713Y-22931D01*
X54735Y-22954D01*
X54780Y-22976D01*
X54870Y-22976D01*
X54915Y-22954D01*
X54938Y-22931D01*
X54960Y-22886D01*
X54960Y-22774D01*
X54938Y-22729D01*
X54915Y-22706D01*
X54870Y-22684D01*
X54780Y-22684D01*
X54735Y-22706D01*
X54713Y-22729D01*
X54690Y-22774D01*
X56680Y-22516D02*
X56635Y-22494D01*
X56567Y-22494D01*
X56500Y-22516D01*
X56455Y-22561D01*
X56432Y-22606D01*
X56410Y-22696D01*
X56410Y-22764D01*
X56432Y-22854D01*
X56455Y-22899D01*
X56500Y-22944D01*
X56567Y-22966D01*
X56612Y-22966D01*
X56680Y-22944D01*
X56702Y-22921D01*
X56702Y-22764D01*
X56612Y-22764D01*
X56905Y-22966D02*
X56905Y-22494D01*
X57085Y-22494D01*
X57130Y-22516D01*
X57152Y-22539D01*
X57175Y-22584D01*
X57175Y-22651D01*
X57152Y-22696D01*
X57130Y-22719D01*
X57085Y-22741D01*
X56905Y-22741D01*
X57355Y-22944D02*
X57422Y-22966D01*
X57535Y-22966D01*
X57580Y-22944D01*
X57602Y-22921D01*
X57625Y-22876D01*
X57625Y-22831D01*
X57602Y-22786D01*
X57580Y-22764D01*
X57535Y-22741D01*
X57445Y-22719D01*
X57400Y-22696D01*
X57377Y-22674D01*
X57355Y-22629D01*
X57355Y-22584D01*
X57377Y-22539D01*
X57400Y-22516D01*
X57445Y-22494D01*
X57557Y-22494D01*
X57625Y-22516D01*
X60427Y-55247D02*
X60494Y-55269D01*
X60607Y-55269D01*
X60652Y-55247D01*
X60674Y-55224D01*
X60697Y-55179D01*
X60697Y-55134D01*
X60674Y-55089D01*
X60652Y-55067D01*
X60607Y-55044D01*
X60517Y-55022D01*
X60472Y-55000D01*
X60449Y-54977D01*
X60427Y-54932D01*
X60427Y-54887D01*
X60449Y-54842D01*
X60472Y-54820D01*
X60517Y-54797D01*
X60629Y-54797D01*
X60697Y-54820D01*
X60854Y-54797D02*
X61147Y-54797D01*
X60989Y-54977D01*
X61057Y-54977D01*
X61102Y-55000D01*
X61124Y-55022D01*
X61147Y-55067D01*
X61147Y-55179D01*
X61124Y-55224D01*
X61102Y-55247D01*
X61057Y-55269D01*
X60922Y-55269D01*
X60877Y-55247D01*
X60854Y-55224D01*
X63644Y-54777D02*
X63914Y-54777D01*
X63779Y-55250D02*
X63779Y-54777D01*
X64274Y-54935D02*
X64274Y-55250D01*
X64071Y-54935D02*
X64071Y-55182D01*
X64094Y-55227D01*
X64139Y-55250D01*
X64206Y-55250D01*
X64251Y-55227D01*
X64274Y-55205D01*
X64499Y-54935D02*
X64499Y-55250D01*
X64499Y-54980D02*
X64521Y-54957D01*
X64566Y-54935D01*
X64634Y-54935D01*
X64679Y-54957D01*
X64701Y-55002D01*
X64701Y-55250D01*
X65106Y-55227D02*
X65061Y-55250D01*
X64971Y-55250D01*
X64926Y-55227D01*
X64904Y-55182D01*
X64904Y-55002D01*
X64926Y-54957D01*
X64971Y-54935D01*
X65061Y-54935D01*
X65106Y-54957D01*
X65129Y-55002D01*
X65129Y-55047D01*
X64904Y-55092D01*
G54D19*
X46770Y-36245D02*
X46751Y-36264D01*
X46694Y-36283D01*
X46656Y-36283D01*
X46598Y-36264D01*
X46560Y-36226D01*
X46541Y-36188D01*
X46522Y-36112D01*
X46522Y-36055D01*
X46541Y-35979D01*
X46560Y-35941D01*
X46598Y-35902D01*
X46656Y-35883D01*
X46694Y-35883D01*
X46751Y-35902D01*
X46770Y-35922D01*
X47132Y-35883D02*
X46941Y-35883D01*
X46922Y-36074D01*
X46941Y-36055D01*
X46979Y-36036D01*
X47075Y-36036D01*
X47113Y-36055D01*
X47132Y-36074D01*
X47151Y-36112D01*
X47151Y-36207D01*
X47132Y-36245D01*
X47113Y-36264D01*
X47075Y-36283D01*
X46979Y-36283D01*
X46941Y-36264D01*
X46922Y-36245D01*
X47494Y-36017D02*
X47494Y-36283D01*
X47398Y-35864D02*
X47303Y-36150D01*
X47551Y-36150D01*
X46740Y-32997D02*
X46721Y-33016D01*
X46664Y-33035D01*
X46626Y-33035D01*
X46569Y-33016D01*
X46531Y-32978D01*
X46512Y-32940D01*
X46493Y-32864D01*
X46493Y-32807D01*
X46512Y-32731D01*
X46531Y-32693D01*
X46569Y-32654D01*
X46626Y-32635D01*
X46664Y-32635D01*
X46721Y-32654D01*
X46740Y-32674D01*
X47102Y-32635D02*
X46912Y-32635D01*
X46893Y-32826D01*
X46912Y-32807D01*
X46950Y-32788D01*
X47045Y-32788D01*
X47083Y-32807D01*
X47102Y-32826D01*
X47121Y-32864D01*
X47121Y-32959D01*
X47102Y-32997D01*
X47083Y-33016D01*
X47045Y-33035D01*
X46950Y-33035D01*
X46912Y-33016D01*
X46893Y-32997D01*
X47483Y-32635D02*
X47293Y-32635D01*
X47274Y-32826D01*
X47293Y-32807D01*
X47331Y-32788D01*
X47426Y-32788D01*
X47464Y-32807D01*
X47483Y-32826D01*
X47502Y-32864D01*
X47502Y-32959D01*
X47483Y-32997D01*
X47464Y-33016D01*
X47426Y-33035D01*
X47331Y-33035D01*
X47293Y-33016D01*
X47274Y-32997D01*
X46799Y-29848D02*
X46780Y-29867D01*
X46723Y-29886D01*
X46685Y-29886D01*
X46628Y-29867D01*
X46590Y-29829D01*
X46571Y-29791D01*
X46552Y-29714D01*
X46552Y-29657D01*
X46571Y-29581D01*
X46590Y-29543D01*
X46628Y-29505D01*
X46685Y-29486D01*
X46723Y-29486D01*
X46780Y-29505D01*
X46799Y-29524D01*
X47161Y-29486D02*
X46971Y-29486D01*
X46952Y-29676D01*
X46971Y-29657D01*
X47009Y-29638D01*
X47104Y-29638D01*
X47142Y-29657D01*
X47161Y-29676D01*
X47180Y-29714D01*
X47180Y-29810D01*
X47161Y-29848D01*
X47142Y-29867D01*
X47104Y-29886D01*
X47009Y-29886D01*
X46971Y-29867D01*
X46952Y-29848D01*
X47314Y-29486D02*
X47580Y-29486D01*
X47409Y-29886D01*
X46770Y-26737D02*
X46751Y-26757D01*
X46694Y-26776D01*
X46656Y-26776D01*
X46598Y-26757D01*
X46560Y-26718D01*
X46541Y-26680D01*
X46522Y-26604D01*
X46522Y-26547D01*
X46541Y-26471D01*
X46560Y-26433D01*
X46598Y-26395D01*
X46656Y-26376D01*
X46694Y-26376D01*
X46751Y-26395D01*
X46770Y-26414D01*
X47113Y-26376D02*
X47037Y-26376D01*
X46998Y-26395D01*
X46979Y-26414D01*
X46941Y-26471D01*
X46922Y-26547D01*
X46922Y-26699D01*
X46941Y-26737D01*
X46960Y-26757D01*
X46998Y-26776D01*
X47075Y-26776D01*
X47113Y-26757D01*
X47132Y-26737D01*
X47151Y-26699D01*
X47151Y-26604D01*
X47132Y-26566D01*
X47113Y-26547D01*
X47075Y-26528D01*
X46998Y-26528D01*
X46960Y-26547D01*
X46941Y-26566D01*
X46922Y-26604D01*
X47303Y-26414D02*
X47322Y-26395D01*
X47360Y-26376D01*
X47456Y-26376D01*
X47494Y-26395D01*
X47513Y-26414D01*
X47532Y-26452D01*
X47532Y-26490D01*
X47513Y-26547D01*
X47284Y-26776D01*
X47532Y-26776D01*
G54D12*
X52454Y-42816D02*
X52266Y-42816D01*
X52266Y-42423D01*
X52754Y-42554D02*
X52754Y-42816D01*
X52660Y-42404D02*
X52566Y-42685D01*
X52810Y-42685D01*
X46922Y-41852D02*
X46735Y-41852D01*
X46735Y-41458D01*
X47241Y-41458D02*
X47053Y-41458D01*
X47035Y-41646D01*
X47053Y-41627D01*
X47091Y-41608D01*
X47185Y-41608D01*
X47222Y-41627D01*
X47241Y-41646D01*
X47260Y-41683D01*
X47260Y-41777D01*
X47241Y-41814D01*
X47222Y-41833D01*
X47185Y-41852D01*
X47091Y-41852D01*
X47053Y-41833D01*
X47035Y-41814D01*
G54D22*
X50252Y-53525D02*
X50514Y-53919D01*
X50514Y-53525D02*
X50252Y-53919D01*
X50852Y-53525D02*
X50664Y-53525D01*
X50645Y-53712D01*
X50664Y-53694D01*
X50702Y-53675D01*
X50795Y-53675D01*
X50833Y-53694D01*
X50852Y-53712D01*
X50870Y-53750D01*
X50870Y-53844D01*
X50852Y-53881D01*
X50833Y-53900D01*
X50795Y-53919D01*
X50702Y-53919D01*
X50664Y-53900D01*
X50645Y-53881D01*
G54D12*
X65710Y-48143D02*
X65991Y-48143D01*
X66047Y-48161D01*
X66085Y-48199D01*
X66104Y-48255D01*
X66104Y-48293D01*
X65841Y-47786D02*
X66104Y-47786D01*
X65691Y-47880D02*
X65973Y-47974D01*
X65973Y-47730D01*
X65991Y-47283D02*
X65991Y-47095D01*
X66104Y-47320D02*
X65710Y-47189D01*
X66104Y-47058D01*
X65710Y-46983D02*
X66104Y-46852D01*
X65710Y-46721D01*
X66104Y-46364D02*
X65916Y-46496D01*
X66104Y-46589D02*
X65710Y-46589D01*
X65710Y-46439D01*
X65729Y-46402D01*
X65748Y-46383D01*
X65785Y-46364D01*
X65841Y-46364D01*
X65879Y-46383D01*
X65898Y-46402D01*
X65916Y-46439D01*
X65916Y-46589D01*
X65954Y-46196D02*
X65954Y-45896D01*
X66104Y-45708D02*
X65710Y-45708D01*
X66085Y-45539D02*
X66104Y-45483D01*
X66104Y-45389D01*
X66085Y-45352D01*
X66066Y-45333D01*
X66029Y-45314D01*
X65991Y-45314D01*
X65954Y-45333D01*
X65935Y-45352D01*
X65916Y-45389D01*
X65898Y-45464D01*
X65879Y-45502D01*
X65860Y-45521D01*
X65823Y-45539D01*
X65785Y-45539D01*
X65748Y-45521D01*
X65729Y-45502D01*
X65710Y-45464D01*
X65710Y-45371D01*
X65729Y-45314D01*
X66104Y-45146D02*
X65710Y-45146D01*
X65710Y-44996D01*
X65729Y-44958D01*
X65748Y-44940D01*
X65785Y-44921D01*
X65841Y-44921D01*
X65879Y-44940D01*
X65898Y-44958D01*
X65916Y-44996D01*
X65916Y-45146D01*
G54D24*
X43754Y-50481D02*
X43649Y-50331D01*
X43574Y-50481D02*
X43574Y-50166D01*
X43694Y-50166D01*
X43724Y-50181D01*
X43739Y-50196D01*
X43754Y-50226D01*
X43754Y-50271D01*
X43739Y-50301D01*
X43724Y-50316D01*
X43694Y-50331D01*
X43574Y-50331D01*
X43874Y-50196D02*
X43889Y-50181D01*
X43919Y-50166D01*
X43994Y-50166D01*
X44024Y-50181D01*
X44039Y-50196D01*
X44054Y-50226D01*
X44054Y-50256D01*
X44039Y-50301D01*
X43859Y-50481D01*
X44054Y-50481D01*
X44324Y-50166D02*
X44264Y-50166D01*
X44234Y-50181D01*
X44219Y-50196D01*
X44189Y-50241D01*
X44174Y-50301D01*
X44174Y-50421D01*
X44189Y-50451D01*
X44204Y-50466D01*
X44234Y-50481D01*
X44294Y-50481D01*
X44324Y-50466D01*
X44339Y-50451D01*
X44354Y-50421D01*
X44354Y-50346D01*
X44339Y-50316D01*
X44324Y-50301D01*
X44294Y-50286D01*
X44234Y-50286D01*
X44204Y-50301D01*
X44189Y-50316D01*
X44174Y-50346D01*
X47789Y-45777D02*
X47684Y-45627D01*
X47609Y-45777D02*
X47609Y-45462D01*
X47729Y-45462D01*
X47759Y-45477D01*
X47774Y-45492D01*
X47789Y-45522D01*
X47789Y-45567D01*
X47774Y-45597D01*
X47759Y-45612D01*
X47729Y-45627D01*
X47609Y-45627D01*
X47894Y-45462D02*
X48089Y-45462D01*
X47984Y-45582D01*
X48029Y-45582D01*
X48059Y-45597D01*
X48074Y-45612D01*
X48089Y-45642D01*
X48089Y-45717D01*
X48074Y-45747D01*
X48059Y-45762D01*
X48029Y-45777D01*
X47939Y-45777D01*
X47909Y-45762D01*
X47894Y-45747D01*
X48389Y-45777D02*
X48209Y-45777D01*
X48299Y-45777D02*
X48299Y-45462D01*
X48269Y-45507D01*
X48239Y-45537D01*
X48209Y-45552D01*
X45821Y-47529D02*
X45716Y-47379D01*
X45641Y-47529D02*
X45641Y-47214D01*
X45761Y-47214D01*
X45791Y-47229D01*
X45806Y-47244D01*
X45821Y-47274D01*
X45821Y-47319D01*
X45806Y-47349D01*
X45791Y-47364D01*
X45761Y-47379D01*
X45641Y-47379D01*
X45941Y-47244D02*
X45956Y-47229D01*
X45986Y-47214D01*
X46061Y-47214D01*
X46091Y-47229D01*
X46106Y-47244D01*
X46121Y-47274D01*
X46121Y-47304D01*
X46106Y-47349D01*
X45926Y-47529D01*
X46121Y-47529D01*
X46226Y-47214D02*
X46436Y-47214D01*
X46301Y-47529D01*
X45466Y-44084D02*
X45361Y-43934D01*
X45286Y-44084D02*
X45286Y-43769D01*
X45406Y-43769D01*
X45436Y-43784D01*
X45451Y-43799D01*
X45466Y-43829D01*
X45466Y-43874D01*
X45451Y-43904D01*
X45436Y-43919D01*
X45406Y-43934D01*
X45286Y-43934D01*
X45571Y-43769D02*
X45766Y-43769D01*
X45661Y-43889D01*
X45706Y-43889D01*
X45736Y-43904D01*
X45751Y-43919D01*
X45766Y-43949D01*
X45766Y-44024D01*
X45751Y-44054D01*
X45736Y-44069D01*
X45706Y-44084D01*
X45616Y-44084D01*
X45586Y-44069D01*
X45571Y-44054D01*
X45961Y-43769D02*
X45991Y-43769D01*
X46021Y-43784D01*
X46036Y-43799D01*
X46051Y-43829D01*
X46066Y-43889D01*
X46066Y-43964D01*
X46051Y-44024D01*
X46036Y-44054D01*
X46021Y-44069D01*
X45991Y-44084D01*
X45961Y-44084D01*
X45931Y-44069D01*
X45916Y-44054D01*
X45901Y-44024D01*
X45886Y-43964D01*
X45886Y-43889D01*
X45901Y-43829D01*
X45916Y-43799D01*
X45931Y-43784D01*
X45961Y-43769D01*
X44541Y-45845D02*
X44526Y-45860D01*
X44481Y-45875D01*
X44451Y-45875D01*
X44406Y-45860D01*
X44376Y-45830D01*
X44361Y-45800D01*
X44346Y-45740D01*
X44346Y-45695D01*
X44361Y-45635D01*
X44376Y-45605D01*
X44406Y-45575D01*
X44451Y-45560D01*
X44481Y-45560D01*
X44526Y-45575D01*
X44541Y-45590D01*
X44646Y-45560D02*
X44841Y-45560D01*
X44736Y-45680D01*
X44781Y-45680D01*
X44811Y-45695D01*
X44826Y-45710D01*
X44841Y-45740D01*
X44841Y-45815D01*
X44826Y-45845D01*
X44811Y-45860D01*
X44781Y-45875D01*
X44691Y-45875D01*
X44661Y-45860D01*
X44646Y-45845D01*
X45141Y-45875D02*
X44961Y-45875D01*
X45051Y-45875D02*
X45051Y-45560D01*
X45021Y-45605D01*
X44991Y-45635D01*
X44961Y-45650D01*
X46392Y-44084D02*
X46287Y-43934D01*
X46212Y-44084D02*
X46212Y-43769D01*
X46332Y-43769D01*
X46362Y-43784D01*
X46377Y-43799D01*
X46392Y-43829D01*
X46392Y-43874D01*
X46377Y-43904D01*
X46362Y-43919D01*
X46332Y-43934D01*
X46212Y-43934D01*
X46511Y-43799D02*
X46526Y-43784D01*
X46556Y-43769D01*
X46631Y-43769D01*
X46661Y-43784D01*
X46676Y-43799D01*
X46691Y-43829D01*
X46691Y-43859D01*
X46676Y-43904D01*
X46497Y-44084D01*
X46691Y-44084D01*
X46841Y-44084D02*
X46901Y-44084D01*
X46931Y-44069D01*
X46946Y-44054D01*
X46976Y-44009D01*
X46991Y-43949D01*
X46991Y-43829D01*
X46976Y-43799D01*
X46961Y-43784D01*
X46931Y-43769D01*
X46871Y-43769D01*
X46841Y-43784D01*
X46826Y-43799D01*
X46811Y-43829D01*
X46811Y-43904D01*
X46826Y-43934D01*
X46841Y-43949D01*
X46871Y-43964D01*
X46931Y-43964D01*
X46961Y-43949D01*
X46976Y-43934D01*
X46991Y-43904D01*
X47336Y-44084D02*
X47231Y-43934D01*
X47156Y-44084D02*
X47156Y-43769D01*
X47276Y-43769D01*
X47306Y-43784D01*
X47321Y-43799D01*
X47336Y-43829D01*
X47336Y-43874D01*
X47321Y-43904D01*
X47306Y-43919D01*
X47276Y-43934D01*
X47156Y-43934D01*
X47456Y-43799D02*
X47471Y-43784D01*
X47501Y-43769D01*
X47576Y-43769D01*
X47606Y-43784D01*
X47621Y-43799D01*
X47636Y-43829D01*
X47636Y-43859D01*
X47621Y-43904D01*
X47441Y-44084D01*
X47636Y-44084D01*
X47816Y-43904D02*
X47786Y-43889D01*
X47771Y-43874D01*
X47756Y-43844D01*
X47756Y-43829D01*
X47771Y-43799D01*
X47786Y-43784D01*
X47816Y-43769D01*
X47876Y-43769D01*
X47906Y-43784D01*
X47921Y-43799D01*
X47936Y-43829D01*
X47936Y-43844D01*
X47921Y-43874D01*
X47906Y-43889D01*
X47876Y-43904D01*
X47816Y-43904D01*
X47786Y-43919D01*
X47771Y-43934D01*
X47756Y-43964D01*
X47756Y-44024D01*
X47771Y-44054D01*
X47786Y-44069D01*
X47816Y-44084D01*
X47876Y-44084D01*
X47906Y-44069D01*
X47921Y-44054D01*
X47936Y-44024D01*
X47936Y-43964D01*
X47921Y-43934D01*
X47906Y-43919D01*
X47876Y-43904D01*
X47435Y-42125D02*
X47420Y-42140D01*
X47375Y-42155D01*
X47345Y-42155D01*
X47300Y-42140D01*
X47270Y-42110D01*
X47255Y-42080D01*
X47240Y-42020D01*
X47240Y-41975D01*
X47255Y-41915D01*
X47270Y-41885D01*
X47300Y-41855D01*
X47345Y-41840D01*
X47375Y-41840D01*
X47420Y-41855D01*
X47435Y-41870D01*
X47540Y-41840D02*
X47735Y-41840D01*
X47630Y-41960D01*
X47675Y-41960D01*
X47705Y-41975D01*
X47720Y-41990D01*
X47735Y-42020D01*
X47735Y-42095D01*
X47720Y-42125D01*
X47705Y-42140D01*
X47675Y-42155D01*
X47585Y-42155D01*
X47555Y-42140D01*
X47540Y-42125D01*
X47930Y-41840D02*
X47960Y-41840D01*
X47990Y-41855D01*
X48005Y-41870D01*
X48020Y-41900D01*
X48035Y-41960D01*
X48035Y-42035D01*
X48020Y-42095D01*
X48005Y-42125D01*
X47990Y-42140D01*
X47960Y-42155D01*
X47930Y-42155D01*
X47900Y-42140D01*
X47885Y-42125D01*
X47870Y-42095D01*
X47855Y-42035D01*
X47855Y-41960D01*
X47870Y-41900D01*
X47885Y-41870D01*
X47900Y-41855D01*
X47930Y-41840D01*
X46864Y-45747D02*
X46849Y-45762D01*
X46804Y-45777D01*
X46774Y-45777D01*
X46729Y-45762D01*
X46699Y-45732D01*
X46684Y-45702D01*
X46669Y-45642D01*
X46669Y-45597D01*
X46684Y-45537D01*
X46699Y-45507D01*
X46729Y-45477D01*
X46774Y-45462D01*
X46804Y-45462D01*
X46849Y-45477D01*
X46864Y-45492D01*
X46969Y-45462D02*
X47164Y-45462D01*
X47059Y-45582D01*
X47104Y-45582D01*
X47134Y-45597D01*
X47149Y-45612D01*
X47164Y-45642D01*
X47164Y-45717D01*
X47149Y-45747D01*
X47134Y-45762D01*
X47104Y-45777D01*
X47014Y-45777D01*
X46984Y-45762D01*
X46969Y-45747D01*
X47284Y-45492D02*
X47299Y-45477D01*
X47329Y-45462D01*
X47404Y-45462D01*
X47434Y-45477D01*
X47449Y-45492D01*
X47464Y-45522D01*
X47464Y-45552D01*
X47449Y-45597D01*
X47269Y-45777D01*
X47464Y-45777D01*
X45801Y-48651D02*
X45696Y-48501D01*
X45621Y-48651D02*
X45621Y-48336D01*
X45741Y-48336D01*
X45771Y-48351D01*
X45786Y-48366D01*
X45801Y-48396D01*
X45801Y-48441D01*
X45786Y-48471D01*
X45771Y-48486D01*
X45741Y-48501D01*
X45621Y-48501D01*
X45906Y-48336D02*
X46101Y-48336D01*
X45996Y-48456D01*
X46041Y-48456D01*
X46071Y-48471D01*
X46086Y-48486D01*
X46101Y-48516D01*
X46101Y-48591D01*
X46086Y-48621D01*
X46071Y-48636D01*
X46041Y-48651D01*
X45951Y-48651D01*
X45921Y-48636D01*
X45906Y-48621D01*
X46386Y-48336D02*
X46236Y-48336D01*
X46221Y-48486D01*
X46236Y-48471D01*
X46266Y-48456D01*
X46341Y-48456D01*
X46371Y-48471D01*
X46386Y-48486D01*
X46401Y-48516D01*
X46401Y-48591D01*
X46386Y-48621D01*
X46371Y-48636D01*
X46341Y-48651D01*
X46266Y-48651D01*
X46236Y-48636D01*
X46221Y-48621D01*
X49738Y-47529D02*
X49633Y-47379D01*
X49558Y-47529D02*
X49558Y-47214D01*
X49678Y-47214D01*
X49708Y-47229D01*
X49723Y-47244D01*
X49738Y-47274D01*
X49738Y-47319D01*
X49723Y-47349D01*
X49708Y-47364D01*
X49678Y-47379D01*
X49558Y-47379D01*
X49843Y-47214D02*
X50038Y-47214D01*
X49933Y-47334D01*
X49978Y-47334D01*
X50008Y-47349D01*
X50023Y-47364D01*
X50038Y-47394D01*
X50038Y-47469D01*
X50023Y-47499D01*
X50008Y-47514D01*
X49978Y-47529D01*
X49888Y-47529D01*
X49858Y-47514D01*
X49843Y-47499D01*
X50143Y-47214D02*
X50338Y-47214D01*
X50233Y-47334D01*
X50278Y-47334D01*
X50308Y-47349D01*
X50323Y-47364D01*
X50338Y-47394D01*
X50338Y-47469D01*
X50323Y-47499D01*
X50308Y-47514D01*
X50278Y-47529D01*
X50188Y-47529D01*
X50158Y-47514D01*
X50143Y-47499D01*
X48104Y-49743D02*
X48089Y-49758D01*
X48044Y-49773D01*
X48014Y-49773D01*
X47969Y-49758D01*
X47939Y-49728D01*
X47924Y-49698D01*
X47909Y-49638D01*
X47909Y-49593D01*
X47924Y-49533D01*
X47939Y-49503D01*
X47969Y-49473D01*
X48014Y-49458D01*
X48044Y-49458D01*
X48089Y-49473D01*
X48104Y-49488D01*
X48209Y-49458D02*
X48404Y-49458D01*
X48299Y-49578D01*
X48344Y-49578D01*
X48374Y-49593D01*
X48389Y-49608D01*
X48404Y-49638D01*
X48404Y-49713D01*
X48389Y-49743D01*
X48374Y-49758D01*
X48344Y-49773D01*
X48254Y-49773D01*
X48224Y-49758D01*
X48209Y-49743D01*
X48584Y-49593D02*
X48554Y-49578D01*
X48539Y-49563D01*
X48524Y-49533D01*
X48524Y-49518D01*
X48539Y-49488D01*
X48554Y-49473D01*
X48584Y-49458D01*
X48644Y-49458D01*
X48674Y-49473D01*
X48689Y-49488D01*
X48704Y-49518D01*
X48704Y-49533D01*
X48689Y-49563D01*
X48674Y-49578D01*
X48644Y-49593D01*
X48584Y-49593D01*
X48554Y-49608D01*
X48539Y-49623D01*
X48524Y-49653D01*
X48524Y-49713D01*
X48539Y-49743D01*
X48554Y-49758D01*
X48584Y-49773D01*
X48644Y-49773D01*
X48674Y-49758D01*
X48689Y-49743D01*
X48704Y-49713D01*
X48704Y-49653D01*
X48689Y-49623D01*
X48674Y-49608D01*
X48644Y-49593D01*
X45781Y-49743D02*
X45766Y-49758D01*
X45721Y-49773D01*
X45691Y-49773D01*
X45646Y-49758D01*
X45616Y-49728D01*
X45601Y-49698D01*
X45586Y-49638D01*
X45586Y-49593D01*
X45601Y-49533D01*
X45616Y-49503D01*
X45646Y-49473D01*
X45691Y-49458D01*
X45721Y-49458D01*
X45766Y-49473D01*
X45781Y-49488D01*
X45886Y-49458D02*
X46081Y-49458D01*
X45976Y-49578D01*
X46021Y-49578D01*
X46051Y-49593D01*
X46066Y-49608D01*
X46081Y-49638D01*
X46081Y-49713D01*
X46066Y-49743D01*
X46051Y-49758D01*
X46021Y-49773D01*
X45931Y-49773D01*
X45901Y-49758D01*
X45886Y-49743D01*
X46186Y-49458D02*
X46396Y-49458D01*
X46261Y-49773D01*
X51825Y-53060D02*
X51720Y-52910D01*
X51645Y-53060D02*
X51645Y-52745D01*
X51765Y-52745D01*
X51795Y-52760D01*
X51810Y-52775D01*
X51825Y-52805D01*
X51825Y-52850D01*
X51810Y-52880D01*
X51795Y-52895D01*
X51765Y-52910D01*
X51645Y-52910D01*
X51930Y-52745D02*
X52125Y-52745D01*
X52020Y-52865D01*
X52065Y-52865D01*
X52095Y-52880D01*
X52110Y-52895D01*
X52125Y-52925D01*
X52125Y-53000D01*
X52110Y-53030D01*
X52095Y-53045D01*
X52065Y-53060D01*
X51975Y-53060D01*
X51945Y-53045D01*
X51930Y-53030D01*
X52230Y-52745D02*
X52440Y-52745D01*
X52305Y-53060D01*
X51844Y-52203D02*
X51829Y-52218D01*
X51784Y-52233D01*
X51754Y-52233D01*
X51709Y-52218D01*
X51679Y-52188D01*
X51664Y-52158D01*
X51649Y-52098D01*
X51649Y-52053D01*
X51664Y-51993D01*
X51679Y-51963D01*
X51709Y-51933D01*
X51754Y-51918D01*
X51784Y-51918D01*
X51829Y-51933D01*
X51844Y-51948D01*
X52114Y-52023D02*
X52114Y-52233D01*
X52039Y-51903D02*
X51964Y-52128D01*
X52159Y-52128D01*
X52339Y-51918D02*
X52369Y-51918D01*
X52399Y-51933D01*
X52414Y-51948D01*
X52429Y-51978D01*
X52444Y-52038D01*
X52444Y-52113D01*
X52429Y-52173D01*
X52414Y-52203D01*
X52399Y-52218D01*
X52369Y-52233D01*
X52339Y-52233D01*
X52309Y-52218D01*
X52294Y-52203D01*
X52279Y-52173D01*
X52264Y-52113D01*
X52264Y-52038D01*
X52279Y-51978D01*
X52294Y-51948D01*
X52309Y-51933D01*
X52339Y-51918D01*
X52931Y-50408D02*
X52916Y-50423D01*
X52871Y-50438D01*
X52841Y-50438D01*
X52796Y-50423D01*
X52766Y-50393D01*
X52751Y-50363D01*
X52736Y-50303D01*
X52736Y-50258D01*
X52751Y-50198D01*
X52766Y-50168D01*
X52796Y-50138D01*
X52841Y-50123D01*
X52871Y-50123D01*
X52916Y-50138D01*
X52931Y-50153D01*
X53036Y-50123D02*
X53231Y-50123D01*
X53126Y-50243D01*
X53171Y-50243D01*
X53201Y-50258D01*
X53216Y-50273D01*
X53231Y-50303D01*
X53231Y-50378D01*
X53216Y-50408D01*
X53201Y-50423D01*
X53171Y-50438D01*
X53081Y-50438D01*
X53051Y-50423D01*
X53036Y-50408D01*
X53381Y-50438D02*
X53441Y-50438D01*
X53471Y-50423D01*
X53486Y-50408D01*
X53516Y-50363D01*
X53531Y-50303D01*
X53531Y-50183D01*
X53516Y-50153D01*
X53501Y-50138D01*
X53471Y-50123D01*
X53411Y-50123D01*
X53381Y-50138D01*
X53366Y-50153D01*
X53351Y-50183D01*
X53351Y-50258D01*
X53366Y-50288D01*
X53381Y-50303D01*
X53411Y-50318D01*
X53471Y-50318D01*
X53501Y-50303D01*
X53516Y-50288D01*
X53531Y-50258D01*
X49108Y-54123D02*
X49003Y-53973D01*
X48928Y-54123D02*
X48928Y-53808D01*
X49048Y-53808D01*
X49078Y-53823D01*
X49093Y-53838D01*
X49108Y-53868D01*
X49108Y-53913D01*
X49093Y-53943D01*
X49078Y-53958D01*
X49048Y-53973D01*
X48928Y-53973D01*
X49213Y-53808D02*
X49408Y-53808D01*
X49303Y-53928D01*
X49348Y-53928D01*
X49378Y-53943D01*
X49393Y-53958D01*
X49408Y-53988D01*
X49408Y-54063D01*
X49393Y-54093D01*
X49378Y-54108D01*
X49348Y-54123D01*
X49258Y-54123D01*
X49228Y-54108D01*
X49213Y-54093D01*
X49588Y-53943D02*
X49558Y-53928D01*
X49543Y-53913D01*
X49528Y-53883D01*
X49528Y-53868D01*
X49543Y-53838D01*
X49558Y-53823D01*
X49588Y-53808D01*
X49648Y-53808D01*
X49678Y-53823D01*
X49693Y-53838D01*
X49708Y-53868D01*
X49708Y-53883D01*
X49693Y-53913D01*
X49678Y-53928D01*
X49648Y-53943D01*
X49588Y-53943D01*
X49558Y-53958D01*
X49543Y-53973D01*
X49528Y-54003D01*
X49528Y-54063D01*
X49543Y-54093D01*
X49558Y-54108D01*
X49588Y-54123D01*
X49648Y-54123D01*
X49678Y-54108D01*
X49693Y-54093D01*
X49708Y-54063D01*
X49708Y-54003D01*
X49693Y-53973D01*
X49678Y-53958D01*
X49648Y-53943D01*
X50017Y-42691D02*
X50002Y-42706D01*
X49958Y-42721D01*
X49928Y-42721D01*
X49883Y-42706D01*
X49853Y-42676D01*
X49838Y-42646D01*
X49823Y-42586D01*
X49823Y-42541D01*
X49838Y-42482D01*
X49853Y-42452D01*
X49883Y-42422D01*
X49928Y-42407D01*
X49958Y-42407D01*
X50002Y-42422D01*
X50017Y-42437D01*
X50317Y-42721D02*
X50137Y-42721D01*
X50227Y-42721D02*
X50227Y-42407D01*
X50197Y-42452D01*
X50167Y-42482D01*
X50137Y-42497D01*
X50602Y-42407D02*
X50452Y-42407D01*
X50437Y-42556D01*
X50452Y-42541D01*
X50482Y-42526D01*
X50557Y-42526D01*
X50587Y-42541D01*
X50602Y-42556D01*
X50617Y-42586D01*
X50617Y-42661D01*
X50602Y-42691D01*
X50587Y-42706D01*
X50557Y-42721D01*
X50482Y-42721D01*
X50452Y-42706D01*
X50437Y-42691D01*
X42762Y-26691D02*
X42747Y-26706D01*
X42702Y-26721D01*
X42672Y-26721D01*
X42627Y-26706D01*
X42597Y-26676D01*
X42582Y-26646D01*
X42567Y-26586D01*
X42567Y-26541D01*
X42582Y-26482D01*
X42597Y-26452D01*
X42627Y-26422D01*
X42672Y-26407D01*
X42702Y-26407D01*
X42747Y-26422D01*
X42762Y-26437D01*
X43062Y-26721D02*
X42882Y-26721D01*
X42972Y-26721D02*
X42972Y-26407D01*
X42942Y-26452D01*
X42912Y-26482D01*
X42882Y-26497D01*
X44104Y-37258D02*
X44089Y-37273D01*
X44044Y-37288D01*
X44014Y-37288D01*
X43970Y-37273D01*
X43940Y-37243D01*
X43925Y-37213D01*
X43910Y-37153D01*
X43910Y-37108D01*
X43925Y-37048D01*
X43940Y-37018D01*
X43970Y-36988D01*
X44014Y-36973D01*
X44044Y-36973D01*
X44089Y-36988D01*
X44104Y-37003D01*
X44209Y-36973D02*
X44404Y-36973D01*
X44299Y-37093D01*
X44344Y-37093D01*
X44374Y-37108D01*
X44389Y-37123D01*
X44404Y-37153D01*
X44404Y-37228D01*
X44389Y-37258D01*
X44374Y-37273D01*
X44344Y-37288D01*
X44254Y-37288D01*
X44224Y-37273D01*
X44209Y-37258D01*
X45538Y-37262D02*
X45523Y-37277D01*
X45478Y-37292D01*
X45448Y-37292D01*
X45403Y-37277D01*
X45373Y-37247D01*
X45358Y-37217D01*
X45343Y-37157D01*
X45343Y-37112D01*
X45358Y-37052D01*
X45373Y-37022D01*
X45403Y-36992D01*
X45448Y-36977D01*
X45478Y-36977D01*
X45523Y-36992D01*
X45538Y-37007D01*
X45808Y-37082D02*
X45808Y-37292D01*
X45733Y-36962D02*
X45658Y-37187D01*
X45853Y-37187D01*
X47057Y-37258D02*
X47042Y-37273D01*
X46997Y-37288D01*
X46967Y-37288D01*
X46922Y-37273D01*
X46892Y-37243D01*
X46877Y-37213D01*
X46862Y-37153D01*
X46862Y-37108D01*
X46877Y-37048D01*
X46892Y-37018D01*
X46922Y-36988D01*
X46967Y-36973D01*
X46997Y-36973D01*
X47042Y-36988D01*
X47057Y-37003D01*
X47162Y-36973D02*
X47372Y-36973D01*
X47237Y-37288D01*
X48321Y-37262D02*
X48306Y-37277D01*
X48261Y-37292D01*
X48231Y-37292D01*
X48186Y-37277D01*
X48156Y-37247D01*
X48141Y-37217D01*
X48126Y-37157D01*
X48126Y-37112D01*
X48141Y-37052D01*
X48156Y-37022D01*
X48186Y-36992D01*
X48231Y-36977D01*
X48261Y-36977D01*
X48306Y-36992D01*
X48321Y-37007D01*
X48621Y-37292D02*
X48441Y-37292D01*
X48531Y-37292D02*
X48531Y-36977D01*
X48501Y-37022D01*
X48471Y-37052D01*
X48441Y-37067D01*
X48816Y-36977D02*
X48846Y-36977D01*
X48876Y-36992D01*
X48891Y-37007D01*
X48906Y-37037D01*
X48921Y-37097D01*
X48921Y-37172D01*
X48906Y-37232D01*
X48891Y-37262D01*
X48876Y-37277D01*
X48846Y-37292D01*
X48816Y-37292D01*
X48786Y-37277D01*
X48771Y-37262D01*
X48756Y-37232D01*
X48741Y-37172D01*
X48741Y-37097D01*
X48756Y-37037D01*
X48771Y-37007D01*
X48786Y-36992D01*
X48816Y-36977D01*
X51277Y-37288D02*
X51172Y-37138D01*
X51097Y-37288D02*
X51097Y-36973D01*
X51217Y-36973D01*
X51247Y-36988D01*
X51262Y-37003D01*
X51277Y-37033D01*
X51277Y-37078D01*
X51262Y-37108D01*
X51247Y-37123D01*
X51217Y-37138D01*
X51097Y-37138D01*
X51577Y-37288D02*
X51397Y-37288D01*
X51487Y-37288D02*
X51487Y-36973D01*
X51457Y-37018D01*
X51427Y-37048D01*
X51397Y-37063D01*
X51772Y-36973D02*
X51802Y-36973D01*
X51832Y-36988D01*
X51847Y-37003D01*
X51862Y-37033D01*
X51877Y-37093D01*
X51877Y-37168D01*
X51862Y-37228D01*
X51847Y-37258D01*
X51832Y-37273D01*
X51802Y-37288D01*
X51772Y-37288D01*
X51742Y-37273D01*
X51727Y-37258D01*
X51712Y-37228D01*
X51697Y-37168D01*
X51697Y-37093D01*
X51712Y-37033D01*
X51727Y-37003D01*
X51742Y-36988D01*
X51772Y-36973D01*
X50368Y-43867D02*
X50263Y-43717D01*
X50188Y-43867D02*
X50188Y-43552D01*
X50308Y-43552D01*
X50338Y-43567D01*
X50353Y-43582D01*
X50368Y-43612D01*
X50368Y-43657D01*
X50353Y-43687D01*
X50338Y-43702D01*
X50308Y-43717D01*
X50188Y-43717D01*
X50668Y-43867D02*
X50488Y-43867D01*
X50578Y-43867D02*
X50578Y-43552D01*
X50548Y-43597D01*
X50518Y-43627D01*
X50488Y-43642D01*
X50773Y-43552D02*
X50968Y-43552D01*
X50863Y-43672D01*
X50908Y-43672D01*
X50938Y-43687D01*
X50953Y-43702D01*
X50968Y-43732D01*
X50968Y-43807D01*
X50953Y-43837D01*
X50938Y-43852D01*
X50908Y-43867D01*
X50818Y-43867D01*
X50788Y-43852D01*
X50773Y-43837D01*
X50919Y-40895D02*
X50814Y-40745D01*
X50739Y-40895D02*
X50739Y-40580D01*
X50859Y-40580D01*
X50889Y-40595D01*
X50904Y-40610D01*
X50919Y-40640D01*
X50919Y-40685D01*
X50904Y-40715D01*
X50889Y-40730D01*
X50859Y-40745D01*
X50739Y-40745D01*
X51219Y-40895D02*
X51039Y-40895D01*
X51129Y-40895D02*
X51129Y-40580D01*
X51099Y-40625D01*
X51069Y-40655D01*
X51039Y-40670D01*
X51489Y-40685D02*
X51489Y-40895D01*
X51414Y-40565D02*
X51339Y-40790D01*
X51534Y-40790D01*
X51844Y-40865D02*
X51829Y-40880D01*
X51784Y-40895D01*
X51754Y-40895D01*
X51709Y-40880D01*
X51679Y-40850D01*
X51664Y-40820D01*
X51649Y-40760D01*
X51649Y-40715D01*
X51664Y-40655D01*
X51679Y-40625D01*
X51709Y-40595D01*
X51754Y-40580D01*
X51784Y-40580D01*
X51829Y-40595D01*
X51844Y-40610D01*
X52144Y-40895D02*
X51964Y-40895D01*
X52054Y-40895D02*
X52054Y-40580D01*
X52024Y-40625D01*
X51994Y-40655D01*
X51964Y-40670D01*
X52414Y-40685D02*
X52414Y-40895D01*
X52339Y-40565D02*
X52264Y-40790D01*
X52459Y-40790D01*
X52395Y-46111D02*
X52290Y-45961D01*
X52215Y-46111D02*
X52215Y-45796D01*
X52335Y-45796D01*
X52365Y-45811D01*
X52380Y-45826D01*
X52395Y-45856D01*
X52395Y-45901D01*
X52380Y-45931D01*
X52365Y-45946D01*
X52335Y-45961D01*
X52215Y-45961D01*
X52695Y-46111D02*
X52515Y-46111D01*
X52605Y-46111D02*
X52605Y-45796D01*
X52575Y-45841D01*
X52545Y-45871D01*
X52515Y-45886D01*
X52815Y-45826D02*
X52830Y-45811D01*
X52860Y-45796D01*
X52935Y-45796D01*
X52965Y-45811D01*
X52980Y-45826D01*
X52995Y-45856D01*
X52995Y-45886D01*
X52980Y-45931D01*
X52800Y-46111D01*
X52995Y-46111D01*
X49718Y-48611D02*
X49613Y-48461D01*
X49538Y-48611D02*
X49538Y-48296D01*
X49658Y-48296D01*
X49688Y-48311D01*
X49703Y-48326D01*
X49718Y-48356D01*
X49718Y-48401D01*
X49703Y-48431D01*
X49688Y-48446D01*
X49658Y-48461D01*
X49538Y-48461D01*
X49823Y-48296D02*
X50018Y-48296D01*
X49913Y-48416D01*
X49958Y-48416D01*
X49988Y-48431D01*
X50003Y-48446D01*
X50018Y-48476D01*
X50018Y-48551D01*
X50003Y-48581D01*
X49988Y-48596D01*
X49958Y-48611D01*
X49868Y-48611D01*
X49838Y-48596D01*
X49823Y-48581D01*
X50288Y-48401D02*
X50288Y-48611D01*
X50213Y-48281D02*
X50138Y-48506D01*
X50333Y-48506D01*
X52801Y-35757D02*
X52696Y-35607D01*
X52621Y-35757D02*
X52621Y-35442D01*
X52741Y-35442D01*
X52771Y-35457D01*
X52786Y-35472D01*
X52801Y-35502D01*
X52801Y-35547D01*
X52786Y-35577D01*
X52771Y-35592D01*
X52741Y-35607D01*
X52621Y-35607D01*
X52981Y-35577D02*
X52951Y-35562D01*
X52936Y-35547D01*
X52921Y-35517D01*
X52921Y-35502D01*
X52936Y-35472D01*
X52951Y-35457D01*
X52981Y-35442D01*
X53041Y-35442D01*
X53071Y-35457D01*
X53086Y-35472D01*
X53101Y-35502D01*
X53101Y-35517D01*
X53086Y-35547D01*
X53071Y-35562D01*
X53041Y-35577D01*
X52981Y-35577D01*
X52951Y-35592D01*
X52936Y-35607D01*
X52921Y-35637D01*
X52921Y-35697D01*
X52936Y-35727D01*
X52951Y-35742D01*
X52981Y-35757D01*
X53041Y-35757D01*
X53071Y-35742D01*
X53086Y-35727D01*
X53101Y-35697D01*
X53101Y-35637D01*
X53086Y-35607D01*
X53071Y-35592D01*
X53041Y-35577D01*
X51175Y-46081D02*
X51160Y-46096D01*
X51115Y-46111D01*
X51085Y-46111D01*
X51040Y-46096D01*
X51010Y-46066D01*
X50995Y-46036D01*
X50980Y-45976D01*
X50980Y-45931D01*
X50995Y-45871D01*
X51010Y-45841D01*
X51040Y-45811D01*
X51085Y-45796D01*
X51115Y-45796D01*
X51160Y-45811D01*
X51175Y-45826D01*
X51475Y-46111D02*
X51295Y-46111D01*
X51385Y-46111D02*
X51385Y-45796D01*
X51355Y-45841D01*
X51325Y-45871D01*
X51295Y-45886D01*
X51595Y-45826D02*
X51610Y-45811D01*
X51640Y-45796D01*
X51715Y-45796D01*
X51745Y-45811D01*
X51760Y-45826D01*
X51775Y-45856D01*
X51775Y-45886D01*
X51760Y-45931D01*
X51580Y-46111D01*
X51775Y-46111D01*
X48517Y-42725D02*
X48413Y-42575D01*
X48338Y-42725D02*
X48338Y-42410D01*
X48458Y-42410D01*
X48488Y-42425D01*
X48502Y-42440D01*
X48517Y-42470D01*
X48517Y-42515D01*
X48502Y-42545D01*
X48488Y-42560D01*
X48458Y-42575D01*
X48338Y-42575D01*
X48817Y-42725D02*
X48637Y-42725D01*
X48727Y-42725D02*
X48727Y-42410D01*
X48697Y-42455D01*
X48667Y-42485D01*
X48637Y-42500D01*
X49087Y-42410D02*
X49027Y-42410D01*
X48997Y-42425D01*
X48982Y-42440D01*
X48952Y-42485D01*
X48937Y-42545D01*
X48937Y-42665D01*
X48952Y-42695D01*
X48967Y-42710D01*
X48997Y-42725D01*
X49057Y-42725D01*
X49087Y-42710D01*
X49102Y-42695D01*
X49117Y-42665D01*
X49117Y-42590D01*
X49102Y-42560D01*
X49087Y-42545D01*
X49057Y-42530D01*
X48997Y-42530D01*
X48967Y-42545D01*
X48952Y-42560D01*
X48937Y-42590D01*
X49955Y-45560D02*
X49850Y-45410D01*
X49775Y-45560D02*
X49775Y-45245D01*
X49895Y-45245D01*
X49925Y-45260D01*
X49940Y-45275D01*
X49955Y-45305D01*
X49955Y-45350D01*
X49940Y-45380D01*
X49925Y-45395D01*
X49895Y-45410D01*
X49775Y-45410D01*
X50074Y-45275D02*
X50089Y-45260D01*
X50119Y-45245D01*
X50194Y-45245D01*
X50224Y-45260D01*
X50239Y-45275D01*
X50254Y-45305D01*
X50254Y-45335D01*
X50239Y-45380D01*
X50059Y-45560D01*
X50254Y-45560D01*
X50449Y-45245D02*
X50479Y-45245D01*
X50509Y-45260D01*
X50524Y-45275D01*
X50539Y-45305D01*
X50554Y-45365D01*
X50554Y-45440D01*
X50539Y-45500D01*
X50524Y-45530D01*
X50509Y-45545D01*
X50479Y-45560D01*
X50449Y-45560D01*
X50419Y-45545D01*
X50404Y-45530D01*
X50389Y-45500D01*
X50374Y-45440D01*
X50374Y-45365D01*
X50389Y-45305D01*
X50404Y-45275D01*
X50419Y-45260D01*
X50449Y-45245D01*
X48931Y-45550D02*
X48916Y-45565D01*
X48871Y-45580D01*
X48841Y-45580D01*
X48796Y-45565D01*
X48766Y-45535D01*
X48751Y-45505D01*
X48736Y-45445D01*
X48736Y-45400D01*
X48751Y-45340D01*
X48766Y-45310D01*
X48796Y-45280D01*
X48841Y-45265D01*
X48871Y-45265D01*
X48916Y-45280D01*
X48931Y-45295D01*
X49231Y-45580D02*
X49051Y-45580D01*
X49141Y-45580D02*
X49141Y-45265D01*
X49111Y-45310D01*
X49081Y-45340D01*
X49051Y-45355D01*
X49381Y-45580D02*
X49441Y-45580D01*
X49471Y-45565D01*
X49486Y-45550D01*
X49516Y-45505D01*
X49531Y-45445D01*
X49531Y-45325D01*
X49516Y-45295D01*
X49501Y-45280D01*
X49471Y-45265D01*
X49411Y-45265D01*
X49381Y-45280D01*
X49366Y-45295D01*
X49351Y-45325D01*
X49351Y-45400D01*
X49366Y-45430D01*
X49381Y-45445D01*
X49411Y-45460D01*
X49471Y-45460D01*
X49501Y-45445D01*
X49516Y-45430D01*
X49531Y-45400D01*
X48203Y-43867D02*
X48098Y-43717D01*
X48023Y-43867D02*
X48023Y-43552D01*
X48143Y-43552D01*
X48173Y-43567D01*
X48188Y-43582D01*
X48203Y-43612D01*
X48203Y-43657D01*
X48188Y-43687D01*
X48173Y-43702D01*
X48143Y-43717D01*
X48023Y-43717D01*
X48502Y-43867D02*
X48323Y-43867D01*
X48413Y-43867D02*
X48413Y-43552D01*
X48383Y-43597D01*
X48353Y-43627D01*
X48323Y-43642D01*
X48652Y-43867D02*
X48712Y-43867D01*
X48742Y-43852D01*
X48757Y-43837D01*
X48787Y-43792D01*
X48802Y-43732D01*
X48802Y-43612D01*
X48787Y-43582D01*
X48772Y-43567D01*
X48742Y-43552D01*
X48682Y-43552D01*
X48652Y-43567D01*
X48637Y-43582D01*
X48622Y-43612D01*
X48622Y-43687D01*
X48637Y-43717D01*
X48652Y-43732D01*
X48682Y-43747D01*
X48742Y-43747D01*
X48772Y-43732D01*
X48787Y-43717D01*
X48802Y-43687D01*
X45762Y-40973D02*
X45657Y-40823D01*
X45582Y-40973D02*
X45582Y-40658D01*
X45702Y-40658D01*
X45732Y-40673D01*
X45747Y-40688D01*
X45762Y-40718D01*
X45762Y-40763D01*
X45747Y-40793D01*
X45732Y-40808D01*
X45702Y-40823D01*
X45582Y-40823D01*
X46062Y-40973D02*
X45882Y-40973D01*
X45972Y-40973D02*
X45972Y-40658D01*
X45942Y-40703D01*
X45912Y-40733D01*
X45882Y-40748D01*
X46242Y-40793D02*
X46212Y-40778D01*
X46197Y-40763D01*
X46182Y-40733D01*
X46182Y-40718D01*
X46197Y-40688D01*
X46212Y-40673D01*
X46242Y-40658D01*
X46302Y-40658D01*
X46332Y-40673D01*
X46347Y-40688D01*
X46362Y-40718D01*
X46362Y-40733D01*
X46347Y-40763D01*
X46332Y-40778D01*
X46302Y-40793D01*
X46242Y-40793D01*
X46212Y-40808D01*
X46197Y-40823D01*
X46182Y-40853D01*
X46182Y-40913D01*
X46197Y-40943D01*
X46212Y-40958D01*
X46242Y-40973D01*
X46302Y-40973D01*
X46332Y-40958D01*
X46347Y-40943D01*
X46362Y-40913D01*
X46362Y-40853D01*
X46347Y-40823D01*
X46332Y-40808D01*
X46302Y-40793D01*
X43557Y-41298D02*
X43542Y-41313D01*
X43497Y-41328D01*
X43467Y-41328D01*
X43422Y-41313D01*
X43392Y-41283D01*
X43377Y-41253D01*
X43362Y-41193D01*
X43362Y-41148D01*
X43377Y-41088D01*
X43392Y-41058D01*
X43422Y-41028D01*
X43467Y-41013D01*
X43497Y-41013D01*
X43542Y-41028D01*
X43557Y-41043D01*
X43857Y-41328D02*
X43677Y-41328D01*
X43767Y-41328D02*
X43767Y-41013D01*
X43737Y-41058D01*
X43707Y-41088D01*
X43677Y-41103D01*
X44037Y-41148D02*
X44007Y-41133D01*
X43992Y-41118D01*
X43977Y-41088D01*
X43977Y-41073D01*
X43992Y-41043D01*
X44007Y-41028D01*
X44037Y-41013D01*
X44097Y-41013D01*
X44127Y-41028D01*
X44142Y-41043D01*
X44157Y-41073D01*
X44157Y-41088D01*
X44142Y-41118D01*
X44127Y-41133D01*
X44097Y-41148D01*
X44037Y-41148D01*
X44007Y-41163D01*
X43992Y-41178D01*
X43977Y-41208D01*
X43977Y-41268D01*
X43992Y-41298D01*
X44007Y-41313D01*
X44037Y-41328D01*
X44097Y-41328D01*
X44127Y-41313D01*
X44142Y-41298D01*
X44157Y-41268D01*
X44157Y-41208D01*
X44142Y-41178D01*
X44127Y-41163D01*
X44097Y-41148D01*
X53419Y-49340D02*
X53314Y-49190D01*
X53239Y-49340D02*
X53239Y-49025D01*
X53359Y-49025D01*
X53389Y-49040D01*
X53404Y-49055D01*
X53419Y-49085D01*
X53419Y-49130D01*
X53404Y-49160D01*
X53389Y-49175D01*
X53359Y-49190D01*
X53239Y-49190D01*
X53524Y-49025D02*
X53719Y-49025D01*
X53614Y-49145D01*
X53659Y-49145D01*
X53689Y-49160D01*
X53704Y-49175D01*
X53719Y-49205D01*
X53719Y-49280D01*
X53704Y-49310D01*
X53689Y-49325D01*
X53659Y-49340D01*
X53569Y-49340D01*
X53539Y-49325D01*
X53524Y-49310D01*
X53989Y-49025D02*
X53929Y-49025D01*
X53899Y-49040D01*
X53884Y-49055D01*
X53854Y-49100D01*
X53839Y-49160D01*
X53839Y-49280D01*
X53854Y-49310D01*
X53869Y-49325D01*
X53899Y-49340D01*
X53959Y-49340D01*
X53989Y-49325D01*
X54004Y-49310D01*
X54019Y-49280D01*
X54019Y-49205D01*
X54004Y-49175D01*
X53989Y-49160D01*
X53959Y-49145D01*
X53899Y-49145D01*
X53869Y-49160D01*
X53854Y-49175D01*
X53839Y-49205D01*
X54443Y-49310D02*
X54428Y-49325D01*
X54383Y-49340D01*
X54353Y-49340D01*
X54308Y-49325D01*
X54278Y-49295D01*
X54263Y-49265D01*
X54248Y-49205D01*
X54248Y-49160D01*
X54263Y-49100D01*
X54278Y-49070D01*
X54308Y-49040D01*
X54353Y-49025D01*
X54383Y-49025D01*
X54428Y-49040D01*
X54443Y-49055D01*
X54548Y-49025D02*
X54743Y-49025D01*
X54638Y-49145D01*
X54683Y-49145D01*
X54713Y-49160D01*
X54728Y-49175D01*
X54743Y-49205D01*
X54743Y-49280D01*
X54728Y-49310D01*
X54713Y-49325D01*
X54683Y-49340D01*
X54593Y-49340D01*
X54563Y-49325D01*
X54548Y-49310D01*
X55028Y-49025D02*
X54878Y-49025D01*
X54863Y-49175D01*
X54878Y-49160D01*
X54908Y-49145D01*
X54983Y-49145D01*
X55013Y-49160D01*
X55028Y-49175D01*
X55043Y-49205D01*
X55043Y-49280D01*
X55028Y-49310D01*
X55013Y-49325D01*
X54983Y-49340D01*
X54908Y-49340D01*
X54878Y-49325D01*
X54863Y-49310D01*
X55479Y-53099D02*
X55329Y-53099D01*
X55329Y-52784D01*
X55718Y-52784D02*
X55658Y-52784D01*
X55628Y-52799D01*
X55613Y-52814D01*
X55583Y-52859D01*
X55568Y-52919D01*
X55568Y-53039D01*
X55583Y-53069D01*
X55598Y-53084D01*
X55628Y-53099D01*
X55688Y-53099D01*
X55718Y-53084D01*
X55733Y-53069D01*
X55748Y-53039D01*
X55748Y-52964D01*
X55733Y-52934D01*
X55718Y-52919D01*
X55688Y-52904D01*
X55628Y-52904D01*
X55598Y-52919D01*
X55583Y-52934D01*
X55568Y-52964D01*
X49994Y-49802D02*
X49979Y-49817D01*
X49934Y-49832D01*
X49904Y-49832D01*
X49859Y-49817D01*
X49829Y-49787D01*
X49814Y-49757D01*
X49799Y-49697D01*
X49799Y-49652D01*
X49814Y-49592D01*
X49829Y-49562D01*
X49859Y-49532D01*
X49904Y-49517D01*
X49934Y-49517D01*
X49979Y-49532D01*
X49994Y-49547D01*
X50099Y-49517D02*
X50294Y-49517D01*
X50189Y-49637D01*
X50234Y-49637D01*
X50264Y-49652D01*
X50279Y-49667D01*
X50294Y-49697D01*
X50294Y-49772D01*
X50279Y-49802D01*
X50264Y-49817D01*
X50234Y-49832D01*
X50144Y-49832D01*
X50114Y-49817D01*
X50099Y-49802D01*
X50564Y-49622D02*
X50564Y-49832D01*
X50489Y-49502D02*
X50414Y-49727D01*
X50609Y-49727D01*
X48557Y-47548D02*
X48452Y-47398D01*
X48377Y-47548D02*
X48377Y-47233D01*
X48497Y-47233D01*
X48527Y-47248D01*
X48542Y-47263D01*
X48557Y-47293D01*
X48557Y-47338D01*
X48542Y-47368D01*
X48527Y-47383D01*
X48497Y-47398D01*
X48377Y-47398D01*
X48662Y-47233D02*
X48857Y-47233D01*
X48752Y-47353D01*
X48797Y-47353D01*
X48827Y-47368D01*
X48842Y-47383D01*
X48857Y-47413D01*
X48857Y-47488D01*
X48842Y-47518D01*
X48827Y-47533D01*
X48797Y-47548D01*
X48707Y-47548D01*
X48677Y-47533D01*
X48662Y-47518D01*
X48977Y-47263D02*
X48992Y-47248D01*
X49022Y-47233D01*
X49097Y-47233D01*
X49127Y-47248D01*
X49142Y-47263D01*
X49157Y-47293D01*
X49157Y-47323D01*
X49142Y-47368D01*
X48962Y-47548D01*
X49157Y-47548D01*
G54D12*
X44805Y-50141D02*
X44787Y-50160D01*
X44730Y-50179D01*
X44693Y-50179D01*
X44637Y-50160D01*
X44599Y-50122D01*
X44580Y-50085D01*
X44562Y-50010D01*
X44562Y-49954D01*
X44580Y-49879D01*
X44599Y-49841D01*
X44637Y-49804D01*
X44693Y-49785D01*
X44730Y-49785D01*
X44787Y-49804D01*
X44805Y-49822D01*
X44955Y-49822D02*
X44974Y-49804D01*
X45012Y-49785D01*
X45105Y-49785D01*
X45143Y-49804D01*
X45162Y-49822D01*
X45180Y-49860D01*
X45180Y-49897D01*
X45162Y-49954D01*
X44937Y-50179D01*
X45180Y-50179D01*
X45368Y-50179D02*
X45443Y-50179D01*
X45480Y-50160D01*
X45499Y-50141D01*
X45537Y-50085D01*
X45555Y-50010D01*
X45555Y-49860D01*
X45537Y-49822D01*
X45518Y-49804D01*
X45480Y-49785D01*
X45405Y-49785D01*
X45368Y-49804D01*
X45349Y-49822D01*
X45330Y-49860D01*
X45330Y-49954D01*
X45349Y-49991D01*
X45368Y-50010D01*
X45405Y-50029D01*
X45480Y-50029D01*
X45518Y-50010D01*
X45537Y-49991D01*
X45555Y-49954D01*
X49491Y-26962D02*
X49472Y-26981D01*
X49416Y-26999D01*
X49378Y-26999D01*
X49322Y-26981D01*
X49284Y-26943D01*
X49266Y-26906D01*
X49247Y-26831D01*
X49247Y-26774D01*
X49266Y-26699D01*
X49284Y-26662D01*
X49322Y-26624D01*
X49378Y-26606D01*
X49416Y-26606D01*
X49472Y-26624D01*
X49491Y-26643D01*
X49847Y-26606D02*
X49659Y-26606D01*
X49640Y-26793D01*
X49659Y-26774D01*
X49697Y-26756D01*
X49790Y-26756D01*
X49828Y-26774D01*
X49847Y-26793D01*
X49865Y-26831D01*
X49865Y-26924D01*
X49847Y-26962D01*
X49828Y-26981D01*
X49790Y-26999D01*
X49697Y-26999D01*
X49659Y-26981D01*
X49640Y-26962D01*
X50240Y-26999D02*
X50015Y-26999D01*
X50128Y-26999D02*
X50128Y-26606D01*
X50090Y-26662D01*
X50053Y-26699D01*
X50015Y-26718D01*
X50722Y-31712D02*
X50617Y-31562D01*
X50542Y-31712D02*
X50542Y-31397D01*
X50662Y-31397D01*
X50692Y-31412D01*
X50707Y-31427D01*
X50722Y-31457D01*
X50722Y-31502D01*
X50707Y-31532D01*
X50692Y-31547D01*
X50662Y-31562D01*
X50542Y-31562D01*
X51007Y-31397D02*
X50857Y-31397D01*
X50842Y-31547D01*
X50857Y-31532D01*
X50887Y-31517D01*
X50962Y-31517D01*
X50992Y-31532D01*
X51007Y-31547D01*
X51022Y-31577D01*
X51022Y-31652D01*
X51007Y-31682D01*
X50992Y-31697D01*
X50962Y-31712D01*
X50887Y-31712D01*
X50857Y-31697D01*
X50842Y-31682D01*
X51217Y-31397D02*
X51247Y-31397D01*
X51277Y-31412D01*
X51292Y-31427D01*
X51307Y-31457D01*
X51322Y-31517D01*
X51322Y-31592D01*
X51307Y-31652D01*
X51292Y-31682D01*
X51277Y-31697D01*
X51247Y-31712D01*
X51217Y-31712D01*
X51187Y-31697D01*
X51172Y-31682D01*
X51157Y-31652D01*
X51142Y-31592D01*
X51142Y-31517D01*
X51157Y-31457D01*
X51172Y-31427D01*
X51187Y-31412D01*
X51217Y-31397D01*
G54D19*
X47931Y-31964D02*
X47912Y-31983D01*
X47855Y-32002D01*
X47817Y-32002D01*
X47760Y-31983D01*
X47722Y-31945D01*
X47703Y-31907D01*
X47684Y-31831D01*
X47684Y-31773D01*
X47703Y-31697D01*
X47722Y-31659D01*
X47760Y-31621D01*
X47817Y-31602D01*
X47855Y-31602D01*
X47912Y-31621D01*
X47931Y-31640D01*
X48293Y-31602D02*
X48103Y-31602D01*
X48084Y-31792D01*
X48103Y-31773D01*
X48141Y-31754D01*
X48236Y-31754D01*
X48274Y-31773D01*
X48293Y-31792D01*
X48312Y-31831D01*
X48312Y-31926D01*
X48293Y-31964D01*
X48274Y-31983D01*
X48236Y-32002D01*
X48141Y-32002D01*
X48103Y-31983D01*
X48084Y-31964D01*
X48446Y-31602D02*
X48693Y-31602D01*
X48560Y-31754D01*
X48617Y-31754D01*
X48655Y-31773D01*
X48674Y-31792D01*
X48693Y-31831D01*
X48693Y-31926D01*
X48674Y-31964D01*
X48655Y-31983D01*
X48617Y-32002D01*
X48503Y-32002D01*
X48465Y-31983D01*
X48446Y-31964D01*
G54D12*
X58211Y-51460D02*
X58192Y-51479D01*
X58136Y-51497D01*
X58098Y-51497D01*
X58042Y-51479D01*
X58005Y-51441D01*
X57986Y-51404D01*
X57967Y-51329D01*
X57967Y-51272D01*
X57986Y-51197D01*
X58005Y-51160D01*
X58042Y-51122D01*
X58098Y-51104D01*
X58136Y-51104D01*
X58192Y-51122D01*
X58211Y-51141D01*
X58361Y-51141D02*
X58380Y-51122D01*
X58417Y-51104D01*
X58511Y-51104D01*
X58548Y-51122D01*
X58567Y-51141D01*
X58586Y-51179D01*
X58586Y-51216D01*
X58567Y-51272D01*
X58342Y-51497D01*
X58586Y-51497D01*
X58830Y-51104D02*
X58867Y-51104D01*
X58905Y-51122D01*
X58923Y-51141D01*
X58942Y-51179D01*
X58961Y-51254D01*
X58961Y-51347D01*
X58942Y-51422D01*
X58923Y-51460D01*
X58905Y-51479D01*
X58867Y-51497D01*
X58830Y-51497D01*
X58792Y-51479D01*
X58773Y-51460D01*
X58755Y-51422D01*
X58736Y-51347D01*
X58736Y-51254D01*
X58755Y-51179D01*
X58773Y-51141D01*
X58792Y-51122D01*
X58830Y-51104D01*
X48920Y-50633D02*
X48901Y-50652D01*
X48845Y-50671D01*
X48807Y-50671D01*
X48751Y-50652D01*
X48713Y-50614D01*
X48695Y-50577D01*
X48676Y-50502D01*
X48676Y-50446D01*
X48695Y-50371D01*
X48713Y-50333D01*
X48751Y-50296D01*
X48807Y-50277D01*
X48845Y-50277D01*
X48901Y-50296D01*
X48920Y-50314D01*
X49051Y-50277D02*
X49295Y-50277D01*
X49163Y-50427D01*
X49220Y-50427D01*
X49257Y-50446D01*
X49276Y-50464D01*
X49295Y-50502D01*
X49295Y-50596D01*
X49276Y-50633D01*
X49257Y-50652D01*
X49220Y-50671D01*
X49107Y-50671D01*
X49070Y-50652D01*
X49051Y-50633D01*
X49632Y-50277D02*
X49557Y-50277D01*
X49520Y-50296D01*
X49501Y-50314D01*
X49463Y-50371D01*
X49445Y-50446D01*
X49445Y-50596D01*
X49463Y-50633D01*
X49482Y-50652D01*
X49520Y-50671D01*
X49595Y-50671D01*
X49632Y-50652D01*
X49651Y-50633D01*
X49670Y-50596D01*
X49670Y-50502D01*
X49651Y-50464D01*
X49632Y-50446D01*
X49595Y-50427D01*
X49520Y-50427D01*
X49482Y-50446D01*
X49463Y-50464D01*
X49445Y-50502D01*
X51262Y-47484D02*
X51243Y-47502D01*
X51187Y-47521D01*
X51150Y-47521D01*
X51093Y-47502D01*
X51056Y-47465D01*
X51037Y-47427D01*
X51018Y-47352D01*
X51018Y-47296D01*
X51037Y-47221D01*
X51056Y-47184D01*
X51093Y-47146D01*
X51150Y-47127D01*
X51187Y-47127D01*
X51243Y-47146D01*
X51262Y-47165D01*
X51393Y-47127D02*
X51637Y-47127D01*
X51506Y-47277D01*
X51562Y-47277D01*
X51600Y-47296D01*
X51618Y-47315D01*
X51637Y-47352D01*
X51637Y-47446D01*
X51618Y-47484D01*
X51600Y-47502D01*
X51562Y-47521D01*
X51450Y-47521D01*
X51412Y-47502D01*
X51393Y-47484D01*
X51768Y-47127D02*
X52012Y-47127D01*
X51881Y-47277D01*
X51937Y-47277D01*
X51975Y-47296D01*
X51993Y-47315D01*
X52012Y-47352D01*
X52012Y-47446D01*
X51993Y-47484D01*
X51975Y-47502D01*
X51937Y-47521D01*
X51825Y-47521D01*
X51787Y-47502D01*
X51768Y-47484D01*
G54D22*
X43595Y-25864D02*
X43595Y-26173D01*
X43575Y-26235D01*
X43533Y-26276D01*
X43472Y-26297D01*
X43430Y-26297D01*
X43822Y-26297D02*
X43905Y-26297D01*
X43946Y-26276D01*
X43967Y-26256D01*
X44008Y-26194D01*
X44028Y-26111D01*
X44028Y-25946D01*
X44008Y-25905D01*
X43987Y-25884D01*
X43946Y-25864D01*
X43863Y-25864D01*
X43822Y-25884D01*
X43802Y-25905D01*
X43781Y-25946D01*
X43781Y-26049D01*
X43802Y-26091D01*
X43822Y-26111D01*
X43863Y-26132D01*
X43946Y-26132D01*
X43987Y-26111D01*
X44008Y-26091D01*
X44028Y-26049D01*
X46293Y-26158D02*
X46518Y-26158D01*
X46248Y-26293D02*
X46406Y-25821D01*
X46563Y-26293D01*
X46721Y-25978D02*
X46721Y-26293D01*
X46721Y-26023D02*
X46743Y-26001D01*
X46788Y-25978D01*
X46856Y-25978D01*
X46901Y-26001D01*
X46923Y-26046D01*
X46923Y-26293D01*
X47080Y-25978D02*
X47260Y-25978D01*
X47148Y-25821D02*
X47148Y-26226D01*
X47170Y-26271D01*
X47215Y-26293D01*
X47260Y-26293D01*
X47598Y-26271D02*
X47553Y-26293D01*
X47463Y-26293D01*
X47418Y-26271D01*
X47395Y-26226D01*
X47395Y-26046D01*
X47418Y-26001D01*
X47463Y-25978D01*
X47553Y-25978D01*
X47598Y-26001D01*
X47620Y-26046D01*
X47620Y-26091D01*
X47395Y-26136D01*
X47823Y-25978D02*
X47823Y-26293D01*
X47823Y-26023D02*
X47845Y-26001D01*
X47890Y-25978D01*
X47958Y-25978D01*
X48003Y-26001D01*
X48025Y-26046D01*
X48025Y-26293D01*
X48250Y-25978D02*
X48250Y-26293D01*
X48250Y-26023D02*
X48273Y-26001D01*
X48318Y-25978D01*
X48385Y-25978D01*
X48430Y-26001D01*
X48453Y-26046D01*
X48453Y-26293D01*
X48880Y-26293D02*
X48880Y-26046D01*
X48858Y-26001D01*
X48813Y-25978D01*
X48723Y-25978D01*
X48678Y-26001D01*
X48880Y-26271D02*
X48835Y-26293D01*
X48723Y-26293D01*
X48678Y-26271D01*
X48655Y-26226D01*
X48655Y-26181D01*
X48678Y-26136D01*
X48723Y-26113D01*
X48835Y-26113D01*
X48880Y-26091D01*
X50157Y-25703D02*
X50157Y-26040D01*
X50134Y-26107D01*
X50089Y-26152D01*
X50022Y-26175D01*
X49977Y-26175D01*
X50449Y-25905D02*
X50404Y-25883D01*
X50382Y-25860D01*
X50359Y-25815D01*
X50359Y-25793D01*
X50382Y-25748D01*
X50404Y-25725D01*
X50449Y-25703D01*
X50539Y-25703D01*
X50584Y-25725D01*
X50607Y-25748D01*
X50629Y-25793D01*
X50629Y-25815D01*
X50607Y-25860D01*
X50584Y-25883D01*
X50539Y-25905D01*
X50449Y-25905D01*
X50404Y-25928D01*
X50382Y-25950D01*
X50359Y-25995D01*
X50359Y-26085D01*
X50382Y-26130D01*
X50404Y-26152D01*
X50449Y-26175D01*
X50539Y-26175D01*
X50584Y-26152D01*
X50607Y-26130D01*
X50629Y-26085D01*
X50629Y-25995D01*
X50607Y-25950D01*
X50584Y-25928D01*
X50539Y-25905D01*
X52809Y-25975D02*
X53169Y-25975D01*
X52989Y-26155D02*
X52989Y-25795D01*
X53641Y-26155D02*
X53371Y-26155D01*
X53506Y-26155D02*
X53506Y-25683D01*
X53461Y-25750D01*
X53416Y-25795D01*
X53371Y-25818D01*
X53821Y-25728D02*
X53844Y-25705D01*
X53889Y-25683D01*
X54001Y-25683D01*
X54046Y-25705D01*
X54069Y-25728D01*
X54091Y-25773D01*
X54091Y-25818D01*
X54069Y-25885D01*
X53799Y-26155D01*
X54091Y-26155D01*
X54226Y-25683D02*
X54384Y-26155D01*
X54541Y-25683D01*
G54D10*
G36*
X65314Y-54488D02*
X61456Y-54488D01*
X61456Y-53188D01*
X65314Y-53188D01*
X65314Y-54488D01*
X65314Y-54488D01*
G37*
G54D22*
X65314Y-54488D02*
X61456Y-54488D01*
X61456Y-53188D01*
X65314Y-53188D01*
X65314Y-54488D01*
M02*
